<?xml version="1.0" standalone="no"?>
<!DOCTYPE svg PUBLIC "-//W3C//DTD SVG 1.1//EN" "http://www.w3.org/Graphics/SVG/1.1/DTD/svg11.dtd" >
<svg xmlns="http://www.w3.org/2000/svg" xmlns:xlink="http://www.w3.org/1999/xlink" version="1.1">
<metadata>
Created by FontForge 20170910 at Fri Jul 13 20:55:58 2007
 By Jimmy Wärting
Copyright (C) 2002, 2007 Hoefler &#38; Frere-Jones. http://www.typography.com
</metadata>
<defs>
<font id="ChronicleDisplay-Roman" horiz-adv-x="758" >
  <font-face 
    font-family="Chronicle Display"
    font-weight="325"
    font-stretch="normal"
    units-per-em="1000"
    panose-1="0 0 0 0 0 0 0 0 0 0"
    ascent="800"
    descent="-200"
    x-height="459"
    cap-height="697"
    bbox="-68 -270 1090 1116"
    underline-thickness="50"
    underline-position="-100"
    stemh="12"
    stemv="84"
    unicode-range="U+0020-FB04"
  />
<missing-glyph horiz-adv-x="500" 
d="M0 -200v1000h500v-1000h-500zM71 750l179 -390l179 390h-358zM50 -76l172 376l-172 376v-752zM450 676l-172 -376l172 -376v752zM250 240l-179 -390h358z" />
    <glyph glyph-name="f_b" unicode="fb" horiz-adv-x="832" 
d="M375 575c-20 5 -37 18 -37 49c0 18 11 36 21 45c-10 18 -29 36 -63 36c-33 0 -55 -10 -74 -29c-20 -20 -34 -51 -34 -114v-105h187v118zM576 10c87 0 127 92 127 228c0 112 -50 193 -133 193c-45 0 -79 -19 -111 -57v-277c21 -58 70 -87 117 -87zM284 0h-253v12
c58 1 73 6 73 40v375h-85v10l85 23v41c0 78 21 132 56 167c39 39 92 54 139 54c31 0 56 -4 76 -12l84 7v-322c40 45 90 72 152 72c115 0 185 -95 185 -224c0 -134 -81 -251 -210 -251c-51 0 -102 11 -158 49l-44 -53h-12l3 88v351h-187v-375c0 -34 25 -39 96 -40v-12z" />
    <glyph glyph-name="f_f" unicode="ff" horiz-adv-x="575" 
d="M299 722c72 0 110 -23 127 -49l2 2c32 32 71 48 110 48c77 0 115 -37 115 -75c0 -32 -21 -53 -50 -53c-26 0 -53 14 -53 54c0 15 6 31 11 40c-8 10 -21 17 -37 17s-29 -5 -42 -18c-18 -18 -28 -51 -28 -129v-102h129v-30h-129v-375c0 -34 25 -39 96 -40v-12h-243v12
c48 1 63 6 63 40v375h-182v-375c0 -34 15 -39 71 -40v-12h-228v12c58 1 73 6 73 40v375h-85v10l85 23v41c0 78 21 132 56 167c39 39 92 54 139 54zM370 498c0 29 2 55 7 77c-19 5 -35 20 -35 49c0 20 9 34 17 45c-10 18 -29 36 -63 36c-33 0 -55 -10 -74 -29
c-20 -20 -34 -51 -34 -114v-105h182v41z" />
    <glyph glyph-name="f_h" unicode="fh" horiz-adv-x="830" 
d="M375 575c-20 5 -37 18 -37 49c0 18 11 36 21 45c-10 18 -29 36 -63 36c-33 0 -55 -10 -74 -29c-20 -20 -34 -51 -34 -114v-105h187v118zM532 0h-220v12c48 1 63 6 63 40v375h-187v-375c0 -34 15 -39 71 -40v-12h-228v12c58 1 73 6 73 40v375h-85v10l85 23v41
c0 78 21 132 56 167c39 39 92 54 139 54c31 0 56 -4 76 -12l84 7v-369c46 76 103 116 171 116c74 0 121 -45 121 -135v-277c0 -34 14 -39 73 -40v-12h-221v12c51 1 64 6 64 40v247c0 80 -22 122 -88 122c-49 0 -92 -39 -120 -99v-270c0 -34 14 -39 73 -40v-12z" />
    <glyph glyph-name="fi" unicode="fi" horiz-adv-x="552" 
d="M31 0v12c58 1 73 6 73 40v375h-85v10l85 23v38c0 86 21 137 56 172c39 39 91 53 143 53c118 0 165 -67 165 -111c0 -32 -20 -55 -49 -55c-26 0 -54 14 -54 54c0 17 11 36 24 45c-11 26 -46 50 -90 50c-33 0 -58 -9 -77 -28c-20 -20 -34 -51 -34 -129v-92h156l115 4v-409
c0 -34 13 -39 76 -40v-12h-223v12c48 1 63 6 63 40v375h-187v-375c0 -34 15 -39 71 -40v-12h-228z" />
    <glyph glyph-name="f_j" unicode="fj" horiz-adv-x="540" 
d="M284 0h-253v12c58 1 73 6 73 40v375h-85v10l85 23v38c0 86 21 137 56 172c39 39 91 53 143 53c118 0 165 -67 165 -111c0 -32 -20 -55 -49 -55c-26 0 -54 14 -54 54c0 17 11 36 24 45c-11 26 -46 50 -90 50c-33 0 -58 -9 -77 -28c-20 -20 -34 -51 -34 -129v-92h156l115 4
v-457c0 -83 -7 -131 -44 -168c-29 -29 -66 -37 -101 -37c-64 0 -108 26 -108 69c0 31 24 54 53 54c31 0 50 -22 50 -53c0 -16 -12 -34 -20 -41c7 -8 20 -12 37 -12c35 0 49 31 49 96v515h-187v-375c0 -34 25 -39 96 -40v-12z" />
    <glyph glyph-name="f_k" unicode="fk" horiz-adv-x="799" 
d="M375 575c-20 5 -37 18 -37 49c0 18 11 36 21 45c-10 18 -29 36 -63 36c-33 0 -55 -10 -74 -29c-20 -20 -34 -51 -34 -114v-105h187v118zM532 0h-220v12c48 1 63 6 63 40v375h-187v-375c0 -34 15 -39 71 -40v-12h-228v12c58 1 73 6 73 40v375h-85v10l85 23v41
c0 78 21 132 56 167c39 39 92 54 139 54c31 0 56 -4 76 -12l84 7v-506l155 156c40 41 38 71 -35 80v12h203v-12c-53 -8 -81 -26 -145 -88l-71 -69l145 -199c47 -64 58 -74 104 -79v-12h-220v12c57 6 58 28 33 62l-117 163l-52 -51v-134c0 -34 14 -39 73 -40v-12z" />
    <glyph glyph-name="fl" unicode="fl" horiz-adv-x="556" 
d="M375 427h-187v-375c0 -34 15 -39 71 -40v-12h-228v12c58 1 73 6 73 40v375h-85v10l85 23v41c0 78 21 132 56 167c39 39 92 54 139 54c31 0 56 -4 76 -12l84 7v-665c0 -34 14 -39 73 -40v-12h-220v12c48 1 63 6 63 40v375zM375 575c-20 5 -37 18 -37 49c0 18 11 36 21 45
c-10 18 -29 36 -63 36c-33 0 -55 -10 -74 -29c-20 -20 -34 -51 -34 -114v-105h187v118z" />
    <glyph glyph-name="f_f_b" unicode="ffb" horiz-adv-x="1098" 
d="M550 0h-243v12c48 1 63 6 63 40v375h-182v-375c0 -34 15 -39 71 -40v-12h-228v12c58 1 73 6 73 40v375h-85v10l85 23v41c0 78 21 132 56 167c39 39 92 54 139 54c75 0 112 -25 129 -52c39 37 91 52 137 52c31 0 56 -4 76 -12l84 7v-322c40 45 90 72 152 72
c115 0 185 -95 185 -224c0 -134 -81 -251 -210 -251c-51 0 -102 11 -158 49l-44 -53h-12l3 88v351h-187v-375c0 -34 25 -39 96 -40v-12zM842 10c87 0 127 92 127 228c0 112 -50 193 -133 193c-45 0 -79 -19 -111 -57v-277c21 -58 70 -87 117 -87zM641 457v118
c-20 5 -37 18 -37 49c0 18 11 36 21 45c-10 18 -29 36 -63 36c-33 0 -55 -10 -74 -29c-20 -20 -34 -51 -34 -114v-105h187zM370 501c0 27 2 52 7 74c-18 5 -35 20 -35 49c0 20 9 34 17 45c-10 18 -29 36 -63 36c-33 0 -55 -10 -74 -29c-20 -20 -34 -51 -34 -114v-105h182v44
z" />
    <glyph glyph-name="f_f_h" unicode="ffh" horiz-adv-x="1096" 
d="M454 427v-375c0 -34 15 -39 71 -40v-12h-218v12c48 1 63 6 63 40v375h-182v-375c0 -34 15 -39 71 -40v-12h-228v12c58 1 73 6 73 40v375h-85v10l85 23v41c0 78 21 132 56 167c39 39 92 54 139 54c75 0 112 -25 129 -52c39 37 91 52 137 52c31 0 56 -4 76 -12l84 7v-369
c46 76 103 116 171 116c74 0 121 -45 121 -135v-277c0 -34 14 -39 73 -40v-12h-221v12c51 1 64 6 64 40v247c0 80 -22 122 -88 122c-49 0 -92 -39 -120 -99v-270c0 -34 14 -39 73 -40v-12h-220v12c48 1 63 6 63 40v375h-187zM641 457v118c-20 5 -37 18 -37 49
c0 18 11 36 21 45c-10 18 -29 36 -63 36c-33 0 -55 -10 -74 -29c-20 -20 -34 -51 -34 -114v-105h187zM370 501c0 27 2 52 7 74c-18 5 -35 20 -35 49c0 20 9 34 17 45c-10 18 -29 36 -63 36c-33 0 -55 -10 -74 -29c-20 -20 -34 -51 -34 -114v-105h182v44z" />
    <glyph glyph-name="f_f_i" unicode="ffi" horiz-adv-x="818" 
d="M299 722c74 0 111 -24 128 -51c39 38 90 52 142 52c118 0 165 -67 165 -111c0 -32 -20 -55 -52 -55c-23 0 -51 14 -51 52c0 19 11 38 24 47c-11 26 -46 50 -90 50c-33 0 -58 -9 -77 -28c-20 -20 -34 -51 -34 -129v-92h156l115 4v-409c0 -34 13 -39 76 -40v-12h-223v12
c48 1 63 6 63 40v375h-187v-375c0 -34 15 -39 71 -40v-12h-218v12c48 1 63 6 63 40v375h-182v-375c0 -34 15 -39 71 -40v-12h-228v12c58 1 73 6 73 40v375h-85v10l85 23v41c0 78 21 132 56 167c39 39 92 54 139 54zM370 457v41c0 29 2 55 7 77c-26 4 -39 21 -39 49
c0 18 11 36 21 45c-10 18 -29 36 -63 36c-33 0 -55 -10 -74 -29c-20 -20 -34 -51 -34 -114v-105h182z" />
    <glyph glyph-name="f_f_j" unicode="ffj" horiz-adv-x="806" 
d="M550 0h-243v12c48 1 63 6 63 40v375h-182v-375c0 -34 15 -39 71 -40v-12h-228v12c58 1 73 6 73 40v375h-85v10l85 23v41c0 78 21 132 56 167c39 39 92 54 139 54c74 0 111 -24 128 -51c39 38 90 52 142 52c118 0 165 -67 165 -111c0 -32 -20 -55 -52 -55
c-23 0 -51 14 -51 52c0 19 11 38 24 47c-11 26 -46 50 -90 50c-33 0 -58 -9 -77 -28c-20 -20 -34 -51 -34 -129v-92h156l115 4v-457c0 -83 -7 -131 -44 -168c-29 -29 -66 -37 -101 -37c-64 0 -108 26 -108 69c0 31 24 54 53 54c31 0 50 -22 50 -53c0 -16 -12 -34 -20 -41
c7 -8 20 -12 37 -12c35 0 49 31 49 96v515h-187v-375c0 -34 25 -39 96 -40v-12zM370 498c0 29 2 55 7 77c-26 4 -39 21 -39 49c0 18 11 36 21 45c-10 18 -29 36 -63 36c-33 0 -55 -10 -74 -29c-20 -20 -34 -51 -34 -114v-105h182v41z" />
    <glyph glyph-name="f_f_k" unicode="ffk" horiz-adv-x="1065" 
d="M641 427h-187v-375c0 -34 15 -39 71 -40v-12h-218v12c48 1 63 6 63 40v375h-182v-375c0 -34 15 -39 71 -40v-12h-228v12c58 1 73 6 73 40v375h-85v10l85 23v41c0 78 21 132 56 167c39 39 92 54 139 54c75 0 112 -25 129 -52c39 37 91 52 137 52c31 0 56 -4 76 -12l84 7
v-506l155 156c40 41 38 71 -35 80v12h203v-12c-53 -8 -81 -26 -145 -88l-71 -69l145 -199c47 -64 58 -74 104 -79v-12h-220v12c57 6 58 28 33 62l-117 163l-52 -51v-134c0 -34 14 -39 73 -40v-12h-220v12c48 1 63 6 63 40v375zM641 457v118c-20 5 -37 18 -37 49
c0 18 11 36 21 45c-10 18 -29 36 -63 36c-33 0 -55 -10 -74 -29c-20 -20 -34 -51 -34 -114v-105h187zM370 501c0 27 2 52 7 74c-18 5 -35 20 -35 49c0 20 9 34 17 45c-10 18 -29 36 -63 36c-33 0 -55 -10 -74 -29c-20 -20 -34 -51 -34 -114v-105h182v44z" />
    <glyph glyph-name="f_f_l" unicode="ffl" horiz-adv-x="822" 
d="M525 0h-218v12c48 1 63 6 63 40v375h-182v-375c0 -34 15 -39 71 -40v-12h-228v12c58 1 73 6 73 40v375h-85v10l85 23v41c0 78 21 132 56 167c39 39 92 54 139 54c75 0 112 -25 129 -52c39 37 91 52 137 52c31 0 56 -4 76 -12l84 7v-665c0 -34 14 -39 73 -40v-12h-220v12
c48 1 63 6 63 40v375h-187v-375c0 -34 15 -39 71 -40v-12zM641 457v118c-20 5 -37 18 -37 49c0 18 11 36 21 45c-10 18 -29 36 -63 36c-33 0 -55 -10 -74 -29c-20 -20 -34 -51 -34 -114v-105h187zM370 501c0 27 2 52 7 74c-18 5 -35 20 -35 49c0 20 9 34 17 45
c-10 18 -29 36 -63 36c-33 0 -55 -10 -74 -29c-20 -20 -34 -51 -34 -114v-105h182v44z" />
    <glyph glyph-name=".notdef" horiz-adv-x="500" 
d="M0 -200v1000h500v-1000h-500zM71 750l179 -390l179 390h-358zM50 -76l172 376l-172 376v-752zM450 676l-172 -376l172 -376v752zM250 240l-179 -390h358z" />
    <glyph glyph-name="A" unicode="A" horiz-adv-x="670" 
d="M478 98l-60 170h-241l-32 -83c-48 -125 -32 -157 59 -172v-13h-232v13c65 18 99 53 144 165l216 541h22l222 -602c28 -75 43 -94 121 -104v-13h-305v13c95 4 107 26 86 85zM185 288h226l-105 301h-4z" />
    <glyph glyph-name="B" unicode="B" horiz-adv-x="669" 
d="M35 0v13c89 3 113 28 113 72v528c0 43 -24 69 -113 72v12h297c202 0 269 -79 269 -168c0 -72 -54 -147 -194 -158v-3c148 -8 224 -68 224 -168c0 -98 -73 -200 -290 -200h-306zM243 379h101c113 0 154 52 154 147c0 86 -31 151 -158 151h-97v-298zM243 20h113
c127 0 170 50 170 177c0 93 -53 162 -178 162h-105v-339z" />
    <glyph glyph-name="C" unicode="C" horiz-adv-x="706" 
d="M386 -17c-199 0 -340 142 -340 357c0 213 159 374 359 374c73 0 131 -15 178 -39l42 45h10v-229h-12c-49 135 -125 204 -229 204c-122 0 -237 -99 -237 -351c0 -240 138 -325 256 -325c120 0 205 84 246 173l16 -9c-43 -98 -134 -200 -289 -200z" />
    <glyph glyph-name="D" unicode="D" 
d="M35 0v13c89 3 113 28 113 72v528c0 43 -24 69 -113 72v12h301c245 0 376 -147 376 -337c0 -182 -115 -360 -366 -360h-311zM243 20h71c219 0 287 76 287 334c0 262 -92 323 -280 323h-78v-657z" />
    <glyph glyph-name="E" unicode="E" horiz-adv-x="682" 
d="M35 0v13c89 3 113 28 113 72v528c0 43 -24 69 -113 72v12h566l3 -216l-13 -1c-49 131 -100 197 -216 197h-132v-305h63c84 0 126 28 153 138h13v-296h-13c-27 110 -69 138 -153 138h-63v-332h132c136 0 194 69 247 209l13 -1l-5 -228h-595z" />
    <glyph glyph-name="F" unicode="F" horiz-adv-x="648" 
d="M35 0v13c89 3 113 28 113 72v528c0 43 -24 68 -113 71v13h562l9 -221l-12 -1c-52 142 -109 202 -231 202h-120v-313h63c84 0 124 25 151 135h13v-293h-13c-27 110 -67 137 -151 137h-63v-258c0 -44 24 -69 113 -72v-13h-321z" />
    <glyph glyph-name="G" unicode="G" horiz-adv-x="746" 
d="M411 -17c-180 0 -365 123 -365 364c0 218 180 367 359 367c77 0 131 -15 178 -39l42 45h10v-221h-12c-49 129 -132 196 -229 196c-116 0 -237 -87 -237 -346c0 -258 130 -347 246 -347c65 0 116 17 149 47v173c0 43 -24 75 -113 78v13h288v-13c-67 -4 -80 -22 -80 -78
v-176c-70 -45 -167 -63 -236 -63z" />
    <glyph glyph-name="H" unicode="H" horiz-adv-x="819" 
d="M35 0v13c89 3 113 27 113 71v530c0 43 -24 68 -113 71v12h313v-12c-95 -3 -105 -26 -105 -71v-242h333v242c0 45 -10 68 -104 71v12h312v-12c-89 -3 -113 -28 -113 -71v-530c0 -44 24 -68 113 -71v-13h-312v13c94 3 104 25 104 71v267h-333v-267c0 -46 10 -68 105 -71
v-13h-313z" />
    <glyph glyph-name="I" unicode="I" horiz-adv-x="408" 
d="M41 0v13c95 3 116 28 116 72v528c0 43 -21 69 -116 72v12h326v-12c-95 -3 -116 -29 -116 -72v-528c0 -44 21 -69 116 -72v-13h-326z" />
    <glyph glyph-name="J" unicode="J" horiz-adv-x="550" 
d="M214 -17c-114 0 -177 54 -177 118c0 41 28 73 65 73c35 0 59 -26 59 -60c0 -33 -21 -67 -65 -73c27 -21 65 -34 103 -34c84 0 118 47 118 154v452c0 43 -20 69 -120 72v12h328v-12c-92 -3 -113 -29 -113 -72v-421c0 -126 -64 -209 -198 -209z" />
    <glyph glyph-name="K" unicode="K" horiz-adv-x="752" 
d="M243 318l246 243c58 58 66 112 -41 124v12h278v-12c-84 -14 -121 -43 -225 -144l-124 -121l207 -281c75 -101 90 -114 166 -126v-13h-297v13c76 6 89 30 45 92l-183 254l-72 -70v-205c0 -46 10 -68 97 -71v-13h-305v13c89 3 113 27 113 71v530c0 43 -24 68 -113 71v12
h313v-11c-95 -4 -105 -27 -105 -72v-296z" />
    <glyph glyph-name="L" unicode="L" horiz-adv-x="613" 
d="M35 0v13c89 3 113 28 113 72v528c0 43 -24 69 -113 72v12h313v-12c-95 -3 -105 -27 -105 -72v-593h92c132 0 195 43 253 199l13 -1l-10 -218h-556z" />
    <glyph glyph-name="M" unicode="M" horiz-adv-x="959" 
d="M35 0v13c94 16 120 55 120 152v406c0 61 -34 112 -120 114v12h228l226 -559h4l218 559h213v-12c-89 -3 -113 -29 -113 -72v-528c0 -44 24 -69 113 -72v-13h-312v13c94 3 104 26 104 72v547h-5l-249 -634h-13l-264 636h-5v-469c0 -97 21 -137 123 -152v-13h-268z" />
    <glyph glyph-name="N" unicode="N" horiz-adv-x="785" 
d="M639 -17l-458 612h-1v-430c0 -97 21 -137 123 -152v-13h-268v13c94 16 121 55 121 152v406c0 61 -35 112 -121 114v12h195l406 -548h1v384c0 97 -31 137 -131 152v12h269v-12c-94 -17 -114 -55 -114 -152v-550h-22z" />
    <glyph glyph-name="O" unicode="O" 
d="M379 -17c-174 0 -333 144 -333 364c0 218 164 367 333 367c173 0 333 -144 333 -364c0 -218 -165 -367 -333 -367zM383 2c128 0 218 77 218 346c0 271 -98 347 -227 347c-128 0 -217 -77 -217 -346c0 -271 98 -347 226 -347z" />
    <glyph glyph-name="P" unicode="P" horiz-adv-x="634" 
d="M35 0v13c89 3 113 28 113 72v528c0 43 -24 69 -113 72v12h286c212 0 279 -85 279 -189c0 -97 -70 -197 -286 -197h-71v-226c0 -46 25 -69 120 -72v-13h-328zM243 331h78c144 0 171 69 171 179c0 95 -30 167 -168 167h-81v-346z" />
    <glyph glyph-name="Q" unicode="Q" 
d="M383 2c128 0 218 77 218 346c0 271 -98 347 -227 347c-128 0 -217 -77 -217 -346c0 -271 98 -347 226 -347zM416 -15c98 -34 139 -162 214 -162c19 0 26 10 26 25c0 27 -47 31 -47 70c0 26 19 50 50 50c32 0 57 -29 57 -64c0 -63 -53 -109 -135 -109
c-138 0 -191 157 -270 157c-39 0 -84 -26 -139 -76l-12 12c59 59 111 89 159 101c-149 28 -273 163 -273 358c0 218 164 367 333 367c173 0 333 -144 333 -364c0 -202 -142 -345 -296 -365z" />
    <glyph glyph-name="R" unicode="R" horiz-adv-x="699" 
d="M243 359h95c142 0 170 67 170 166c0 92 -42 152 -185 152h-80v-318zM243 339v-254c0 -46 16 -69 110 -72v-13h-318v13c89 3 113 28 113 72v528c0 43 -24 69 -113 72v12h295c204 0 286 -73 286 -169c0 -87 -60 -156 -212 -178v-3c148 -7 180 -73 196 -180l6 -41
c16 -94 33 -107 122 -107v-11c-31 -9 -68 -14 -102 -14c-93 0 -113 37 -124 129l-11 95c-12 100 -39 121 -158 121h-90z" />
    <glyph glyph-name="S" unicode="S" horiz-adv-x="573" 
d="M57 -18v246h14c54 -127 117 -222 230 -222c105 0 155 71 155 133c0 95 -61 127 -188 172c-95 34 -197 61 -197 190c0 131 102 210 232 210c59 0 114 -15 147 -30l32 36h12v-219h-14c-47 127 -110 194 -194 194c-71 0 -134 -46 -134 -128c0 -91 66 -121 179 -159
c96 -32 195 -64 195 -194c0 -104 -61 -225 -235 -225c-56 0 -119 20 -160 43l-62 -47h-12z" />
    <glyph glyph-name="T" unicode="T" horiz-adv-x="681" 
d="M174 0v13c89 3 121 28 121 72v592h-49c-73 0 -140 -62 -198 -188l-13 1l6 207h602l6 -207l-13 -1c-56 118 -122 188 -198 188h-49v-592c0 -44 32 -69 121 -72v-13h-336z" />
    <glyph glyph-name="U" unicode="U" horiz-adv-x="777" 
d="M397 -17c-165 0 -262 75 -262 207v423c0 43 -24 69 -113 72v12h313v-12c-94 -3 -105 -27 -105 -72v-396c0 -156 100 -201 213 -201c51 0 97 15 129 47c35 35 56 85 56 159v311c0 97 -31 137 -132 152v12h269v-12c-94 -17 -113 -55 -113 -152v-322
c0 -133 -80 -228 -255 -228z" />
    <glyph glyph-name="V" unicode="V" horiz-adv-x="699" 
d="M342 -21l-228 601c-28 74 -43 93 -120 105v12h304v-12c-94 -5 -107 -29 -86 -86l178 -487h4l165 429c35 91 22 127 -68 144v12h231v-12c-68 -14 -98 -50 -144 -165l-214 -541h-22z" />
    <glyph glyph-name="W" unicode="W" horiz-adv-x="1019" 
d="M506 525l-18 56c-27 85 -46 96 -116 104v12h287v-12c-84 -5 -97 -21 -76 -85l149 -463h4l126 399c33 103 13 133 -76 149v12h241v-12c-74 -12 -109 -57 -143 -163l-174 -543h-22l-170 513l-189 -513h-22l-189 602c-24 75 -43 92 -120 104v12h294v-12
c-84 -5 -91 -32 -75 -85l137 -466h4z" />
    <glyph glyph-name="X" unicode="X" horiz-adv-x="702" 
d="M376 401l109 157c51 73 30 119 -51 127v12h255v-12c-77 -11 -103 -33 -183 -143l-117 -161l186 -283c36 -55 57 -70 138 -85v-13h-310v13c100 6 95 36 63 87l-136 219l-126 -181c-50 -72 -29 -117 52 -125v-13h-255v13c72 10 100 27 182 141l133 185l-170 261
c-35 54 -54 71 -141 85v12h313v-12c-90 -4 -95 -40 -63 -92z" />
    <glyph glyph-name="Y" unicode="Y" horiz-adv-x="667" 
d="M371 336l131 227c48 82 48 107 -50 122v12h231v-12c-67 -12 -99 -32 -156 -129l-143 -242v-229c0 -44 21 -69 116 -72v-13h-326v13c95 3 116 28 116 72v209l-178 308c-30 52 -54 71 -114 83v12h300v-12c-99 -6 -104 -34 -74 -87z" />
    <glyph glyph-name="Z" unicode="Z" horiz-adv-x="638" 
d="M38 0l-1 10l438 667h-195c-70 0 -128 -50 -204 -184l-13 2l20 202h513l1 -10l-438 -667h226c80 0 119 51 203 192l13 -2l-16 -210h-547z" />
    <glyph glyph-name="a" unicode="a" horiz-adv-x="475" 
d="M167 -6c-84 0 -122 51 -122 105c0 40 16 76 58 99c76 42 195 55 210 67v63c0 78 -23 118 -86 118c-37 0 -71 -12 -89 -33c15 -16 26 -34 26 -52c0 -30 -19 -53 -53 -53c-32 0 -50 24 -50 53c0 58 77 103 173 103c104 0 163 -42 163 -138v-241c0 -49 17 -74 77 -50l4 -10
c-34 -19 -57 -29 -89 -29c-51 0 -69 22 -72 77h-4c-40 -45 -87 -79 -146 -79zM215 33c40 0 76 33 98 64v149c-147 -33 -177 -63 -177 -129c0 -48 22 -84 79 -84z" />
    <glyph glyph-name="b" unicode="b" horiz-adv-x="526" 
d="M66 -12l3 88v574c0 36 -10 49 -84 51v12l168 4v-322c40 45 90 72 152 72c115 0 185 -95 185 -224c0 -134 -81 -251 -210 -251c-51 0 -102 11 -158 49l-44 -53h-12zM270 10c87 0 127 92 127 228c0 112 -50 193 -133 193c-45 0 -79 -19 -111 -57v-277
c21 -58 70 -87 117 -87z" />
    <glyph glyph-name="c" unicode="c" horiz-adv-x="450" 
d="M242 -8c-124 0 -207 100 -207 228c0 144 104 247 234 247c105 0 159 -61 159 -105c0 -32 -18 -56 -49 -56c-34 0 -55 22 -55 52c0 27 15 47 29 55c-18 20 -43 36 -82 36c-80 0 -143 -75 -143 -207c0 -119 53 -211 161 -211c61 0 93 26 137 78l11 -8
c-40 -59 -94 -109 -195 -109z" />
    <glyph glyph-name="d" unicode="d" horiz-adv-x="531" 
d="M231 -8c-123 0 -196 104 -196 233c0 139 98 242 227 242c51 0 79 -11 106 -27v210c0 36 -10 49 -84 51v12l168 4v-669c0 -24 15 -36 73 -37v-11l-155 -4v53c-35 -33 -80 -57 -139 -57zM271 28c45 0 74 19 97 45v323c-26 33 -53 53 -104 53c-84 0 -136 -88 -136 -224
c0 -113 51 -197 143 -197z" />
    <glyph glyph-name="e" unicode="e" horiz-adv-x="473" 
d="M252 -8c-129 0 -217 101 -217 233c0 137 102 242 217 242c131 0 196 -94 188 -204h-311c-1 -9 -1 -19 -1 -28v-1c0 -112 53 -203 161 -203c65 0 101 33 143 87l11 -8c-37 -62 -90 -118 -191 -118zM245 449c-64 0 -107 -56 -116 -170h217c9 108 -18 170 -101 170z" />
    <glyph glyph-name="f" unicode="f" horiz-adv-x="309" 
d="M31 0v12c58 1 73 6 73 40v375h-85v10l85 23v38c0 86 22 141 58 177c32 32 71 48 110 48c77 0 115 -37 115 -75c0 -32 -20 -53 -49 -53c-26 0 -54 14 -54 59c0 8 6 26 11 35c-8 10 -21 17 -37 17s-29 -5 -42 -18c-18 -18 -28 -51 -28 -129v-102h129v-30h-129v-375
c0 -34 25 -39 96 -40v-12h-253z" />
    <glyph glyph-name="g" unicode="g" horiz-adv-x="462" 
d="M246 -185c85 0 157 47 157 113c0 41 -35 70 -141 70h-83c-58 -14 -86 -42 -86 -82c0 -53 42 -101 153 -101zM234 175c59 0 86 44 86 136c0 82 -33 136 -95 136c-60 0 -86 -44 -86 -136s34 -136 95 -136zM230 464c29 0 62 -7 90 -21c21 40 47 76 93 76c35 0 55 -21 55 -48
c0 -22 -17 -39 -38 -39s-41 18 -41 48c-24 -2 -43 -24 -54 -45c43 -25 75 -65 75 -122c0 -97 -93 -155 -180 -155c-22 0 -45 3 -67 10c-39 -15 -60 -30 -60 -51c0 -20 14 -38 102 -38h61c126 0 191 -34 191 -123c0 -79 -77 -157 -237 -157c-124 0 -197 45 -197 103
c0 46 49 90 124 100v3c-64 16 -87 40 -87 81c0 32 27 65 81 90c-52 23 -92 66 -92 133c0 96 93 155 181 155z" />
    <glyph glyph-name="h" unicode="h" horiz-adv-x="537" 
d="M9 0v12c58 1 73 6 73 40v598c0 36 -10 49 -84 51v12l168 4v-369c46 76 103 116 171 116c74 0 121 -45 121 -135v-277c0 -34 14 -39 73 -40v-12h-221v12c51 1 64 6 64 40v247c0 80 -22 122 -88 122c-49 0 -92 -39 -120 -99v-270c0 -34 13 -39 63 -40v-12h-220z" />
    <glyph glyph-name="i" unicode="i" horiz-adv-x="278" 
d="M137 556c-33 0 -55 22 -55 56s22 59 55 59s55 -23 55 -57s-22 -58 -55 -58zM28 0v12c58 1 73 6 73 40v342c0 30 -15 50 -73 51v12l157 4v-409c0 -34 13 -39 76 -40v-12h-233z" />
    <glyph glyph-name="j" unicode="j" horiz-adv-x="266" 
d="M137 556c-33 0 -55 22 -55 56s22 59 55 59s55 -23 55 -57s-22 -58 -55 -58zM40 -201c-64 0 -108 26 -108 69c0 31 24 54 53 54c31 0 50 -22 50 -53c0 -16 -12 -34 -20 -41c7 -8 20 -12 37 -12c35 0 49 31 49 96v482c0 30 -16 51 -81 51v12l165 4v-457
c0 -83 -7 -131 -44 -168c-29 -29 -66 -37 -101 -37z" />
    <glyph glyph-name="k" unicode="k" horiz-adv-x="506" 
d="M166 186v-134c0 -34 13 -39 53 -40v-12h-210v12c58 1 73 6 73 40v598c0 36 -10 49 -84 51v12l168 4v-506l155 156c40 41 38 71 -35 80v12h203v-12c-53 -8 -81 -26 -145 -88l-71 -69l145 -199c47 -64 58 -74 104 -79v-12h-220v12c57 6 58 28 33 62l-117 163z" />
    <glyph glyph-name="l" unicode="l" horiz-adv-x="282" 
d="M28 0v12c58 1 73 6 73 40v598c0 36 -10 49 -84 51v12l168 4v-665c0 -34 14 -39 73 -40v-12h-230z" />
    <glyph glyph-name="m" unicode="m" horiz-adv-x="823" 
d="M313 0v12c51 1 64 6 64 40v247c0 80 -23 122 -84 122c-49 0 -87 -39 -115 -99v-270c0 -34 7 -39 57 -40v-12h-214v12c58 1 73 6 73 40v342c0 30 -15 50 -73 51v12l155 4v-113c45 77 100 116 168 116c63 0 106 -35 115 -104c44 67 105 104 168 104c72 0 117 -45 117 -135
v-277c0 -34 14 -39 73 -40v-12h-215v12c51 1 58 6 58 40v247c0 80 -23 122 -84 122c-40 0 -84 -29 -115 -85v-284c0 -34 14 -39 73 -40v-12h-221z" />
    <glyph glyph-name="n" unicode="n" horiz-adv-x="549" 
d="M21 0v12c58 1 73 6 73 40v342c0 30 -15 50 -73 51v12l155 4v-113c46 76 105 116 173 116c74 0 121 -45 121 -135v-277c0 -34 14 -39 73 -40v-12h-221v12c51 1 64 6 64 40v250c0 80 -22 119 -88 119c-49 0 -92 -39 -120 -99v-270c0 -34 13 -39 63 -40v-12h-220z" />
    <glyph glyph-name="o" unicode="o" horiz-adv-x="523" 
d="M262 -8c-123 0 -227 96 -227 236c0 139 110 239 227 239c121 0 226 -96 226 -235c0 -140 -110 -240 -226 -240zM266 10c78 0 126 55 126 220s-55 219 -135 219c-79 0 -126 -54 -126 -219s55 -220 135 -220z" />
    <glyph glyph-name="p" unicode="p" horiz-adv-x="531" 
d="M5 -192v12c58 1 73 6 73 40v534c0 30 -15 50 -73 51v12l155 4v-69c41 44 92 75 154 75c115 0 181 -99 181 -230c0 -140 -83 -245 -212 -245c-51 0 -84 12 -121 32v-164c0 -34 20 -40 95 -40v-12h-252zM273 10c87 0 129 80 129 222c0 109 -46 199 -129 199
c-45 0 -79 -22 -111 -60v-277c20 -60 60 -84 111 -84z" />
    <glyph glyph-name="q" unicode="q" horiz-adv-x="528" 
d="M280 -192v11c69 2 92 11 92 36v201c-41 -37 -86 -64 -145 -64c-120 0 -192 97 -192 224c0 131 86 251 220 251c51 0 92 -14 148 -52l44 53h12l-3 -88v-525c0 -25 15 -34 73 -36v-11h-249zM266 32c42 0 72 16 106 47v280c-21 58 -60 90 -107 90c-92 0 -137 -95 -137 -228
c0 -105 50 -189 138 -189z" />
    <glyph glyph-name="r" unicode="r" horiz-adv-x="388" 
d="M21 0v12c58 1 73 6 73 40v342c0 30 -15 50 -73 51v12l155 4v-103c37 67 83 108 133 108c51 0 73 -32 73 -66c0 -32 -22 -54 -53 -54c-30 0 -54 20 -54 54c0 8 2 19 5 26c-45 -7 -69 -37 -102 -92v-282c0 -34 20 -39 84 -40v-12h-241z" />
    <glyph glyph-name="s" unicode="s" horiz-adv-x="402" 
d="M40 -8v162h13c64 -115 93 -144 165 -144c61 0 92 44 92 81c0 48 -30 76 -125 102c-100 27 -143 59 -143 132c0 81 62 142 161 142c38 0 78 -14 102 -28l23 28h11v-145h-13c-58 97 -83 127 -142 127c-48 0 -86 -32 -86 -79c0 -43 39 -67 121 -90c99 -28 142 -63 142 -138
c0 -80 -49 -150 -155 -150c-37 0 -89 13 -121 34l-34 -34h-11z" />
    <glyph glyph-name="t" unicode="t" horiz-adv-x="333" 
d="M205 -11c-77 0 -107 44 -107 128v310h-95v10l95 23v127l84 36v-166h142v-30h-142v-319c0 -62 18 -83 57 -83c29 0 61 21 90 68l11 -8c-34 -62 -80 -96 -135 -96z" />
    <glyph glyph-name="u" unicode="u" horiz-adv-x="539" 
d="M205 -7c-74 0 -121 45 -121 135v268c0 30 -16 48 -74 49v12l158 4v-303c0 -80 22 -122 88 -122c49 0 90 38 118 98v262c0 30 -16 48 -74 49v12l158 4v-413c0 -24 15 -36 73 -37v-11h-155v108c-46 -76 -103 -115 -171 -115z" />
    <glyph glyph-name="v" unicode="v" horiz-adv-x="472" 
d="M232 -8l-154 375c-23 55 -42 76 -91 80v12h229v-12c-45 -3 -60 -16 -60 -37c0 -9 2 -18 7 -31l107 -277h4l90 223c12 31 20 56 20 72c0 31 -22 44 -69 50v12h173v-12c-31 -4 -62 -36 -86 -92l-154 -363h-16z" />
    <glyph glyph-name="w" unicode="w" horiz-adv-x="714" 
d="M363 329l-14 38c-20 55 -38 76 -83 80v12h221v-12c-46 -3 -64 -18 -64 -44c0 -8 2 -16 5 -26l96 -271h4l74 219c11 32 18 57 18 72c0 32 -22 45 -66 50v12h176v-12c-36 -4 -71 -33 -92 -92l-132 -363h-18l-115 309l-131 -309h-16l-147 375c-21 53 -41 76 -90 80v12h227
v-12c-46 -3 -64 -19 -64 -43c0 -7 2 -16 6 -27l105 -273h4z" />
    <glyph glyph-name="x" unicode="x" horiz-adv-x="501" 
d="M268 269l55 72c45 59 39 96 -17 106v12h194v-12c-59 -10 -88 -29 -145 -100l-75 -94l113 -154c51 -70 66 -81 107 -87v-12h-220v12c66 10 65 26 32 73l-80 115l-63 -82c-48 -63 -39 -96 27 -106v-12h-194v12c48 9 78 30 135 100l84 104l-105 144c-52 70 -68 80 -115 87
v12h220v-12c-66 -10 -55 -28 -24 -73z" />
    <glyph glyph-name="y" unicode="y" horiz-adv-x="481" 
d="M241 -5l-164 372c-24 55 -44 75 -93 80v12h229v-12c-64 -4 -67 -29 -51 -68l119 -289l92 235c34 88 22 113 -51 122v12h173v-12c-31 -4 -62 -36 -85 -92l-157 -384c-56 -136 -100 -172 -156 -172c-42 0 -69 32 -69 65c0 29 17 56 51 56c28 0 50 -24 50 -54
c0 -18 -7 -35 -20 -46c35 6 73 29 126 161z" />
    <glyph glyph-name="z" unicode="z" horiz-adv-x="457" 
d="M34 0l-2 12l296 427h-109c-55 0 -90 -33 -151 -133l-14 2l16 151h357l2 -12l-295 -427h120c59 0 99 40 157 140l14 -2l-16 -158h-375z" />
    <glyph glyph-name="Aacute" unicode="&#xc1;" horiz-adv-x="670" 
d="M478 98l-60 170h-241l-32 -83c-48 -125 -32 -157 59 -172v-13h-232v13c65 18 99 53 144 165l216 541h22l222 -602c28 -75 43 -94 121 -104v-13h-305v13c95 4 107 26 86 85zM185 288h226l-105 301h-4zM307 770l56 128c19 44 33 68 59 68c22 0 38 -17 38 -39
c0 -18 -17 -40 -43 -65l-99 -92h-11z" />
    <glyph glyph-name="aacute" unicode="&#xe1;" horiz-adv-x="475" 
d="M167 -6c-84 0 -122 51 -122 105c0 40 16 76 58 99c76 42 195 55 210 67v63c0 78 -23 118 -86 118c-37 0 -71 -12 -89 -33c15 -16 26 -34 26 -52c0 -30 -19 -53 -53 -53c-32 0 -50 24 -50 53c0 58 77 103 173 103c104 0 163 -42 163 -138v-241c0 -49 17 -74 77 -50l4 -10
c-34 -19 -57 -29 -89 -29c-51 0 -69 22 -72 77h-4c-40 -45 -87 -79 -146 -79zM215 33c40 0 76 33 98 64v149c-147 -33 -177 -63 -177 -129c0 -48 22 -84 79 -84zM208 530l56 128c19 44 33 68 59 68c22 0 38 -17 38 -39c0 -18 -17 -40 -43 -65l-99 -92h-11z" />
    <glyph glyph-name="Abreve" unicode="&#x102;" horiz-adv-x="670" 
d="M478 98l-60 170h-241l-32 -83c-48 -125 -32 -157 59 -172v-13h-232v13c65 18 99 53 144 165l216 541h22l222 -602c28 -75 43 -94 121 -104v-13h-305v13c95 4 107 26 86 85zM185 288h226l-105 301h-4zM340 775c-75 0 -126 68 -134 153h15c18 -60 56 -89 119 -89
s99 29 117 89h15c-7 -85 -57 -153 -132 -153z" />
    <glyph glyph-name="abreve" unicode="&#x103;" horiz-adv-x="475" 
d="M167 -6c-84 0 -122 51 -122 105c0 40 16 76 58 99c76 42 195 55 210 67v63c0 78 -23 118 -86 118c-37 0 -71 -12 -89 -33c15 -16 26 -34 26 -52c0 -30 -19 -53 -53 -53c-32 0 -50 24 -50 53c0 58 77 103 173 103c104 0 163 -42 163 -138v-241c0 -49 17 -74 77 -50l4 -10
c-34 -19 -57 -29 -89 -29c-51 0 -69 22 -72 77h-4c-40 -45 -87 -79 -146 -79zM215 33c40 0 76 33 98 64v149c-147 -33 -177 -63 -177 -129c0 -48 22 -84 79 -84zM243 535c-75 0 -126 68 -134 153h15c18 -60 56 -89 119 -89s99 29 117 89h15c-7 -85 -57 -153 -132 -153z" />
    <glyph glyph-name="Acircumflex" unicode="&#xc2;" horiz-adv-x="670" 
d="M478 98l-60 170h-241l-32 -83c-48 -125 -32 -157 59 -172v-13h-232v13c65 18 99 53 144 165l216 541h22l222 -602c28 -75 43 -94 121 -104v-13h-305v13c95 4 107 26 86 85zM185 288h226l-105 301h-4zM210 770l129 183h13l121 -183h-16l-115 96l-116 -96h-16z" />
    <glyph glyph-name="acircumflex" unicode="&#xe2;" horiz-adv-x="475" 
d="M167 -6c-84 0 -122 51 -122 105c0 40 16 76 58 99c76 42 195 55 210 67v63c0 78 -23 118 -86 118c-37 0 -71 -12 -89 -33c15 -16 26 -34 26 -52c0 -30 -19 -53 -53 -53c-32 0 -50 24 -50 53c0 58 77 103 173 103c104 0 163 -42 163 -138v-241c0 -49 17 -74 77 -50l4 -10
c-34 -19 -57 -29 -89 -29c-51 0 -69 22 -72 77h-4c-40 -45 -87 -79 -146 -79zM215 33c40 0 76 33 98 64v149c-147 -33 -177 -63 -177 -129c0 -48 22 -84 79 -84zM109 530l129 183h13l121 -183h-16l-115 96l-116 -96h-16z" />
    <glyph glyph-name="Adieresis" unicode="&#xc4;" horiz-adv-x="670" 
d="M478 98l-60 170h-241l-32 -83c-48 -125 -32 -157 59 -172v-13h-232v13c65 18 99 53 144 165l216 541h22l222 -602c28 -75 43 -94 121 -104v-13h-305v13c95 4 107 26 86 85zM185 288h226l-105 301h-4zM426 775c-31 0 -53 24 -53 55s22 56 53 56s53 -25 53 -56
s-22 -55 -53 -55zM254 775c-31 0 -53 24 -53 55s22 56 53 56s53 -25 53 -56s-22 -55 -53 -55z" />
    <glyph glyph-name="adieresis" unicode="&#xe4;" horiz-adv-x="475" 
d="M167 -6c-84 0 -122 51 -122 105c0 40 16 76 58 99c76 42 195 55 210 67v63c0 78 -23 118 -86 118c-37 0 -71 -12 -89 -33c15 -16 26 -34 26 -52c0 -30 -19 -53 -53 -53c-32 0 -50 24 -50 53c0 58 77 103 173 103c104 0 163 -42 163 -138v-241c0 -49 17 -74 77 -50l4 -10
c-34 -19 -57 -29 -89 -29c-51 0 -69 22 -72 77h-4c-40 -45 -87 -79 -146 -79zM215 33c40 0 76 33 98 64v149c-147 -33 -177 -63 -177 -129c0 -48 22 -84 79 -84zM328 535c-31 0 -53 24 -53 55s22 56 53 56s53 -25 53 -56s-22 -55 -53 -55zM156 535c-31 0 -53 24 -53 55
s22 56 53 56s53 -25 53 -56s-22 -55 -53 -55z" />
    <glyph glyph-name="AE" unicode="&#xc6;" horiz-adv-x="1020" 
d="M240 282l-78 -123c-24 -37 -41 -70 -41 -95s18 -42 64 -51v-13h-230v13c72 17 130 77 187 164l271 418c10 15 15 27 15 39c0 25 -32 41 -105 51v12h616l3 -216l-13 -1c-49 131 -100 197 -216 197h-132v-305h63c84 0 126 28 153 138h13v-296h-13c-27 110 -69 138 -153 138
h-63v-332h132c136 0 194 69 247 209l13 -1l-5 -228h-595v13c89 3 113 28 113 72v197h-246zM486 302v358h-4l-229 -358h233z" />
    <glyph glyph-name="ae" unicode="&#xe6;" horiz-adv-x="752" 
d="M531 467c131 0 196 -94 188 -204h-311c-1 -9 -1 -19 -1 -28v-1c0 -112 53 -203 161 -203c65 0 101 33 143 87l11 -8c-37 -62 -90 -118 -191 -118c-85 0 -154 42 -181 118h-4c-34 -65 -104 -116 -179 -116c-84 0 -122 51 -122 105c0 40 16 76 58 99c75 41 205 55 220 67
v63c0 78 -33 118 -96 118c-37 0 -71 -12 -89 -33c15 -16 26 -34 26 -52c0 -30 -19 -53 -53 -53c-32 0 -50 24 -50 53c0 58 77 103 173 103c74 0 123 -22 146 -69c39 45 94 72 151 72zM524 449c-64 0 -107 -56 -116 -170h217c9 108 -18 170 -101 170zM215 33
c40 0 88 32 108 73v139c-147 -33 -187 -62 -187 -128c0 -48 22 -84 79 -84z" />
    <glyph glyph-name="AEacute" unicode="&#x1fc;" horiz-adv-x="1020" 
d="M240 282l-78 -123c-24 -37 -41 -70 -41 -95s18 -42 64 -51v-13h-230v13c72 17 130 77 187 164l271 418c10 15 15 27 15 39c0 25 -32 41 -105 51v12h616l3 -216l-13 -1c-49 131 -100 197 -216 197h-132v-305h63c84 0 126 28 153 138h13v-296h-13c-27 110 -69 138 -153 138
h-63v-332h132c136 0 194 69 247 209l13 -1l-5 -228h-595v13c89 3 113 28 113 72v197h-246zM486 302v358h-4l-229 -358h233zM551 770l56 128c19 44 33 68 59 68c22 0 38 -17 38 -39c0 -18 -17 -40 -43 -65l-99 -92h-11z" />
    <glyph glyph-name="aeacute" unicode="&#x1fd;" horiz-adv-x="752" 
d="M531 467c131 0 196 -94 188 -204h-311c-1 -9 -1 -19 -1 -28v-1c0 -112 53 -203 161 -203c65 0 101 33 143 87l11 -8c-37 -62 -90 -118 -191 -118c-85 0 -154 42 -181 118h-4c-34 -65 -104 -116 -179 -116c-84 0 -122 51 -122 105c0 40 16 76 58 99c75 41 205 55 220 67
v63c0 78 -33 118 -96 118c-37 0 -71 -12 -89 -33c15 -16 26 -34 26 -52c0 -30 -19 -53 -53 -53c-32 0 -50 24 -50 53c0 58 77 103 173 103c74 0 123 -22 146 -69c39 45 94 72 151 72zM524 449c-64 0 -107 -56 -116 -170h217c9 108 -18 170 -101 170zM215 33
c40 0 88 32 108 73v139c-147 -33 -187 -62 -187 -128c0 -48 22 -84 79 -84zM367 530l56 128c19 44 33 68 59 68c22 0 38 -17 38 -39c0 -18 -17 -40 -43 -65l-99 -92h-11z" />
    <glyph glyph-name="Agrave" unicode="&#xc0;" horiz-adv-x="670" 
d="M478 98l-60 170h-241l-32 -83c-48 -125 -32 -157 59 -172v-13h-232v13c65 18 99 53 144 165l216 541h22l222 -602c28 -75 43 -94 121 -104v-13h-305v13c95 4 107 26 86 85zM185 288h226l-105 301h-4zM362 770l-99 92c-27 25 -43 47 -43 65c0 22 16 39 38 39
c26 0 40 -24 59 -68l56 -128h-11z" />
    <glyph glyph-name="agrave" unicode="&#xe0;" horiz-adv-x="475" 
d="M167 -6c-84 0 -122 51 -122 105c0 40 16 76 58 99c76 42 195 55 210 67v63c0 78 -23 118 -86 118c-37 0 -71 -12 -89 -33c15 -16 26 -34 26 -52c0 -30 -19 -53 -53 -53c-32 0 -50 24 -50 53c0 58 77 103 173 103c104 0 163 -42 163 -138v-241c0 -49 17 -74 77 -50l4 -10
c-34 -19 -57 -29 -89 -29c-51 0 -69 22 -72 77h-4c-40 -45 -87 -79 -146 -79zM215 33c40 0 76 33 98 64v149c-147 -33 -177 -63 -177 -129c0 -48 22 -84 79 -84zM256 530l-99 92c-27 25 -43 47 -43 65c0 22 16 39 38 39c26 0 40 -24 59 -68l56 -128h-11z" />
    <glyph glyph-name="Amacron" unicode="&#x100;" horiz-adv-x="670" 
d="M478 98l-60 170h-241l-32 -83c-48 -125 -32 -157 59 -172v-13h-232v13c65 18 99 53 144 165l216 541h22l222 -602c28 -75 43 -94 121 -104v-13h-305v13c95 4 107 26 86 85zM185 288h226l-105 301h-4zM201 800v39h275v-39h-275z" />
    <glyph glyph-name="amacron" unicode="&#x101;" horiz-adv-x="475" 
d="M167 -6c-84 0 -122 51 -122 105c0 40 16 76 58 99c76 42 195 55 210 67v63c0 78 -23 118 -86 118c-37 0 -71 -12 -89 -33c15 -16 26 -34 26 -52c0 -30 -19 -53 -53 -53c-32 0 -50 24 -50 53c0 58 77 103 173 103c104 0 163 -42 163 -138v-241c0 -49 17 -74 77 -50l4 -10
c-34 -19 -57 -29 -89 -29c-51 0 -69 22 -72 77h-4c-40 -45 -87 -79 -146 -79zM215 33c40 0 76 33 98 64v149c-147 -33 -177 -63 -177 -129c0 -48 22 -84 79 -84zM105 560v39h275v-39h-275z" />
    <glyph glyph-name="Aogonek" unicode="&#x104;" horiz-adv-x="670" 
d="M543 -243c-55 0 -97 32 -97 81c0 46 25 79 93 137l29 25h-176v13c95 4 107 26 86 85l-60 170h-241l-32 -83c-48 -125 -32 -157 59 -172v-13h-232v13c65 18 99 53 144 165l216 541h22l222 -602c28 -75 43 -94 121 -104v-13h-107l-24 -27c-34 -38 -53 -75 -53 -120
s28 -65 61 -65c25 0 41 6 62 17l7 -14c-33 -22 -63 -34 -100 -34zM185 288h226l-105 301h-4z" />
    <glyph glyph-name="aogonek" unicode="&#x105;" horiz-adv-x="475" 
d="M478 25l-66 -60c-44 -40 -67 -75 -67 -115c0 -41 25 -62 59 -62c25 0 43 6 64 17l7 -14c-33 -22 -63 -34 -100 -34c-55 0 -97 33 -97 78c0 50 40 87 113 140l36 26c-12 -3 -24 -5 -38 -5c-51 0 -69 22 -72 77h-4c-40 -45 -87 -79 -146 -79c-84 0 -122 51 -122 105
c0 40 16 76 58 99c76 42 195 55 210 67v63c0 78 -23 118 -86 118c-37 0 -71 -12 -89 -33c15 -16 26 -34 26 -52c0 -30 -19 -53 -53 -53c-32 0 -50 24 -50 53c0 58 77 103 173 103c104 0 163 -42 163 -138v-241c0 -49 17 -74 77 -50zM215 33c40 0 76 33 98 64v149
c-147 -33 -177 -63 -177 -129c0 -48 22 -84 79 -84z" />
    <glyph glyph-name="Aring" unicode="&#xc5;" horiz-adv-x="670" 
d="M341 715c37 0 59 33 59 86c0 63 -21 86 -59 86c-37 0 -59 -23 -59 -86c0 -53 22 -86 59 -86zM177 268l-32 -83c-48 -125 -32 -157 59 -172v-13h-232v13c65 18 99 53 144 165l208 522c-54 7 -88 51 -88 101c0 55 41 102 105 102c63 0 105 -47 105 -102
c0 -49 -33 -92 -85 -100l215 -584c28 -75 43 -94 121 -104v-13h-305v13c95 4 107 26 86 85l-60 170h-241zM411 288l-105 301h-4l-117 -301h226z" />
    <glyph glyph-name="aring" unicode="&#xe5;" horiz-adv-x="475" 
d="M167 -6c-84 0 -122 51 -122 105c0 40 16 76 58 99c76 42 195 55 210 67v63c0 78 -23 118 -86 118c-37 0 -71 -12 -89 -33c15 -16 26 -34 26 -52c0 -30 -19 -53 -53 -53c-32 0 -50 24 -50 53c0 58 77 103 173 103c104 0 163 -42 163 -138v-241c0 -49 17 -74 77 -50l4 -10
c-34 -19 -57 -29 -89 -29c-51 0 -69 22 -72 77h-4c-40 -45 -87 -79 -146 -79zM215 33c40 0 76 33 98 64v149c-147 -33 -177 -63 -177 -129c0 -48 22 -84 79 -84zM243 535c-64 0 -105 47 -105 102s41 102 105 102c63 0 105 -47 105 -102s-41 -102 -105 -102zM243 551
c37 0 59 33 59 86c0 63 -21 86 -59 86c-37 0 -59 -23 -59 -86c0 -53 22 -86 59 -86z" />
    <glyph glyph-name="Aringacute" unicode="&#x1fa;" horiz-adv-x="670" 
d="M307 920l56 128c19 44 33 68 59 68c22 0 38 -17 38 -39c0 -18 -17 -40 -43 -65l-99 -92h-11zM341 715c37 0 59 33 59 86c0 63 -21 86 -59 86c-37 0 -59 -23 -59 -86c0 -53 22 -86 59 -86zM177 268l-32 -83c-48 -125 -32 -157 59 -172v-13h-232v13c65 18 99 53 144 165
l208 522c-54 7 -88 51 -88 101c0 55 41 102 105 102c63 0 105 -47 105 -102c0 -49 -33 -92 -85 -100l215 -584c28 -75 43 -94 121 -104v-13h-305v13c95 4 107 26 86 85l-60 170h-241zM411 288l-105 301h-4l-117 -301h226z" />
    <glyph glyph-name="aringacute" unicode="&#x1fb;" horiz-adv-x="475" 
d="M167 -6c-84 0 -122 51 -122 105c0 40 16 76 58 99c76 42 195 55 210 67v63c0 78 -23 118 -86 118c-37 0 -71 -12 -89 -33c15 -16 26 -34 26 -52c0 -30 -19 -53 -53 -53c-32 0 -50 24 -50 53c0 58 77 103 173 103c104 0 163 -42 163 -138v-241c0 -49 17 -74 77 -50l4 -10
c-34 -19 -57 -29 -89 -29c-51 0 -69 22 -72 77h-4c-40 -45 -87 -79 -146 -79zM215 33c40 0 76 33 98 64v149c-147 -33 -177 -63 -177 -129c0 -48 22 -84 79 -84zM243 535c-64 0 -105 47 -105 102s41 102 105 102c63 0 105 -47 105 -102s-41 -102 -105 -102zM243 551
c37 0 59 33 59 86c0 63 -21 86 -59 86c-37 0 -59 -23 -59 -86c0 -53 22 -86 59 -86zM213 775l56 128c19 44 33 68 59 68c22 0 38 -17 38 -39c0 -18 -17 -40 -43 -65l-99 -92h-11z" />
    <glyph glyph-name="Atilde" unicode="&#xc3;" horiz-adv-x="670" 
d="M478 98l-60 170h-241l-32 -83c-48 -125 -32 -157 59 -172v-13h-232v13c65 18 99 53 144 165l216 541h22l222 -602c28 -75 43 -94 121 -104v-13h-305v13c95 4 107 26 86 85zM185 288h226l-105 301h-4zM181 766c14 80 40 120 95 120c45 0 111 -47 148 -47c17 0 38 16 50 60
h16c-14 -80 -43 -120 -95 -120c-45 0 -111 47 -148 47c-17 0 -38 -14 -50 -60h-16z" />
    <glyph glyph-name="atilde" unicode="&#xe3;" horiz-adv-x="475" 
d="M167 -6c-84 0 -122 51 -122 105c0 40 16 76 58 99c76 42 195 55 210 67v63c0 78 -23 118 -86 118c-37 0 -71 -12 -89 -33c15 -16 26 -34 26 -52c0 -30 -19 -53 -53 -53c-32 0 -50 24 -50 53c0 58 77 103 173 103c104 0 163 -42 163 -138v-241c0 -49 17 -74 77 -50l4 -10
c-34 -19 -57 -29 -89 -29c-51 0 -69 22 -72 77h-4c-40 -45 -87 -79 -146 -79zM215 33c40 0 76 33 98 64v149c-147 -33 -177 -63 -177 -129c0 -48 22 -84 79 -84zM90 526c14 80 40 120 95 120c45 0 111 -47 148 -47c17 0 38 16 50 60h16c-14 -80 -43 -120 -95 -120
c-45 0 -111 47 -148 47c-17 0 -38 -14 -50 -60h-16z" />
    <glyph glyph-name="Cacute" unicode="&#x106;" horiz-adv-x="706" 
d="M386 -17c-199 0 -340 142 -340 357c0 213 159 374 359 374c73 0 131 -15 178 -39l42 45h10v-229h-12c-49 135 -125 204 -229 204c-122 0 -237 -99 -237 -351c0 -240 138 -325 256 -325c120 0 205 84 246 173l16 -9c-43 -98 -134 -200 -289 -200zM359 770l56 128
c19 44 33 68 59 68c22 0 38 -17 38 -39c0 -18 -17 -40 -43 -65l-99 -92h-11z" />
    <glyph glyph-name="cacute" unicode="&#x107;" horiz-adv-x="450" 
d="M242 -8c-124 0 -207 100 -207 228c0 144 104 247 234 247c105 0 159 -61 159 -105c0 -32 -18 -56 -49 -56c-34 0 -55 22 -55 52c0 27 15 47 29 55c-18 20 -43 36 -82 36c-80 0 -143 -75 -143 -207c0 -119 53 -211 161 -211c61 0 93 26 137 78l11 -8
c-40 -59 -94 -109 -195 -109zM218 530l56 128c19 44 33 68 59 68c22 0 38 -17 38 -39c0 -18 -17 -40 -43 -65l-99 -92h-11z" />
    <glyph glyph-name="Ccaron" unicode="&#x10c;" horiz-adv-x="706" 
d="M386 -17c-199 0 -340 142 -340 357c0 213 159 374 359 374c73 0 131 -15 178 -39l42 45h10v-229h-12c-49 135 -125 204 -229 204c-122 0 -237 -99 -237 -351c0 -240 138 -325 256 -325c120 0 205 84 246 173l16 -9c-43 -98 -134 -200 -289 -200zM381 760l-121 183h16
l115 -96l116 96h16l-129 -183h-13z" />
    <glyph glyph-name="ccaron" unicode="&#x10d;" horiz-adv-x="450" 
d="M242 -8c-124 0 -207 100 -207 228c0 144 104 247 234 247c105 0 159 -61 159 -105c0 -32 -18 -56 -49 -56c-34 0 -55 22 -55 52c0 27 15 47 29 55c-18 20 -43 36 -82 36c-80 0 -143 -75 -143 -207c0 -119 53 -211 161 -211c61 0 93 26 137 78l11 -8
c-40 -59 -94 -109 -195 -109zM246 530l-121 183h16l115 -96l116 96h16l-129 -183h-13z" />
    <glyph glyph-name="Ccedilla" unicode="&#xc7;" horiz-adv-x="706" 
d="M356 -251c-33 0 -71 9 -103 36l11 15c25 -21 56 -29 79 -29c39 0 58 22 58 60c0 37 -32 59 -74 59c-12 0 -23 -1 -38 -6l-6 9l102 90c-199 1 -339 142 -339 357c0 213 159 374 359 374c73 0 131 -15 178 -39l42 45h10v-229h-12c-49 135 -125 204 -229 204
c-122 0 -237 -99 -237 -351c0 -240 138 -325 256 -325c120 0 205 84 246 173l16 -9c-41 -92 -124 -188 -262 -199l-63 -58l2 -3c79 0 112 -41 112 -86c0 -48 -46 -88 -108 -88z" />
    <glyph glyph-name="ccedilla" unicode="&#xe7;" horiz-adv-x="450" 
d="M232 -251c-33 0 -71 9 -103 36l11 15c25 -21 56 -29 79 -29c39 0 58 22 58 60c0 37 -32 59 -74 59c-12 0 -23 -1 -38 -6l-6 9l114 101c-10 -1 -20 -2 -31 -2c-124 0 -207 100 -207 228c0 144 104 247 234 247c105 0 159 -61 159 -105c0 -32 -18 -56 -49 -56
c-34 0 -55 22 -55 52c0 27 15 47 29 55c-18 20 -43 36 -82 36c-80 0 -143 -75 -143 -207c0 -119 53 -211 161 -211c61 0 93 26 137 78l11 -8c-33 -48 -74 -90 -143 -104h9l-77 -71l2 -3c79 0 112 -41 112 -86c0 -48 -46 -88 -108 -88z" />
    <glyph glyph-name="Cdotaccent" unicode="&#x10a;" horiz-adv-x="706" 
d="M386 -17c-199 0 -340 142 -340 357c0 213 159 374 359 374c73 0 131 -15 178 -39l42 45h10v-229h-12c-49 135 -125 204 -229 204c-122 0 -237 -99 -237 -351c0 -240 138 -325 256 -325c120 0 205 84 246 173l16 -9c-43 -98 -134 -200 -289 -200zM391 765
c-34 0 -55 23 -55 57c0 32 23 58 55 58c34 0 55 -24 55 -58c0 -32 -23 -57 -55 -57z" />
    <glyph glyph-name="cdotaccent" unicode="&#x10b;" horiz-adv-x="450" 
d="M242 -8c-124 0 -207 100 -207 228c0 144 104 247 234 247c105 0 159 -61 159 -105c0 -32 -18 -56 -49 -56c-34 0 -55 22 -55 52c0 27 15 47 29 55c-18 20 -43 36 -82 36c-80 0 -143 -75 -143 -207c0 -119 53 -211 161 -211c61 0 93 26 137 78l11 -8
c-40 -59 -94 -109 -195 -109zM257 535c-34 0 -55 23 -55 57c0 32 23 58 55 58c34 0 55 -24 55 -58c0 -32 -23 -57 -55 -57z" />
    <glyph glyph-name="Dcaron" unicode="&#x10e;" 
d="M35 0v13c89 3 113 28 113 72v528c0 43 -24 69 -113 72v12h301c245 0 376 -147 376 -337c0 -182 -115 -360 -366 -360h-311zM243 20h71c219 0 287 76 287 334c0 262 -92 323 -280 323h-78v-657zM364 770l-121 183h16l115 -96l116 96h16l-129 -183h-13z" />
    <glyph glyph-name="dcaron" unicode="&#x10f;" horiz-adv-x="531" 
d="M231 -8c-123 0 -196 104 -196 233c0 139 98 242 227 242c51 0 79 -11 106 -27v210c0 36 -10 49 -84 51v12l168 4v-669c0 -24 15 -36 73 -37v-11l-155 -4v53c-35 -33 -80 -57 -139 -57zM271 28c45 0 74 19 97 45v323c-26 33 -53 53 -104 53c-84 0 -136 -88 -136 -224
c0 -113 51 -197 143 -197zM550 535l-2 109c0 17 -1 47 -1 61c0 44 24 55 41 55c21 0 38 -13 38 -41c0 -14 -5 -33 -14 -55l-52 -129h-10z" />
    <glyph glyph-name="Dcroat" unicode="&#x110;" 
d="M35 0v13c89 3 113 28 113 72v265h-106v26h106v237c0 43 -24 69 -113 72v12h301c245 0 376 -147 376 -337c0 -182 -115 -360 -366 -360h-311zM243 20h71c219 0 287 76 287 334c0 262 -92 323 -280 323h-78v-301h136v-26h-136v-330z" />
    <glyph glyph-name="dcroat" unicode="&#x111;" horiz-adv-x="531" 
d="M231 -8c-123 0 -196 104 -196 233c0 139 98 242 227 242c51 0 79 -11 106 -27v132h-134v22h134v56c0 36 -10 49 -84 51v12l168 4v-123h71v-22h-71v-524c0 -24 15 -36 73 -37v-11l-155 -4v53c-35 -33 -80 -57 -139 -57zM271 28c45 0 74 19 97 45v323
c-26 33 -53 53 -104 53c-84 0 -136 -88 -136 -224c0 -113 51 -197 143 -197z" />
    <glyph glyph-name="Eacute" unicode="&#xc9;" horiz-adv-x="682" 
d="M35 0v13c89 3 113 28 113 72v528c0 43 -24 69 -113 72v12h566l3 -216l-13 -1c-49 131 -100 197 -216 197h-132v-305h63c84 0 126 28 153 138h13v-296h-13c-27 110 -69 138 -153 138h-63v-332h132c136 0 194 69 247 209l13 -1l-5 -228h-595zM322 770l56 128
c19 44 33 68 59 68c22 0 38 -17 38 -39c0 -18 -17 -40 -43 -65l-99 -92h-11z" />
    <glyph glyph-name="eacute" unicode="&#xe9;" horiz-adv-x="473" 
d="M252 -8c-129 0 -217 101 -217 233c0 137 102 242 217 242c131 0 196 -94 188 -204h-311c-1 -9 -1 -19 -1 -28v-1c0 -112 53 -203 161 -203c65 0 101 33 143 87l11 -8c-37 -62 -90 -118 -191 -118zM245 449c-64 0 -107 -56 -116 -170h217c9 108 -18 170 -101 170zM221 530
l56 128c19 44 33 68 59 68c22 0 38 -17 38 -39c0 -18 -17 -40 -43 -65l-99 -92h-11z" />
    <glyph glyph-name="Ebreve" unicode="&#x114;" horiz-adv-x="682" 
d="M35 0v13c89 3 113 28 113 72v528c0 43 -24 69 -113 72v12h566l3 -216l-13 -1c-49 131 -100 197 -216 197h-132v-305h63c84 0 126 28 153 138h13v-296h-13c-27 110 -69 138 -153 138h-63v-332h132c136 0 194 69 247 209l13 -1l-5 -228h-595zM352 775
c-75 0 -126 68 -134 153h15c18 -60 56 -89 119 -89s99 29 117 89h15c-7 -85 -57 -153 -132 -153z" />
    <glyph glyph-name="ebreve" unicode="&#x115;" horiz-adv-x="473" 
d="M252 -8c-129 0 -217 101 -217 233c0 137 102 242 217 242c131 0 196 -94 188 -204h-311c-1 -9 -1 -19 -1 -28v-1c0 -112 53 -203 161 -203c65 0 101 33 143 87l11 -8c-37 -62 -90 -118 -191 -118zM245 449c-64 0 -107 -56 -116 -170h217c9 108 -18 170 -101 170zM252 535
c-75 0 -126 68 -134 153h15c18 -60 56 -89 119 -89s99 29 117 89h15c-7 -85 -57 -153 -132 -153z" />
    <glyph glyph-name="Ecaron" unicode="&#x11a;" horiz-adv-x="682" 
d="M35 0v13c89 3 113 28 113 72v528c0 43 -24 69 -113 72v12h566l3 -216l-13 -1c-49 131 -100 197 -216 197h-132v-305h63c84 0 126 28 153 138h13v-296h-13c-27 110 -69 138 -153 138h-63v-332h132c136 0 194 69 247 209l13 -1l-5 -228h-595zM341 770l-121 183h16l115 -96
l116 96h16l-129 -183h-13z" />
    <glyph glyph-name="ecaron" unicode="&#x11b;" horiz-adv-x="473" 
d="M252 -8c-129 0 -217 101 -217 233c0 137 102 242 217 242c131 0 196 -94 188 -204h-311c-1 -9 -1 -19 -1 -28v-1c0 -112 53 -203 161 -203c65 0 101 33 143 87l11 -8c-37 -62 -90 -118 -191 -118zM245 449c-64 0 -107 -56 -116 -170h217c9 108 -18 170 -101 170zM242 530
l-121 183h16l115 -96l116 96h16l-129 -183h-13z" />
    <glyph glyph-name="Ecircumflex" unicode="&#xca;" horiz-adv-x="682" 
d="M35 0v13c89 3 113 28 113 72v528c0 43 -24 69 -113 72v12h566l3 -216l-13 -1c-49 131 -100 197 -216 197h-132v-305h63c84 0 126 28 153 138h13v-296h-13c-27 110 -69 138 -153 138h-63v-332h132c136 0 194 69 247 209l13 -1l-5 -228h-595zM206 770l129 183h13l121 -183
h-16l-115 96l-116 -96h-16z" />
    <glyph glyph-name="ecircumflex" unicode="&#xea;" horiz-adv-x="473" 
d="M252 -8c-129 0 -217 101 -217 233c0 137 102 242 217 242c131 0 196 -94 188 -204h-311c-1 -9 -1 -19 -1 -28v-1c0 -112 53 -203 161 -203c65 0 101 33 143 87l11 -8c-37 -62 -90 -118 -191 -118zM245 449c-64 0 -107 -56 -116 -170h217c9 108 -18 170 -101 170zM118 530
l129 183h13l121 -183h-16l-115 96l-116 -96h-16z" />
    <glyph glyph-name="Edieresis" unicode="&#xcb;" horiz-adv-x="682" 
d="M35 0v13c89 3 113 28 113 72v528c0 43 -24 69 -113 72v12h566l3 -216l-13 -1c-49 131 -100 197 -216 197h-132v-305h63c84 0 126 28 153 138h13v-296h-13c-27 110 -69 138 -153 138h-63v-332h132c136 0 194 69 247 209l13 -1l-5 -228h-595zM437 775c-31 0 -53 24 -53 55
s22 56 53 56s53 -25 53 -56s-22 -55 -53 -55zM265 775c-31 0 -53 24 -53 55s22 56 53 56s53 -25 53 -56s-22 -55 -53 -55z" />
    <glyph glyph-name="edieresis" unicode="&#xeb;" horiz-adv-x="473" 
d="M252 -8c-129 0 -217 101 -217 233c0 137 102 242 217 242c131 0 196 -94 188 -204h-311c-1 -9 -1 -19 -1 -28v-1c0 -112 53 -203 161 -203c65 0 101 33 143 87l11 -8c-37 -62 -90 -118 -191 -118zM245 449c-64 0 -107 -56 -116 -170h217c9 108 -18 170 -101 170zM336 535
c-31 0 -53 24 -53 55s22 56 53 56s53 -25 53 -56s-22 -55 -53 -55zM164 535c-31 0 -53 24 -53 55s22 56 53 56s53 -25 53 -56s-22 -55 -53 -55z" />
    <glyph glyph-name="Edotaccent" unicode="&#x116;" horiz-adv-x="682" 
d="M35 0v13c89 3 113 28 113 72v528c0 43 -24 69 -113 72v12h566l3 -216l-13 -1c-49 131 -100 197 -216 197h-132v-305h63c84 0 126 28 153 138h13v-296h-13c-27 110 -69 138 -153 138h-63v-332h132c136 0 194 69 247 209l13 -1l-5 -228h-595zM351 775c-34 0 -55 23 -55 57
c0 32 23 58 55 58c34 0 55 -24 55 -58c0 -32 -23 -57 -55 -57z" />
    <glyph glyph-name="edotaccent" unicode="&#x117;" horiz-adv-x="473" 
d="M252 -8c-129 0 -217 101 -217 233c0 137 102 242 217 242c131 0 196 -94 188 -204h-311c-1 -9 -1 -19 -1 -28v-1c0 -112 53 -203 161 -203c65 0 101 33 143 87l11 -8c-37 -62 -90 -118 -191 -118zM245 449c-64 0 -107 -56 -116 -170h217c9 108 -18 170 -101 170zM251 535
c-34 0 -55 23 -55 57c0 32 23 58 55 58c34 0 55 -24 55 -58c0 -32 -23 -57 -55 -57z" />
    <glyph glyph-name="Egrave" unicode="&#xc8;" horiz-adv-x="682" 
d="M35 0v13c89 3 113 28 113 72v528c0 43 -24 69 -113 72v12h566l3 -216l-13 -1c-49 131 -100 197 -216 197h-132v-305h63c84 0 126 28 153 138h13v-296h-13c-27 110 -69 138 -153 138h-63v-332h132c136 0 194 69 247 209l13 -1l-5 -228h-595zM389 770l-99 92
c-27 25 -43 47 -43 65c0 22 16 39 38 39c26 0 40 -24 59 -68l56 -128h-11z" />
    <glyph glyph-name="egrave" unicode="&#xe8;" horiz-adv-x="473" 
d="M252 -8c-129 0 -217 101 -217 233c0 137 102 242 217 242c131 0 196 -94 188 -204h-311c-1 -9 -1 -19 -1 -28v-1c0 -112 53 -203 161 -203c65 0 101 33 143 87l11 -8c-37 -62 -90 -118 -191 -118zM245 449c-64 0 -107 -56 -116 -170h217c9 108 -18 170 -101 170zM266 530
l-99 92c-27 25 -43 47 -43 65c0 22 16 39 38 39c26 0 40 -24 59 -68l56 -128h-11z" />
    <glyph glyph-name="Emacron" unicode="&#x112;" horiz-adv-x="682" 
d="M35 0v13c89 3 113 28 113 72v528c0 43 -24 69 -113 72v12h566l3 -216l-13 -1c-49 131 -100 197 -216 197h-132v-305h63c84 0 126 28 153 138h13v-296h-13c-27 110 -69 138 -153 138h-63v-332h132c136 0 194 69 247 209l13 -1l-5 -228h-595zM213 800v39h275v-39h-275z" />
    <glyph glyph-name="emacron" unicode="&#x113;" horiz-adv-x="473" 
d="M252 -8c-129 0 -217 101 -217 233c0 137 102 242 217 242c131 0 196 -94 188 -204h-311c-1 -9 -1 -19 -1 -28v-1c0 -112 53 -203 161 -203c65 0 101 33 143 87l11 -8c-37 -62 -90 -118 -191 -118zM245 449c-64 0 -107 -56 -116 -170h217c9 108 -18 170 -101 170zM114 560
v39h275v-39h-275z" />
    <glyph glyph-name="Eogonek" unicode="&#x118;" horiz-adv-x="682" 
d="M35 0v13c89 3 113 28 113 72v528c0 43 -24 69 -113 72v12h566l3 -216l-13 -1c-49 131 -100 197 -216 197h-132v-305h63c84 0 126 28 153 138h13v-296h-13c-27 110 -69 138 -153 138h-63v-332h132c136 0 194 69 247 209l13 -1l-5 -228h-62l-24 -27
c-34 -38 -53 -75 -53 -120s28 -65 61 -65c25 0 41 6 62 17l7 -14c-33 -22 -63 -34 -100 -34c-55 0 -97 32 -97 81c0 46 25 79 93 137l29 25h-511z" />
    <glyph glyph-name="eogonek" unicode="&#x119;" horiz-adv-x="473" 
d="M432 118l11 -8c-14 -24 -28 -42 -44 -60l-69 -77c-34 -38 -53 -75 -53 -120s28 -65 61 -65c25 0 41 6 62 17l7 -14c-33 -22 -63 -34 -100 -34c-55 0 -97 32 -97 81c0 46 25 79 93 137l46 39c-26 -13 -59 -22 -97 -22c-129 0 -217 101 -217 233c0 137 102 242 217 242
c131 0 196 -94 188 -204h-311c-1 -9 -1 -19 -1 -28v-1c0 -112 53 -203 161 -203c65 0 101 33 143 87zM245 449c-64 0 -107 -56 -116 -170h217c9 108 -18 170 -101 170z" />
    <glyph glyph-name="Eth" unicode="&#xd0;" 
d="M35 0v13c89 3 113 28 113 72v265h-106v26h106v237c0 43 -24 69 -113 72v12h301c245 0 376 -147 376 -337c0 -182 -115 -360 -366 -360h-311zM243 20h71c219 0 287 76 287 334c0 262 -92 323 -280 323h-78v-301h136v-26h-136v-330z" />
    <glyph glyph-name="eth" unicode="&#xf0;" horiz-adv-x="528" 
d="M433 656l-87 -42c84 -72 141 -172 141 -303c0 -197 -97 -319 -232 -319c-105 0 -214 101 -214 230c0 139 116 245 217 245c63 0 99 -27 123 -66l4 2c-9 71 -40 135 -85 189l-121 -58l-8 18l115 55c-39 41 -86 74 -139 98l6 14c63 -21 124 -51 176 -91l96 46zM272 10
c70 0 118 70 118 237c0 129 -42 202 -119 202c-71 0 -134 -61 -134 -222c0 -132 49 -217 135 -217z" />
    <glyph glyph-name="Gbreve" unicode="&#x11e;" horiz-adv-x="746" 
d="M411 -17c-180 0 -365 123 -365 364c0 218 180 367 359 367c77 0 131 -15 178 -39l42 45h10v-221h-12c-49 129 -132 196 -229 196c-116 0 -237 -87 -237 -346c0 -258 130 -347 246 -347c65 0 116 17 149 47v173c0 43 -24 75 -113 78v13h288v-13c-67 -4 -80 -22 -80 -78
v-176c-70 -45 -167 -63 -236 -63zM384 775c-75 0 -126 68 -134 153h15c18 -60 56 -89 119 -89s99 29 117 89h15c-7 -85 -57 -153 -132 -153z" />
    <glyph glyph-name="gbreve" unicode="&#x11f;" horiz-adv-x="462" 
d="M246 -185c85 0 157 47 157 113c0 41 -35 70 -141 70h-83c-58 -14 -86 -42 -86 -82c0 -53 42 -101 153 -101zM234 175c59 0 86 44 86 136c0 82 -33 136 -95 136c-60 0 -86 -44 -86 -136s34 -136 95 -136zM230 464c29 0 62 -7 90 -21c21 40 47 76 93 76c35 0 55 -21 55 -48
c0 -22 -17 -39 -38 -39s-41 18 -41 48c-24 -2 -43 -24 -54 -45c43 -25 75 -65 75 -122c0 -97 -93 -155 -180 -155c-22 0 -45 3 -67 10c-39 -15 -60 -30 -60 -51c0 -20 14 -38 102 -38h61c126 0 191 -34 191 -123c0 -79 -77 -157 -237 -157c-124 0 -197 45 -197 103
c0 46 49 90 124 100v3c-64 16 -87 40 -87 81c0 32 27 65 81 90c-52 23 -92 66 -92 133c0 96 93 155 181 155zM236 535c-75 0 -126 68 -134 153h15c18 -60 56 -89 119 -89s99 29 117 89h15c-7 -85 -57 -153 -132 -153z" />
    <glyph glyph-name="Gcommaaccent" unicode="&#x122;" horiz-adv-x="746" 
d="M411 -17c-180 0 -365 123 -365 364c0 218 180 367 359 367c77 0 131 -15 178 -39l42 45h10v-221h-12c-49 129 -132 196 -229 196c-116 0 -237 -87 -237 -346c0 -258 130 -347 246 -347c65 0 116 17 149 47v173c0 43 -24 75 -113 78v13h288v-13c-67 -4 -80 -22 -80 -78
v-176c-70 -45 -167 -63 -236 -63zM332 -270l-7 11c51 32 80 69 83 108l-4 1c-6 -5 -16 -8 -24 -8c-28 0 -47 21 -47 46c0 28 21 52 50 52c37 0 61 -27 61 -72c0 -55 -42 -106 -112 -138z" />
    <glyph glyph-name="gcommaaccent" unicode="&#x123;" horiz-adv-x="462" 
d="M246 -185c85 0 157 47 157 113c0 41 -35 70 -141 70h-83c-58 -14 -86 -42 -86 -82c0 -53 42 -101 153 -101zM234 175c59 0 86 44 86 136c0 82 -33 136 -95 136c-60 0 -86 -44 -86 -136s34 -136 95 -136zM230 464c29 0 62 -7 90 -21c21 40 47 76 93 76c35 0 55 -21 55 -48
c0 -22 -17 -39 -38 -39s-41 18 -41 48c-24 -2 -43 -24 -54 -45c43 -25 75 -65 75 -122c0 -97 -93 -155 -180 -155c-22 0 -45 3 -67 10c-39 -15 -60 -30 -60 -51c0 -20 14 -38 102 -38h61c126 0 191 -34 191 -123c0 -79 -77 -157 -237 -157c-124 0 -197 45 -197 103
c0 46 49 90 124 100v3c-64 16 -87 40 -87 81c0 32 27 65 81 90c-52 23 -92 66 -92 133c0 96 93 155 181 155zM288 755l7 -11c-51 -32 -80 -69 -83 -108l4 -1c6 5 16 8 24 8c28 0 47 -21 47 -46c0 -28 -21 -52 -50 -52c-37 0 -61 27 -61 72c0 55 42 106 112 138z" />
    <glyph glyph-name="Gdotaccent" unicode="&#x120;" horiz-adv-x="746" 
d="M411 -17c-180 0 -365 123 -365 364c0 218 180 367 359 367c77 0 131 -15 178 -39l42 45h10v-221h-12c-49 129 -132 196 -229 196c-116 0 -237 -87 -237 -346c0 -258 130 -347 246 -347c65 0 116 17 149 47v173c0 43 -24 75 -113 78v13h288v-13c-67 -4 -80 -22 -80 -78
v-176c-70 -45 -167 -63 -236 -63zM387 775c-34 0 -55 23 -55 57c0 32 23 58 55 58c34 0 55 -24 55 -58c0 -32 -23 -57 -55 -57z" />
    <glyph glyph-name="gdotaccent" unicode="&#x121;" horiz-adv-x="462" 
d="M246 -185c85 0 157 47 157 113c0 41 -35 70 -141 70h-83c-58 -14 -86 -42 -86 -82c0 -53 42 -101 153 -101zM234 175c59 0 86 44 86 136c0 82 -33 136 -95 136c-60 0 -86 -44 -86 -136s34 -136 95 -136zM230 464c29 0 62 -7 90 -21c21 40 47 76 93 76c35 0 55 -21 55 -48
c0 -22 -17 -39 -38 -39s-41 18 -41 48c-24 -2 -43 -24 -54 -45c43 -25 75 -65 75 -122c0 -97 -93 -155 -180 -155c-22 0 -45 3 -67 10c-39 -15 -60 -30 -60 -51c0 -20 14 -38 102 -38h61c126 0 191 -34 191 -123c0 -79 -77 -157 -237 -157c-124 0 -197 45 -197 103
c0 46 49 90 124 100v3c-64 16 -87 40 -87 81c0 32 27 65 81 90c-52 23 -92 66 -92 133c0 96 93 155 181 155zM235 535c-34 0 -55 23 -55 57c0 32 23 58 55 58c34 0 55 -24 55 -58c0 -32 -23 -57 -55 -57z" />
    <glyph glyph-name="Hbar" unicode="&#x126;" horiz-adv-x="819" 
d="M35 0v13c89 3 113 27 113 71v427h-106v24h106v79c0 43 -24 68 -113 71v12h313v-12c-95 -3 -105 -26 -105 -71v-79h333v79c0 45 -10 68 -104 71v12h312v-12c-89 -3 -113 -28 -113 -71v-79h106v-24h-106v-427c0 -44 24 -68 113 -71v-13h-312v13c94 3 104 25 104 71v267
h-333v-267c0 -46 10 -68 105 -71v-13h-313zM243 372h333v139h-333v-139z" />
    <glyph glyph-name="hbar" unicode="&#x127;" horiz-adv-x="537" 
d="M9 0v12c58 1 73 6 73 40v520h-71v22h71v56c0 36 -10 49 -84 51v12l168 4v-123h134v-22h-134v-224c46 76 103 116 171 116c74 0 121 -45 121 -135v-277c0 -34 14 -39 73 -40v-12h-221v12c51 1 64 6 64 40v247c0 80 -22 122 -88 122c-49 0 -92 -39 -120 -99v-270
c0 -34 13 -39 63 -40v-12h-220z" />
    <glyph glyph-name="Iacute" unicode="&#xcd;" horiz-adv-x="408" 
d="M41 0v13c95 3 116 28 116 72v528c0 43 -21 69 -116 72v12h326v-12c-95 -3 -116 -29 -116 -72v-528c0 -44 21 -69 116 -72v-13h-326zM173 770l56 128c19 44 33 68 59 68c22 0 38 -17 38 -39c0 -18 -17 -40 -43 -65l-99 -92h-11z" />
    <glyph glyph-name="iacute" unicode="&#xed;" horiz-adv-x="278" 
d="M28 0v12c58 1 73 6 73 40v342c0 30 -15 50 -73 51v12l157 4v-409c0 -34 13 -39 76 -40v-12h-233zM97 530l56 128c19 44 33 68 59 68c22 0 38 -17 38 -39c0 -18 -17 -40 -43 -65l-99 -92h-11z" />
    <glyph glyph-name="Ibreve" unicode="&#x12c;" horiz-adv-x="408" 
d="M41 0v13c95 3 116 28 116 72v528c0 43 -21 69 -116 72v12h326v-12c-95 -3 -116 -29 -116 -72v-528c0 -44 21 -69 116 -72v-13h-326zM205 775c-75 0 -126 68 -134 153h15c18 -60 56 -89 119 -89s99 29 117 89h15c-7 -85 -57 -153 -132 -153z" />
    <glyph glyph-name="ibreve" unicode="&#x12d;" horiz-adv-x="278" 
d="M28 0v12c58 1 73 6 73 40v342c0 30 -15 50 -73 51v12l157 4v-409c0 -34 13 -39 76 -40v-12h-233zM140 535c-75 0 -126 68 -134 153h15c18 -60 56 -89 119 -89s99 29 117 89h15c-7 -85 -57 -153 -132 -153z" />
    <glyph glyph-name="Icircumflex" unicode="&#xce;" horiz-adv-x="408" 
d="M41 0v13c95 3 116 28 116 72v528c0 43 -21 69 -116 72v12h326v-12c-95 -3 -116 -29 -116 -72v-528c0 -44 21 -69 116 -72v-13h-326zM73 770l129 183h13l121 -183h-16l-115 96l-116 -96h-16z" />
    <glyph glyph-name="icircumflex" unicode="&#xee;" horiz-adv-x="278" 
d="M28 0v12c58 1 73 6 73 40v342c0 30 -15 50 -73 51v12l157 4v-409c0 -34 13 -39 76 -40v-12h-233zM-4 530l129 183h13l121 -183h-16l-115 96l-116 -96h-16z" />
    <glyph glyph-name="Idieresis" unicode="&#xcf;" horiz-adv-x="408" 
d="M41 0v13c95 3 116 28 116 72v528c0 43 -21 69 -116 72v12h326v-12c-95 -3 -116 -29 -116 -72v-528c0 -44 21 -69 116 -72v-13h-326zM292 775c-31 0 -53 24 -53 55s22 56 53 56s53 -25 53 -56s-22 -55 -53 -55zM120 775c-31 0 -53 24 -53 55s22 56 53 56s53 -25 53 -56
s-22 -55 -53 -55z" />
    <glyph glyph-name="idieresis" unicode="&#xef;" horiz-adv-x="278" 
d="M28 0v12c58 1 73 6 73 40v342c0 30 -15 50 -73 51v12l157 4v-409c0 -34 13 -39 76 -40v-12h-233zM217 535c-31 0 -53 24 -53 55s22 56 53 56s53 -25 53 -56s-22 -55 -53 -55zM45 535c-31 0 -53 24 -53 55s22 56 53 56s53 -25 53 -56s-22 -55 -53 -55z" />
    <glyph glyph-name="Idotaccent" unicode="&#x130;" horiz-adv-x="408" 
d="M41 0v13c95 3 116 28 116 72v528c0 43 -21 69 -116 72v12h326v-12c-95 -3 -116 -29 -116 -72v-528c0 -44 21 -69 116 -72v-13h-326zM204 775c-34 0 -55 23 -55 57c0 32 23 58 55 58c34 0 55 -24 55 -58c0 -32 -23 -57 -55 -57z" />
    <glyph glyph-name="dotlessi" unicode="&#x131;" horiz-adv-x="278" 
d="M28 0v12c58 1 73 6 73 40v342c0 30 -15 50 -73 51v12l157 4v-409c0 -34 13 -39 76 -40v-12h-233z" />
    <glyph glyph-name="Igrave" unicode="&#xcc;" horiz-adv-x="408" 
d="M41 0v13c95 3 116 28 116 72v528c0 43 -21 69 -116 72v12h326v-12c-95 -3 -116 -29 -116 -72v-528c0 -44 21 -69 116 -72v-13h-326zM247 770l-99 92c-27 25 -43 47 -43 65c0 22 16 39 38 39c26 0 40 -24 59 -68l56 -128h-11z" />
    <glyph glyph-name="igrave" unicode="&#xec;" horiz-adv-x="278" 
d="M28 0v12c58 1 73 6 73 40v342c0 30 -15 50 -73 51v12l157 4v-409c0 -34 13 -39 76 -40v-12h-233zM149 530l-99 92c-27 25 -43 47 -43 65c0 22 16 39 38 39c26 0 40 -24 59 -68l56 -128h-11z" />
    <glyph glyph-name="Imacron" unicode="&#x12a;" horiz-adv-x="408" 
d="M41 0v13c95 3 116 28 116 72v528c0 43 -21 69 -116 72v12h326v-12c-95 -3 -116 -29 -116 -72v-528c0 -44 21 -69 116 -72v-13h-326zM66 800v39h275v-39h-275z" />
    <glyph glyph-name="imacron" unicode="&#x12b;" horiz-adv-x="278" 
d="M13 568v39h250v-39h-250zM28 0v12c58 1 73 6 73 40v342c0 30 -15 50 -73 51v12l157 4v-409c0 -34 13 -39 76 -40v-12h-233z" />
    <glyph glyph-name="Iogonek" unicode="&#x12e;" horiz-adv-x="408" 
d="M41 0v13c95 3 116 28 116 72v528c0 43 -21 69 -116 72v12h326v-12c-95 -3 -116 -29 -116 -72v-528c0 -44 21 -69 116 -72v-13h-133l-24 -27c-34 -38 -53 -75 -53 -120s28 -65 61 -65c25 0 41 6 62 17l7 -14c-33 -22 -63 -34 -100 -34c-55 0 -97 32 -97 81
c0 46 25 79 93 137l29 25h-171z" />
    <glyph glyph-name="iogonek" unicode="&#x12f;" horiz-adv-x="278" 
d="M28 0v12c58 1 73 6 73 40v342c0 30 -15 50 -73 51v12l157 4v-409c0 -34 13 -39 76 -40v-12h-79l-24 -27c-34 -38 -53 -75 -53 -120s28 -65 61 -65c25 0 41 6 62 17l7 -14c-33 -22 -63 -34 -100 -34c-55 0 -97 32 -97 81c0 46 25 79 93 137l29 25h-132zM137 556
c-33 0 -55 22 -55 56s22 59 55 59s55 -23 55 -57s-22 -58 -55 -58z" />
    <glyph glyph-name="Kcommaaccent" unicode="&#x136;" horiz-adv-x="752" 
d="M243 318l246 243c58 58 66 112 -41 124v12h278v-12c-84 -14 -121 -43 -225 -144l-124 -121l207 -281c75 -101 90 -114 166 -126v-13h-297v13c76 6 89 30 45 92l-183 254l-72 -70v-205c0 -46 10 -68 97 -71v-13h-305v13c89 3 113 27 113 71v530c0 43 -24 68 -113 71v12
h313v-11c-95 -4 -105 -27 -105 -72v-296zM321 -270l-7 11c51 32 80 69 83 108l-4 1c-6 -5 -16 -8 -24 -8c-28 0 -47 21 -47 46c0 28 21 52 50 52c37 0 61 -27 61 -72c0 -55 -42 -106 -112 -138z" />
    <glyph glyph-name="kcommaaccent" unicode="&#x137;" horiz-adv-x="506" 
d="M166 186v-134c0 -34 13 -39 53 -40v-12h-210v12c58 1 73 6 73 40v598c0 36 -10 49 -84 51v12l168 4v-506l155 156c40 41 38 71 -35 80v12h203v-12c-53 -8 -81 -26 -145 -88l-71 -69l145 -199c47 -64 58 -74 104 -79v-12h-220v12c57 6 58 28 33 62l-117 163zM198 -270
l-7 11c51 32 80 69 83 108l-4 1c-6 -5 -16 -8 -24 -8c-28 0 -47 21 -47 46c0 28 21 52 50 52c37 0 61 -27 61 -72c0 -55 -42 -106 -112 -138z" />
    <glyph glyph-name="Lacute" unicode="&#x139;" horiz-adv-x="613" 
d="M35 0v13c89 3 113 28 113 72v528c0 43 -24 69 -113 72v12h313v-12c-95 -3 -105 -27 -105 -72v-593h92c132 0 195 43 253 199l13 -1l-10 -218h-556zM202 770l56 128c19 44 33 68 59 68c22 0 38 -17 38 -39c0 -18 -17 -40 -43 -65l-99 -92h-11z" />
    <glyph glyph-name="lacute" unicode="&#x13a;" horiz-adv-x="282" 
d="M28 0v12c58 1 73 6 73 40v598c0 36 -10 49 -84 51v12l168 4v-665c0 -34 14 -39 73 -40v-12h-230zM112 763l56 128c19 44 33 68 59 68c22 0 38 -17 38 -39c0 -18 -17 -40 -43 -65l-99 -92h-11z" />
    <glyph glyph-name="Lcaron" unicode="&#x13d;" horiz-adv-x="613" 
d="M35 0v13c89 3 113 28 113 72v528c0 43 -24 69 -113 72v12h313v-12c-95 -3 -105 -27 -105 -72v-593h92c132 0 195 43 253 199l13 -1l-10 -218h-556zM431 515l-2 109c0 17 -1 47 -1 61c0 44 24 55 41 55c21 0 38 -13 38 -41c0 -14 -5 -33 -14 -55l-52 -129h-10z" />
    <glyph glyph-name="lcaron" unicode="&#x13e;" horiz-adv-x="282" 
d="M28 0v12c58 1 73 6 73 40v598c0 36 -10 49 -84 51v12l168 4v-665c0 -34 14 -39 73 -40v-12h-230zM283 535l-2 109c0 17 -1 47 -1 61c0 44 24 55 41 55c21 0 38 -13 38 -41c0 -14 -5 -33 -14 -55l-52 -129h-10z" />
    <glyph glyph-name="Lcommaaccent" unicode="&#x13b;" horiz-adv-x="613" 
d="M35 0v13c89 3 113 28 113 72v528c0 43 -24 69 -113 72v12h313v-12c-95 -3 -105 -27 -105 -72v-593h92c132 0 195 43 253 199l13 -1l-10 -218h-556zM277 -270l-7 11c51 32 80 69 83 108l-4 1c-6 -5 -16 -8 -24 -8c-28 0 -47 21 -47 46c0 28 21 52 50 52
c37 0 61 -27 61 -72c0 -55 -42 -106 -112 -138z" />
    <glyph glyph-name="lcommaaccent" unicode="&#x13c;" horiz-adv-x="282" 
d="M28 0v12c58 1 73 6 73 40v598c0 36 -10 49 -84 51v12l168 4v-665c0 -34 14 -39 73 -40v-12h-230zM86 -270l-7 11c51 32 80 69 83 108l-4 1c-6 -5 -16 -8 -24 -8c-28 0 -47 21 -47 46c0 28 21 52 50 52c37 0 61 -27 61 -72c0 -55 -42 -106 -112 -138z" />
    <glyph glyph-name="Ldot" unicode="&#x13f;" horiz-adv-x="613" 
d="M35 0v13c89 3 113 28 113 72v528c0 43 -24 69 -113 72v12h313v-12c-95 -3 -105 -27 -105 -72v-593h92c132 0 195 43 253 199l13 -1l-10 -218h-556zM494 311c-34 0 -55 23 -55 57c0 32 23 58 55 58c34 0 55 -24 55 -58c0 -32 -23 -57 -55 -57z" />
    <glyph glyph-name="ldot" unicode="&#x140;" horiz-adv-x="338" 
d="M312 287c-34 0 -55 23 -55 57c0 32 23 58 55 58c34 0 55 -24 55 -58c0 -32 -23 -57 -55 -57zM28 0v12c58 1 73 6 73 40v598c0 36 -10 49 -84 51v12l168 4v-665c0 -34 14 -39 73 -40v-12h-230z" />
    <glyph glyph-name="Lslash" unicode="&#x141;" horiz-adv-x="613" 
d="M35 0v13c89 3 113 28 113 72v234l-89 -23l-7 25l96 25v267c0 43 -24 69 -113 72v12h313v-12c-95 -3 -105 -27 -105 -72v-242l134 35l6 -24l-140 -37v-325h92c132 0 195 43 253 199l13 -1l-10 -218h-556z" />
    <glyph glyph-name="lslash" unicode="&#x142;" horiz-adv-x="308" 
d="M53 0v12c58 1 73 6 73 40v275l-88 -23l-6 22l94 25v299c0 36 -10 49 -84 51v12l168 4v-344l94 26l6 -22l-100 -27v-298c0 -34 14 -39 73 -40v-12h-230z" />
    <glyph glyph-name="Nacute" unicode="&#x143;" horiz-adv-x="785" 
d="M639 -17l-458 612h-1v-430c0 -97 21 -137 123 -152v-13h-268v13c94 16 121 55 121 152v406c0 61 -35 112 -121 114v12h195l406 -548h1v384c0 97 -31 137 -131 152v12h269v-12c-94 -17 -114 -55 -114 -152v-550h-22zM380 760l56 128c19 44 33 68 59 68c22 0 38 -17 38 -39
c0 -18 -17 -40 -43 -65l-99 -92h-11z" />
    <glyph glyph-name="nacute" unicode="&#x144;" horiz-adv-x="549" 
d="M21 0v12c58 1 73 6 73 40v342c0 30 -15 50 -73 51v12l155 4v-113c46 76 105 116 173 116c74 0 121 -45 121 -135v-277c0 -34 14 -39 73 -40v-12h-221v12c51 1 64 6 64 40v250c0 80 -22 119 -88 119c-49 0 -92 -39 -120 -99v-270c0 -34 13 -39 63 -40v-12h-220zM245 530
l56 128c19 44 33 68 59 68c22 0 38 -17 38 -39c0 -18 -17 -40 -43 -65l-99 -92h-11z" />
    <glyph glyph-name="Ncaron" unicode="&#x147;" horiz-adv-x="785" 
d="M639 -17l-458 612h-1v-430c0 -97 21 -137 123 -152v-13h-268v13c94 16 121 55 121 152v406c0 61 -35 112 -121 114v12h195l406 -548h1v384c0 97 -31 137 -131 152v12h269v-12c-94 -17 -114 -55 -114 -152v-550h-22zM391 760l-121 183h16l115 -96l116 96h16l-129 -183h-13
z" />
    <glyph glyph-name="ncaron" unicode="&#x148;" horiz-adv-x="549" 
d="M21 0v12c58 1 73 6 73 40v342c0 30 -15 50 -73 51v12l155 4v-113c46 76 105 116 173 116c74 0 121 -45 121 -135v-277c0 -34 14 -39 73 -40v-12h-221v12c51 1 64 6 64 40v250c0 80 -22 119 -88 119c-49 0 -92 -39 -120 -99v-270c0 -34 13 -39 63 -40v-12h-220zM265 530
l-121 183h16l115 -96l116 96h16l-129 -183h-13z" />
    <glyph glyph-name="Ncommaaccent" unicode="&#x145;" horiz-adv-x="785" 
d="M639 -17l-458 612h-1v-430c0 -97 21 -137 123 -152v-13h-268v13c94 16 121 55 121 152v406c0 61 -35 112 -121 114v12h195l406 -548h1v384c0 97 -31 137 -131 152v12h269v-12c-94 -17 -114 -55 -114 -152v-550h-22zM338 -270l-7 11c51 32 80 69 83 108l-4 1
c-6 -5 -16 -8 -24 -8c-28 0 -47 21 -47 46c0 28 21 52 50 52c37 0 61 -27 61 -72c0 -55 -42 -106 -112 -138z" />
    <glyph glyph-name="ncommaaccent" unicode="&#x146;" horiz-adv-x="549" 
d="M21 0v12c58 1 73 6 73 40v342c0 30 -15 50 -73 51v12l155 4v-113c46 76 105 116 173 116c74 0 121 -45 121 -135v-277c0 -34 14 -39 73 -40v-12h-221v12c51 1 64 6 64 40v250c0 80 -22 119 -88 119c-49 0 -92 -39 -120 -99v-270c0 -34 13 -39 63 -40v-12h-220zM220 -270
l-7 11c51 32 80 69 83 108l-4 1c-6 -5 -16 -8 -24 -8c-28 0 -47 21 -47 46c0 28 21 52 50 52c37 0 61 -27 61 -72c0 -55 -42 -106 -112 -138z" />
    <glyph glyph-name="Ntilde" unicode="&#xd1;" horiz-adv-x="785" 
d="M639 -17l-458 612h-1v-430c0 -97 21 -137 123 -152v-13h-268v13c94 16 121 55 121 152v406c0 61 -35 112 -121 114v12h195l406 -548h1v384c0 97 -31 137 -131 152v12h269v-12c-94 -17 -114 -55 -114 -152v-550h-22zM265 766c14 80 40 120 95 120c45 0 111 -47 148 -47
c17 0 38 16 50 60h16c-14 -80 -43 -120 -95 -120c-45 0 -111 47 -148 47c-17 0 -38 -14 -50 -60h-16z" />
    <glyph glyph-name="ntilde" unicode="&#xf1;" horiz-adv-x="549" 
d="M21 0v12c58 1 73 6 73 40v342c0 30 -15 50 -73 51v12l155 4v-113c46 76 105 116 173 116c74 0 121 -45 121 -135v-277c0 -34 14 -39 73 -40v-12h-221v12c51 1 64 6 64 40v250c0 80 -22 119 -88 119c-49 0 -92 -39 -120 -99v-270c0 -34 13 -39 63 -40v-12h-220zM120 526
c14 80 40 120 95 120c45 0 111 -47 148 -47c17 0 38 16 50 60h16c-14 -80 -43 -120 -95 -120c-45 0 -111 47 -148 47c-17 0 -38 -14 -50 -60h-16z" />
    <glyph glyph-name="Oacute" unicode="&#xd3;" 
d="M379 -17c-174 0 -333 144 -333 364c0 218 164 367 333 367c173 0 333 -144 333 -364c0 -218 -165 -367 -333 -367zM383 2c128 0 218 77 218 346c0 271 -98 347 -227 347c-128 0 -217 -77 -217 -346c0 -271 98 -347 226 -347zM343 770l56 128c19 44 33 68 59 68
c22 0 38 -17 38 -39c0 -18 -17 -40 -43 -65l-99 -92h-11z" />
    <glyph glyph-name="oacute" unicode="&#xf3;" horiz-adv-x="523" 
d="M262 -8c-123 0 -227 96 -227 236c0 139 110 239 227 239c121 0 226 -96 226 -235c0 -140 -110 -240 -226 -240zM266 10c78 0 126 55 126 220s-55 219 -135 219c-79 0 -126 -54 -126 -219s55 -220 135 -220zM234 530l56 128c19 44 33 68 59 68c22 0 38 -17 38 -39
c0 -18 -17 -40 -43 -65l-99 -92h-11z" />
    <glyph glyph-name="Obreve" unicode="&#x14e;" 
d="M379 -17c-174 0 -333 144 -333 364c0 218 164 367 333 367c173 0 333 -144 333 -364c0 -218 -165 -367 -333 -367zM383 2c128 0 218 77 218 346c0 271 -98 347 -227 347c-128 0 -217 -77 -217 -346c0 -271 98 -347 226 -347zM380 775c-75 0 -126 68 -134 153h15
c18 -60 56 -89 119 -89s99 29 117 89h15c-7 -85 -57 -153 -132 -153z" />
    <glyph glyph-name="obreve" unicode="&#x14f;" horiz-adv-x="523" 
d="M262 -8c-123 0 -227 96 -227 236c0 139 110 239 227 239c121 0 226 -96 226 -235c0 -140 -110 -240 -226 -240zM266 10c78 0 126 55 126 220s-55 219 -135 219c-79 0 -126 -54 -126 -219s55 -220 135 -220zM262 535c-75 0 -126 68 -134 153h15c18 -60 56 -89 119 -89
s99 29 117 89h15c-7 -85 -57 -153 -132 -153z" />
    <glyph glyph-name="Ocircumflex" unicode="&#xd4;" 
d="M379 -17c-174 0 -333 144 -333 364c0 218 164 367 333 367c173 0 333 -144 333 -364c0 -218 -165 -367 -333 -367zM383 2c128 0 218 77 218 346c0 271 -98 347 -227 347c-128 0 -217 -77 -217 -346c0 -271 98 -347 226 -347zM248 770l129 183h13l121 -183h-16l-115 96
l-116 -96h-16z" />
    <glyph glyph-name="ocircumflex" unicode="&#xf4;" horiz-adv-x="523" 
d="M262 -8c-123 0 -227 96 -227 236c0 139 110 239 227 239c121 0 226 -96 226 -235c0 -140 -110 -240 -226 -240zM266 10c78 0 126 55 126 220s-55 219 -135 219c-79 0 -126 -54 -126 -219s55 -220 135 -220zM133 530l129 183h13l121 -183h-16l-115 96l-116 -96h-16z" />
    <glyph glyph-name="Odieresis" unicode="&#xd6;" 
d="M379 -17c-174 0 -333 144 -333 364c0 218 164 367 333 367c173 0 333 -144 333 -364c0 -218 -165 -367 -333 -367zM383 2c128 0 218 77 218 346c0 271 -98 347 -227 347c-128 0 -217 -77 -217 -346c0 -271 98 -347 226 -347zM465 775c-31 0 -53 24 -53 55s22 56 53 56
s53 -25 53 -56s-22 -55 -53 -55zM293 775c-31 0 -53 24 -53 55s22 56 53 56s53 -25 53 -56s-22 -55 -53 -55z" />
    <glyph glyph-name="odieresis" unicode="&#xf6;" horiz-adv-x="523" 
d="M262 -8c-123 0 -227 96 -227 236c0 139 110 239 227 239c121 0 226 -96 226 -235c0 -140 -110 -240 -226 -240zM266 10c78 0 126 55 126 220s-55 219 -135 219c-79 0 -126 -54 -126 -219s55 -220 135 -220zM347 535c-31 0 -53 24 -53 55s22 56 53 56s53 -25 53 -56
s-22 -55 -53 -55zM175 535c-31 0 -53 24 -53 55s22 56 53 56s53 -25 53 -56s-22 -55 -53 -55z" />
    <glyph glyph-name="OE" unicode="&#x152;" horiz-adv-x="1054" 
d="M427 0c-245 0 -376 147 -376 337c0 182 115 360 376 360h546l3 -216l-13 -1c-49 131 -100 197 -216 197h-132v-305h63c84 0 126 28 153 138h13v-296h-13c-27 110 -69 138 -153 138h-63v-332h132c136 0 194 69 247 209l13 -1l-5 -228h-575zM417 21c73 0 103 24 103 68v520
c0 45 -34 69 -101 69c-170 0 -257 -71 -257 -334c0 -267 105 -323 255 -323z" />
    <glyph glyph-name="oe" unicode="&#x153;" horiz-adv-x="831" 
d="M610 -8c-76 0 -135 35 -172 90c-43 -56 -109 -90 -176 -90c-123 0 -227 96 -227 236c0 139 110 239 227 239c72 0 139 -34 181 -92c39 56 100 92 167 92c131 0 196 -94 188 -204h-311c-1 -9 -1 -19 -1 -28v-1c0 -112 53 -203 161 -203c65 0 101 33 143 87l11 -8
c-37 -62 -90 -118 -191 -118zM392 230c0 165 -55 219 -135 219c-79 0 -126 -54 -126 -219s55 -220 135 -220c78 0 126 55 126 220zM603 449c-64 0 -107 -56 -116 -170h217c9 108 -18 170 -101 170z" />
    <glyph glyph-name="Ograve" unicode="&#xd2;" 
d="M379 -17c-174 0 -333 144 -333 364c0 218 164 367 333 367c173 0 333 -144 333 -364c0 -218 -165 -367 -333 -367zM383 2c128 0 218 77 218 346c0 271 -98 347 -227 347c-128 0 -217 -77 -217 -346c0 -271 98 -347 226 -347zM410 770l-99 92c-27 25 -43 47 -43 65
c0 22 16 39 38 39c26 0 40 -24 59 -68l56 -128h-11z" />
    <glyph glyph-name="ograve" unicode="&#xf2;" horiz-adv-x="523" 
d="M262 -8c-123 0 -227 96 -227 236c0 139 110 239 227 239c121 0 226 -96 226 -235c0 -140 -110 -240 -226 -240zM266 10c78 0 126 55 126 220s-55 219 -135 219c-79 0 -126 -54 -126 -219s55 -220 135 -220zM275 530l-99 92c-27 25 -43 47 -43 65c0 22 16 39 38 39
c26 0 40 -24 59 -68l56 -128h-11z" />
    <glyph glyph-name="Ohungarumlaut" unicode="&#x150;" 
d="M379 -17c-174 0 -333 144 -333 364c0 218 164 367 333 367c173 0 333 -144 333 -364c0 -218 -165 -367 -333 -367zM383 2c128 0 218 77 218 346c0 271 -98 347 -227 347c-128 0 -217 -77 -217 -346c0 -271 98 -347 226 -347zM428 770l60 128c21 44 36 68 62 68
c22 0 36 -15 36 -37c0 -18 -16 -39 -46 -67l-101 -92h-11zM278 770l60 128c21 44 36 68 62 68c22 0 36 -15 36 -37c0 -18 -19 -42 -46 -67l-101 -92h-11z" />
    <glyph glyph-name="ohungarumlaut" unicode="&#x151;" horiz-adv-x="523" 
d="M262 -8c-123 0 -227 96 -227 236c0 139 110 239 227 239c121 0 226 -96 226 -235c0 -140 -110 -240 -226 -240zM266 10c78 0 126 55 126 220s-55 219 -135 219c-79 0 -126 -54 -126 -219s55 -220 135 -220zM310 530l60 128c21 44 36 68 62 68c22 0 36 -15 36 -37
c0 -18 -16 -39 -46 -67l-101 -92h-11zM160 530l60 128c21 44 36 68 62 68c22 0 36 -15 36 -37c0 -18 -19 -42 -46 -67l-101 -92h-11z" />
    <glyph glyph-name="Omacron" unicode="&#x14c;" 
d="M379 -17c-174 0 -333 144 -333 364c0 218 164 367 333 367c173 0 333 -144 333 -364c0 -218 -165 -367 -333 -367zM383 2c128 0 218 77 218 346c0 271 -98 347 -227 347c-128 0 -217 -77 -217 -346c0 -271 98 -347 226 -347zM241 800v39h275v-39h-275z" />
    <glyph glyph-name="omacron" unicode="&#x14d;" horiz-adv-x="523" 
d="M262 -8c-123 0 -227 96 -227 236c0 139 110 239 227 239c121 0 226 -96 226 -235c0 -140 -110 -240 -226 -240zM266 10c78 0 126 55 126 220s-55 219 -135 219c-79 0 -126 -54 -126 -219s55 -220 135 -220zM124 560v39h275v-39h-275z" />
    <glyph glyph-name="Oslash" unicode="&#xd8;" 
d="M379 -17c-78 0 -153 29 -212 80l-79 -99h-34l94 117c-62 64 -102 155 -102 266c0 218 164 367 333 367c77 0 152 -29 211 -81l80 100h34l-94 -118c62 -64 102 -155 102 -265c0 -218 -165 -367 -333 -367zM383 2c128 0 218 77 218 346c0 93 -12 164 -33 216l-367 -458
c41 -78 106 -104 182 -104zM374 695c-128 0 -217 -77 -217 -346c0 -94 12 -164 32 -216l367 458c-41 77 -106 104 -182 104z" />
    <glyph glyph-name="oslash" unicode="&#xf8;" horiz-adv-x="523" 
d="M74 -26h-30l62 79c-44 42 -71 102 -71 175c0 139 110 239 227 239c50 0 98 -17 136 -46l51 64h30l-63 -80c44 -41 72 -101 72 -173c0 -140 -110 -240 -226 -240c-51 0 -99 16 -138 46zM131 230c0 -53 6 -94 16 -126l219 276c-23 50 -62 69 -109 69
c-79 0 -126 -54 -126 -219zM266 10c78 0 126 55 126 220c0 52 -6 93 -16 125l-219 -277c23 -49 62 -68 109 -68z" />
    <glyph glyph-name="Oslashacute" unicode="&#x1fe;" 
d="M379 -17c168 0 333 149 333 367c0 110 -40 201 -102 265l94 118h-34l-80 -100c-59 52 -134 81 -211 81c-169 0 -333 -149 -333 -367c0 -111 40 -202 102 -266l-94 -117h34l79 99c59 -51 134 -80 212 -80zM383 2c-76 0 -141 26 -182 104l367 458c21 -52 33 -123 33 -216
c0 -269 -90 -346 -218 -346zM374 695c76 0 141 -27 182 -104l-367 -458c-20 52 -32 122 -32 216c0 269 89 346 217 346zM343 770l56 128c19 44 33 68 59 68c22 0 38 -17 38 -39c0 -18 -17 -40 -43 -65l-99 -92h-11z" />
    <glyph glyph-name="oslashacute" unicode="&#x1ff;" horiz-adv-x="523" 
d="M74 -26h-30l62 79c-44 42 -71 102 -71 175c0 139 110 239 227 239c50 0 98 -17 136 -46l51 64h30l-63 -80c44 -41 72 -101 72 -173c0 -140 -110 -240 -226 -240c-51 0 -99 16 -138 46zM131 230c0 -53 6 -94 16 -126l219 276c-23 50 -62 69 -109 69
c-79 0 -126 -54 -126 -219zM266 10c78 0 126 55 126 220c0 52 -6 93 -16 125l-219 -277c23 -49 62 -68 109 -68zM234 530l56 128c19 44 33 68 59 68c22 0 38 -17 38 -39c0 -18 -17 -40 -43 -65l-99 -92h-11z" />
    <glyph glyph-name="Otilde" unicode="&#xd5;" 
d="M379 -17c-174 0 -333 144 -333 364c0 218 164 367 333 367c173 0 333 -144 333 -364c0 -218 -165 -367 -333 -367zM383 2c128 0 218 77 218 346c0 271 -98 347 -227 347c-128 0 -217 -77 -217 -346c0 -271 98 -347 226 -347zM244 766c14 80 40 120 95 120
c45 0 111 -47 148 -47c17 0 38 16 50 60h16c-14 -80 -43 -120 -95 -120c-45 0 -111 47 -148 47c-17 0 -38 -14 -50 -60h-16z" />
    <glyph glyph-name="otilde" unicode="&#xf5;" horiz-adv-x="523" 
d="M262 -8c-123 0 -227 96 -227 236c0 139 110 239 227 239c121 0 226 -96 226 -235c0 -140 -110 -240 -226 -240zM266 10c78 0 126 55 126 220s-55 219 -135 219c-79 0 -126 -54 -126 -219s55 -220 135 -220zM107 526c14 80 40 120 95 120c45 0 111 -47 148 -47
c17 0 38 16 50 60h16c-14 -80 -43 -120 -95 -120c-45 0 -111 47 -148 47c-17 0 -38 -14 -50 -60h-16z" />
    <glyph glyph-name="Racute" unicode="&#x154;" horiz-adv-x="699" 
d="M243 359h95c142 0 170 67 170 166c0 92 -42 152 -185 152h-80v-318zM243 339v-254c0 -46 16 -69 110 -72v-13h-318v13c89 3 113 28 113 72v528c0 43 -24 69 -113 72v12h295c204 0 286 -73 286 -169c0 -87 -60 -156 -212 -178v-3c148 -7 180 -73 196 -180l6 -41
c16 -94 33 -107 122 -107v-11c-31 -9 -68 -14 -102 -14c-93 0 -113 37 -124 129l-11 95c-12 100 -39 121 -158 121h-90zM329 770l56 128c19 44 33 68 59 68c22 0 38 -17 38 -39c0 -18 -17 -40 -43 -65l-99 -92h-11z" />
    <glyph glyph-name="racute" unicode="&#x155;" horiz-adv-x="388" 
d="M21 0v12c58 1 73 6 73 40v342c0 30 -15 50 -73 51v12l155 4v-103c37 67 83 108 133 108c51 0 73 -32 73 -66c0 -32 -22 -54 -53 -54c-30 0 -54 20 -54 54c0 8 2 19 5 26c-45 -7 -69 -37 -102 -92v-282c0 -34 20 -39 84 -40v-12h-241zM170 530l56 128c19 44 33 68 59 68
c22 0 38 -17 38 -39c0 -18 -17 -40 -43 -65l-99 -92h-11z" />
    <glyph glyph-name="Rcaron" unicode="&#x158;" horiz-adv-x="699" 
d="M243 359h95c142 0 170 67 170 166c0 92 -42 152 -185 152h-80v-318zM243 339v-254c0 -46 16 -69 110 -72v-13h-318v13c89 3 113 28 113 72v528c0 43 -24 69 -113 72v12h295c204 0 286 -73 286 -169c0 -87 -60 -156 -212 -178v-3c148 -7 180 -73 196 -180l6 -41
c16 -94 33 -107 122 -107v-11c-31 -9 -68 -14 -102 -14c-93 0 -113 37 -124 129l-11 95c-12 100 -39 121 -158 121h-90zM340 770l-121 183h16l115 -96l116 96h16l-129 -183h-13z" />
    <glyph glyph-name="rcaron" unicode="&#x159;" horiz-adv-x="388" 
d="M21 0v12c58 1 73 6 73 40v342c0 30 -15 50 -73 51v12l155 4v-103c37 67 83 108 133 108c51 0 73 -32 73 -66c0 -32 -22 -54 -53 -54c-30 0 -54 20 -54 54c0 8 2 19 5 26c-45 -7 -69 -37 -102 -92v-282c0 -34 20 -39 84 -40v-12h-241zM193 530l-121 183h16l115 -96l116 96
h16l-129 -183h-13z" />
    <glyph glyph-name="Rcommaaccent" unicode="&#x156;" horiz-adv-x="699" 
d="M243 359h95c142 0 170 67 170 166c0 92 -42 152 -185 152h-80v-318zM243 339v-254c0 -46 16 -69 110 -72v-13h-318v13c89 3 113 28 113 72v528c0 43 -24 69 -113 72v12h295c204 0 286 -73 286 -169c0 -87 -60 -156 -212 -178v-3c148 -7 180 -73 196 -180l6 -41
c16 -94 33 -107 122 -107v-11c-31 -9 -68 -14 -102 -14c-93 0 -113 37 -124 129l-11 95c-12 100 -39 121 -158 121h-90zM305 -270l-7 11c51 32 80 69 83 108l-4 1c-6 -5 -16 -8 -24 -8c-28 0 -47 21 -47 46c0 28 21 52 50 52c37 0 61 -27 61 -72c0 -55 -42 -106 -112 -138z
" />
    <glyph glyph-name="rcommaaccent" unicode="&#x157;" horiz-adv-x="388" 
d="M21 0v12c58 1 73 6 73 40v342c0 30 -15 50 -73 51v12l155 4v-103c37 67 83 108 133 108c51 0 73 -32 73 -66c0 -32 -22 -54 -53 -54c-30 0 -54 20 -54 54c0 8 2 19 5 26c-45 -7 -69 -37 -102 -92v-282c0 -34 20 -39 84 -40v-12h-241zM83 -270l-7 11c51 32 80 69 83 108
l-4 1c-6 -5 -16 -8 -24 -8c-28 0 -47 21 -47 46c0 28 21 52 50 52c37 0 61 -27 61 -72c0 -55 -42 -106 -112 -138z" />
    <glyph glyph-name="Sacute" unicode="&#x15a;" horiz-adv-x="573" 
d="M57 -18v246h14c54 -127 117 -222 230 -222c105 0 155 71 155 133c0 95 -61 127 -188 172c-95 34 -197 61 -197 190c0 131 102 210 232 210c59 0 114 -15 147 -30l32 36h12v-219h-14c-47 127 -110 194 -194 194c-71 0 -134 -46 -134 -128c0 -91 66 -121 179 -159
c96 -32 195 -64 195 -194c0 -104 -61 -225 -235 -225c-56 0 -119 20 -160 43l-62 -47h-12zM270 770l56 128c19 44 33 68 59 68c22 0 38 -17 38 -39c0 -18 -17 -40 -43 -65l-99 -92h-11z" />
    <glyph glyph-name="sacute" unicode="&#x15b;" horiz-adv-x="402" 
d="M40 -8v162h13c64 -115 93 -144 165 -144c61 0 92 44 92 81c0 48 -30 76 -125 102c-100 27 -143 59 -143 132c0 81 62 142 161 142c38 0 78 -14 102 -28l23 28h11v-145h-13c-58 97 -83 127 -142 127c-48 0 -86 -32 -86 -79c0 -43 39 -67 121 -90c99 -28 142 -63 142 -138
c0 -80 -49 -150 -155 -150c-37 0 -89 13 -121 34l-34 -34h-11zM167 530l56 128c19 44 33 68 59 68c22 0 38 -17 38 -39c0 -18 -17 -40 -43 -65l-99 -92h-11z" />
    <glyph glyph-name="Scaron" unicode="&#x160;" horiz-adv-x="573" 
d="M57 -18v246h14c54 -127 117 -222 230 -222c105 0 155 71 155 133c0 95 -61 127 -188 172c-95 34 -197 61 -197 190c0 131 102 210 232 210c59 0 114 -15 147 -30l32 36h12v-219h-14c-47 127 -110 194 -194 194c-71 0 -134 -46 -134 -128c0 -91 66 -121 179 -159
c96 -32 195 -64 195 -194c0 -104 -61 -225 -235 -225c-56 0 -119 20 -160 43l-62 -47h-12zM297 770l-121 183h16l115 -96l116 96h16l-129 -183h-13z" />
    <glyph glyph-name="scaron" unicode="&#x161;" horiz-adv-x="402" 
d="M40 -8v162h13c64 -115 93 -144 165 -144c61 0 92 44 92 81c0 48 -30 76 -125 102c-100 27 -143 59 -143 132c0 81 62 142 161 142c38 0 78 -14 102 -28l23 28h11v-145h-13c-58 97 -83 127 -142 127c-48 0 -86 -32 -86 -79c0 -43 39 -67 121 -90c99 -28 142 -63 142 -138
c0 -80 -49 -150 -155 -150c-37 0 -89 13 -121 34l-34 -34h-11zM206 530l-121 183h16l115 -96l116 96h16l-129 -183h-13z" />
    <glyph glyph-name="Scedilla" unicode="&#x15e;" horiz-adv-x="573" 
d="M257 -251c-33 0 -71 9 -103 36l11 15c25 -21 56 -29 79 -29c39 0 58 22 58 60c0 37 -32 59 -74 59c-12 0 -23 -1 -38 -6l-6 9l105 93c-55 1 -118 20 -158 43l-62 -47h-12v246h14c54 -127 117 -222 230 -222c105 0 155 71 155 133c0 95 -61 127 -188 172
c-95 34 -197 61 -197 190c0 131 102 210 232 210c59 0 114 -15 147 -30l32 36h12v-219h-14c-47 127 -110 194 -194 194c-71 0 -134 -46 -134 -128c0 -91 66 -121 179 -159c96 -32 195 -64 195 -194c0 -99 -55 -212 -209 -224l-66 -61l2 -3c79 0 112 -41 112 -86
c0 -48 -46 -88 -108 -88z" />
    <glyph glyph-name="scedilla" unicode="&#x15f;" horiz-adv-x="402" 
d="M172 -251c-33 0 -71 9 -103 36l11 15c25 -21 56 -29 79 -29c39 0 58 22 58 60c0 37 -32 59 -74 59c-12 0 -23 -1 -38 -6l-6 9l112 99h-5c-37 0 -89 13 -121 34l-34 -34h-11v162h13c64 -115 93 -144 165 -144c61 0 92 44 92 81c0 48 -30 76 -125 102
c-100 27 -143 59 -143 132c0 81 62 142 161 142c38 0 78 -14 102 -28l23 28h11v-145h-13c-58 97 -83 127 -142 127c-48 0 -86 -32 -86 -79c0 -43 39 -67 121 -90c99 -28 142 -63 142 -138c0 -71 -39 -134 -121 -147l-74 -69l2 -3c79 0 112 -41 112 -86
c0 -48 -46 -88 -108 -88z" />
    <glyph glyph-name="Scommaaccent" unicode="&#x218;" horiz-adv-x="573" 
d="M57 -18v246h14c54 -127 117 -222 230 -222c105 0 155 71 155 133c0 95 -61 127 -188 172c-95 34 -197 61 -197 190c0 131 102 210 232 210c59 0 114 -15 147 -30l32 36h12v-219h-14c-47 127 -110 194 -194 194c-71 0 -134 -46 -134 -128c0 -91 66 -121 179 -159
c96 -32 195 -64 195 -194c0 -104 -61 -225 -235 -225c-56 0 -119 20 -160 43l-62 -47h-12zM232 -270l-7 11c51 32 80 69 83 108l-4 1c-6 -5 -16 -8 -24 -8c-28 0 -47 21 -47 46c0 28 21 52 50 52c37 0 61 -27 61 -72c0 -55 -42 -106 -112 -138z" />
    <glyph glyph-name="scommaaccent" unicode="&#x219;" horiz-adv-x="402" 
d="M40 -8v162h13c64 -115 93 -144 165 -144c61 0 92 44 92 81c0 48 -30 76 -125 102c-100 27 -143 59 -143 132c0 81 62 142 161 142c38 0 78 -14 102 -28l23 28h11v-145h-13c-58 97 -83 127 -142 127c-48 0 -86 -32 -86 -79c0 -43 39 -67 121 -90c99 -28 142 -63 142 -138
c0 -80 -49 -150 -155 -150c-37 0 -89 13 -121 34l-34 -34h-11zM146 -270l-7 11c51 32 80 69 83 108l-4 1c-6 -5 -16 -8 -24 -8c-28 0 -47 21 -47 46c0 28 21 52 50 52c37 0 61 -27 61 -72c0 -55 -42 -106 -112 -138z" />
    <glyph glyph-name="Tcaron" unicode="&#x164;" horiz-adv-x="681" 
d="M174 0v13c89 3 121 28 121 72v592h-49c-73 0 -140 -62 -198 -188l-13 1l6 207h602l6 -207l-13 -1c-56 118 -122 188 -198 188h-49v-592c0 -44 32 -69 121 -72v-13h-336zM331 770l-121 183h16l115 -96l116 96h16l-129 -183h-13z" />
    <glyph glyph-name="tcaron" unicode="&#x165;" horiz-adv-x="333" 
d="M205 -11c-77 0 -107 44 -107 128v310h-95v10l95 23v127l84 36v-166h142v-30h-142v-319c0 -62 18 -83 57 -83c29 0 61 21 90 68l11 -8c-34 -62 -80 -96 -135 -96zM275 535l-2 109c0 17 -1 47 -1 61c0 44 24 55 41 55c21 0 38 -13 38 -41c0 -14 -5 -33 -14 -55l-52 -129
h-10z" />
    <glyph glyph-name="Tcommaaccent" unicode="&#x162;" horiz-adv-x="681" 
d="M174 0v13c89 3 121 28 121 72v592h-49c-73 0 -140 -62 -198 -188l-13 1l6 207h602l6 -207l-13 -1c-56 118 -122 188 -198 188h-49v-592c0 -44 32 -69 121 -72v-13h-336zM286 -270l-7 11c51 32 80 69 83 108l-4 1c-6 -5 -16 -8 -24 -8c-28 0 -47 21 -47 46
c0 28 21 52 50 52c37 0 61 -27 61 -72c0 -55 -42 -106 -112 -138z" />
    <glyph glyph-name="tcommaaccent" unicode="&#x163;" horiz-adv-x="333" 
d="M205 -11c-77 0 -107 44 -107 128v310h-95v10l95 23v127l84 36v-166h142v-30h-142v-319c0 -62 18 -83 57 -83c29 0 61 21 90 68l11 -8c-34 -62 -80 -96 -135 -96zM134 -270l-7 11c51 32 80 69 83 108l-4 1c-6 -5 -16 -8 -24 -8c-28 0 -47 21 -47 46c0 28 21 52 50 52
c37 0 61 -27 61 -72c0 -55 -42 -106 -112 -138z" />
    <glyph glyph-name="Thorn" unicode="&#xde;" horiz-adv-x="639" 
d="M35 0v13c89 3 113 28 113 72v529c0 43 -24 68 -113 71v12h328v-13c-95 -3 -120 -26 -120 -72v-62h78c212 0 279 -85 279 -189c0 -97 -70 -197 -286 -197h-71v-79c0 -46 25 -69 120 -72v-13h-328zM243 184h78c144 0 171 65 171 175c0 95 -30 171 -168 171h-81v-346z" />
    <glyph glyph-name="thorn" unicode="&#xfe;" horiz-adv-x="524" 
d="M153 717v-324c39 44 90 74 152 74c115 0 181 -99 181 -230c0 -140 -83 -245 -212 -245c-51 0 -84 12 -121 32v-164c0 -34 20 -40 95 -40v-12h-252v12c58 1 73 6 73 40v790c0 36 -10 49 -84 51v12zM264 10c87 0 129 80 129 222c0 109 -46 199 -129 199
c-45 0 -79 -22 -111 -60v-277c20 -60 60 -84 111 -84z" />
    <glyph glyph-name="Uacute" unicode="&#xda;" horiz-adv-x="777" 
d="M397 -17c-165 0 -262 75 -262 207v423c0 43 -24 69 -113 72v12h313v-12c-94 -3 -105 -27 -105 -72v-396c0 -156 100 -201 213 -201c51 0 97 15 129 47c35 35 56 85 56 159v311c0 97 -31 137 -132 152v12h269v-12c-94 -17 -113 -55 -113 -152v-322
c0 -133 -80 -228 -255 -228zM386 770l56 128c19 44 33 68 59 68c22 0 38 -17 38 -39c0 -18 -17 -40 -43 -65l-99 -92h-11z" />
    <glyph glyph-name="uacute" unicode="&#xfa;" horiz-adv-x="539" 
d="M205 -7c-74 0 -121 45 -121 135v268c0 30 -16 48 -74 49v12l158 4v-303c0 -80 22 -122 88 -122c49 0 90 38 118 98v262c0 30 -16 48 -74 49v12l158 4v-413c0 -24 15 -36 73 -37v-11h-155v108c-46 -76 -103 -115 -171 -115zM214 530l56 128c19 44 33 68 59 68
c22 0 38 -17 38 -39c0 -18 -17 -40 -43 -65l-99 -92h-11z" />
    <glyph glyph-name="Ubreve" unicode="&#x16c;" horiz-adv-x="777" 
d="M397 -17c-165 0 -262 75 -262 207v423c0 43 -24 69 -113 72v12h313v-12c-94 -3 -105 -27 -105 -72v-396c0 -156 100 -201 213 -201c51 0 97 15 129 47c35 35 56 85 56 159v311c0 97 -31 137 -132 152v12h269v-12c-94 -17 -113 -55 -113 -152v-322
c0 -133 -80 -228 -255 -228zM409 775c-75 0 -126 68 -134 153h15c18 -60 56 -89 119 -89s99 29 117 89h15c-7 -85 -57 -153 -132 -153z" />
    <glyph glyph-name="ubreve" unicode="&#x16d;" horiz-adv-x="539" 
d="M205 -7c-74 0 -121 45 -121 135v268c0 30 -16 48 -74 49v12l158 4v-303c0 -80 22 -122 88 -122c49 0 90 38 118 98v262c0 30 -16 48 -74 49v12l158 4v-413c0 -24 15 -36 73 -37v-11h-155v108c-46 -76 -103 -115 -171 -115zM270 535c-75 0 -126 68 -134 153h15
c18 -60 56 -89 119 -89s99 29 117 89h15c-7 -85 -57 -153 -132 -153z" />
    <glyph glyph-name="Ucircumflex" unicode="&#xdb;" horiz-adv-x="777" 
d="M397 -17c-165 0 -262 75 -262 207v423c0 43 -24 69 -113 72v12h313v-12c-94 -3 -105 -27 -105 -72v-396c0 -156 100 -201 213 -201c51 0 97 15 129 47c35 35 56 85 56 159v311c0 97 -31 137 -132 152v12h269v-12c-94 -17 -113 -55 -113 -152v-322
c0 -133 -80 -228 -255 -228zM294 770l129 183h13l121 -183h-16l-115 96l-116 -96h-16z" />
    <glyph glyph-name="ucircumflex" unicode="&#xfb;" horiz-adv-x="539" 
d="M205 -7c-74 0 -121 45 -121 135v268c0 30 -16 48 -74 49v12l158 4v-303c0 -80 22 -122 88 -122c49 0 90 38 118 98v262c0 30 -16 48 -74 49v12l158 4v-413c0 -24 15 -36 73 -37v-11h-155v108c-46 -76 -103 -115 -171 -115zM125 530l129 183h13l121 -183h-16l-115 96
l-116 -96h-16z" />
    <glyph glyph-name="Udieresis" unicode="&#xdc;" horiz-adv-x="777" 
d="M397 -17c-165 0 -262 75 -262 207v423c0 43 -24 69 -113 72v12h313v-12c-94 -3 -105 -27 -105 -72v-396c0 -156 100 -201 213 -201c51 0 97 15 129 47c35 35 56 85 56 159v311c0 97 -31 137 -132 152v12h269v-12c-94 -17 -113 -55 -113 -152v-322
c0 -133 -80 -228 -255 -228zM497 775c-31 0 -53 24 -53 55s22 56 53 56s53 -25 53 -56s-22 -55 -53 -55zM325 775c-31 0 -53 24 -53 55s22 56 53 56s53 -25 53 -56s-22 -55 -53 -55z" />
    <glyph glyph-name="udieresis" unicode="&#xfc;" horiz-adv-x="539" 
d="M205 -7c-74 0 -121 45 -121 135v268c0 30 -16 48 -74 49v12l158 4v-303c0 -80 22 -122 88 -122c49 0 90 38 118 98v262c0 30 -16 48 -74 49v12l158 4v-413c0 -24 15 -36 73 -37v-11h-155v108c-46 -76 -103 -115 -171 -115zM342 535c-31 0 -53 24 -53 55s22 56 53 56
s53 -25 53 -56s-22 -55 -53 -55zM170 535c-31 0 -53 24 -53 55s22 56 53 56s53 -25 53 -56s-22 -55 -53 -55z" />
    <glyph glyph-name="Ugrave" unicode="&#xd9;" horiz-adv-x="777" 
d="M397 -17c-165 0 -262 75 -262 207v423c0 43 -24 69 -113 72v12h313v-12c-94 -3 -105 -27 -105 -72v-396c0 -156 100 -201 213 -201c51 0 97 15 129 47c35 35 56 85 56 159v311c0 97 -31 137 -132 152v12h269v-12c-94 -17 -113 -55 -113 -152v-322
c0 -133 -80 -228 -255 -228zM439 770l-99 92c-27 25 -43 47 -43 65c0 22 16 39 38 39c26 0 40 -24 59 -68l56 -128h-11z" />
    <glyph glyph-name="ugrave" unicode="&#xf9;" horiz-adv-x="539" 
d="M205 -7c-74 0 -121 45 -121 135v268c0 30 -16 48 -74 49v12l158 4v-303c0 -80 22 -122 88 -122c49 0 90 38 118 98v262c0 30 -16 48 -74 49v12l158 4v-413c0 -24 15 -36 73 -37v-11h-155v108c-46 -76 -103 -115 -171 -115zM288 530l-99 92c-27 25 -43 47 -43 65
c0 22 16 39 38 39c26 0 40 -24 59 -68l56 -128h-11z" />
    <glyph glyph-name="Uhungarumlaut" unicode="&#x170;" horiz-adv-x="777" 
d="M397 -17c-165 0 -262 75 -262 207v423c0 43 -24 69 -113 72v12h313v-12c-94 -3 -105 -27 -105 -72v-396c0 -156 100 -201 213 -201c51 0 97 15 129 47c35 35 56 85 56 159v311c0 97 -31 137 -132 152v12h269v-12c-94 -17 -113 -55 -113 -152v-322
c0 -133 -80 -228 -255 -228zM452 770l60 128c21 44 36 68 62 68c22 0 36 -15 36 -37c0 -18 -16 -39 -46 -67l-101 -92h-11zM302 770l60 128c21 44 36 68 62 68c22 0 36 -15 36 -37c0 -18 -19 -42 -46 -67l-101 -92h-11z" />
    <glyph glyph-name="uhungarumlaut" unicode="&#x171;" horiz-adv-x="539" 
d="M205 -7c-74 0 -121 45 -121 135v268c0 30 -16 48 -74 49v12l158 4v-303c0 -80 22 -122 88 -122c49 0 90 38 118 98v262c0 30 -16 48 -74 49v12l158 4v-413c0 -24 15 -36 73 -37v-11h-155v108c-46 -76 -103 -115 -171 -115zM313 530l60 128c21 44 36 68 62 68
c22 0 36 -15 36 -37c0 -18 -16 -39 -46 -67l-101 -92h-11zM163 530l60 128c21 44 36 68 62 68c22 0 36 -15 36 -37c0 -18 -19 -42 -46 -67l-101 -92h-11z" />
    <glyph glyph-name="Umacron" unicode="&#x16a;" horiz-adv-x="777" 
d="M397 -17c-165 0 -262 75 -262 207v423c0 43 -24 69 -113 72v12h313v-12c-94 -3 -105 -27 -105 -72v-396c0 -156 100 -201 213 -201c51 0 97 15 129 47c35 35 56 85 56 159v311c0 97 -31 137 -132 152v12h269v-12c-94 -17 -113 -55 -113 -152v-322
c0 -133 -80 -228 -255 -228zM271 800v39h275v-39h-275z" />
    <glyph glyph-name="umacron" unicode="&#x16b;" horiz-adv-x="539" 
d="M205 -7c-74 0 -121 45 -121 135v268c0 30 -16 48 -74 49v12l158 4v-303c0 -80 22 -122 88 -122c49 0 90 38 118 98v262c0 30 -16 48 -74 49v12l158 4v-413c0 -24 15 -36 73 -37v-11h-155v108c-46 -76 -103 -115 -171 -115zM132 560v39h275v-39h-275z" />
    <glyph glyph-name="Uogonek" unicode="&#x172;" horiz-adv-x="777" 
d="M405 -243c-55 0 -97 32 -97 81c0 46 25 79 93 137l9 8h-13c-165 0 -262 75 -262 207v423c0 43 -24 69 -113 72v12h313v-12c-94 -3 -105 -27 -105 -72v-396c0 -156 100 -201 213 -201c51 0 97 15 129 47c35 35 56 85 56 159v311c0 97 -31 137 -132 152v12h269v-12
c-94 -17 -113 -55 -113 -152v-322c0 -122 -68 -212 -214 -226l-10 -12c-34 -38 -53 -75 -53 -120s28 -65 61 -65c25 0 41 6 62 17l7 -14c-33 -22 -63 -34 -100 -34z" />
    <glyph glyph-name="uogonek" unicode="&#x173;" horiz-adv-x="539" 
d="M205 -7c-74 0 -121 45 -121 135v268c0 30 -16 48 -74 49v12l158 4v-303c0 -80 22 -122 88 -122c49 0 90 38 118 98v262c0 30 -16 48 -74 49v12l158 4v-413c0 -24 15 -36 73 -37v-11h-51l-24 -27c-34 -38 -53 -75 -53 -120s28 -65 61 -65c25 0 41 6 62 17l7 -14
c-33 -22 -63 -34 -100 -34c-55 0 -97 32 -97 81c0 46 25 79 93 137l29 25h-82v108c-46 -76 -103 -115 -171 -115z" />
    <glyph glyph-name="Uring" unicode="&#x16e;" horiz-adv-x="777" 
d="M397 -17c-165 0 -262 75 -262 207v423c0 43 -24 69 -113 72v12h313v-12c-94 -3 -105 -27 -105 -72v-396c0 -156 100 -201 213 -201c51 0 97 15 129 47c35 35 56 85 56 159v311c0 97 -31 137 -132 152v12h269v-12c-94 -17 -113 -55 -113 -152v-322
c0 -133 -80 -228 -255 -228zM408 775c-64 0 -105 47 -105 102s41 102 105 102c63 0 105 -47 105 -102s-41 -102 -105 -102zM408 791c37 0 59 33 59 86c0 63 -21 86 -59 86c-37 0 -59 -23 -59 -86c0 -53 22 -86 59 -86z" />
    <glyph glyph-name="uring" unicode="&#x16f;" horiz-adv-x="539" 
d="M205 -7c-74 0 -121 45 -121 135v268c0 30 -16 48 -74 49v12l158 4v-303c0 -80 22 -122 88 -122c49 0 90 38 118 98v262c0 30 -16 48 -74 49v12l158 4v-413c0 -24 15 -36 73 -37v-11h-155v108c-46 -76 -103 -115 -171 -115zM269 535c-64 0 -105 47 -105 102
s41 102 105 102c63 0 105 -47 105 -102s-41 -102 -105 -102zM269 551c37 0 59 33 59 86c0 63 -21 86 -59 86c-37 0 -59 -23 -59 -86c0 -53 22 -86 59 -86z" />
    <glyph glyph-name="Wacute" unicode="&#x1e82;" horiz-adv-x="1019" 
d="M506 525l-18 56c-27 85 -46 96 -116 104v12h287v-12c-84 -5 -97 -21 -76 -85l149 -463h4l126 399c33 103 13 133 -76 149v12h241v-12c-74 -12 -109 -57 -143 -163l-174 -543h-22l-170 513l-189 -513h-22l-189 602c-24 75 -43 92 -120 104v12h294v-12
c-84 -5 -91 -32 -75 -85l137 -466h4zM505 770l56 128c19 44 33 68 59 68c22 0 38 -17 38 -39c0 -18 -17 -40 -43 -65l-99 -92h-11z" />
    <glyph glyph-name="wacute" unicode="&#x1e83;" horiz-adv-x="714" 
d="M363 329l-14 38c-20 55 -38 76 -83 80v12h221v-12c-46 -3 -64 -18 -64 -44c0 -8 2 -16 5 -26l96 -271h4l74 219c11 32 18 57 18 72c0 32 -22 45 -66 50v12h176v-12c-36 -4 -71 -33 -92 -92l-132 -363h-18l-115 309l-131 -309h-16l-147 375c-21 53 -41 76 -90 80v12h227
v-12c-46 -3 -64 -19 -64 -43c0 -7 2 -16 6 -27l105 -273h4zM368 530l56 128c19 44 33 68 59 68c22 0 38 -17 38 -39c0 -18 -17 -40 -43 -65l-99 -92h-11z" />
    <glyph glyph-name="Wcircumflex" unicode="&#x174;" horiz-adv-x="1019" 
d="M506 525l-18 56c-27 85 -46 96 -116 104v12h287v-12c-84 -5 -97 -21 -76 -85l149 -463h4l126 399c33 103 13 133 -76 149v12h241v-12c-74 -12 -109 -57 -143 -163l-174 -543h-22l-170 513l-189 -513h-22l-189 602c-24 75 -43 92 -120 104v12h294v-12
c-84 -5 -91 -32 -75 -85l137 -466h4zM386 770l129 183h13l121 -183h-16l-115 96l-116 -96h-16z" />
    <glyph glyph-name="wcircumflex" unicode="&#x175;" horiz-adv-x="714" 
d="M363 329l-14 38c-20 55 -38 76 -83 80v12h221v-12c-46 -3 -64 -18 -64 -44c0 -8 2 -16 5 -26l96 -271h4l74 219c11 32 18 57 18 72c0 32 -22 45 -66 50v12h176v-12c-36 -4 -71 -33 -92 -92l-132 -363h-18l-115 309l-131 -309h-16l-147 375c-21 53 -41 76 -90 80v12h227
v-12c-46 -3 -64 -19 -64 -43c0 -7 2 -16 6 -27l105 -273h4zM244 530l129 183h13l121 -183h-16l-115 96l-116 -96h-16z" />
    <glyph glyph-name="Wdieresis" unicode="&#x1e84;" horiz-adv-x="1019" 
d="M506 525l-18 56c-27 85 -46 96 -116 104v12h287v-12c-84 -5 -97 -21 -76 -85l149 -463h4l126 399c33 103 13 133 -76 149v12h241v-12c-74 -12 -109 -57 -143 -163l-174 -543h-22l-170 513l-189 -513h-22l-189 602c-24 75 -43 92 -120 104v12h294v-12
c-84 -5 -91 -32 -75 -85l137 -466h4zM603 775c-31 0 -53 24 -53 55s22 56 53 56s53 -25 53 -56s-22 -55 -53 -55zM431 775c-31 0 -53 24 -53 55s22 56 53 56s53 -25 53 -56s-22 -55 -53 -55z" />
    <glyph glyph-name="wdieresis" unicode="&#x1e85;" horiz-adv-x="714" 
d="M363 329l-14 38c-20 55 -38 76 -83 80v12h221v-12c-46 -3 -64 -18 -64 -44c0 -8 2 -16 5 -26l96 -271h4l74 219c11 32 18 57 18 72c0 32 -22 45 -66 50v12h176v-12c-36 -4 -71 -33 -92 -92l-132 -363h-18l-115 309l-131 -309h-16l-147 375c-21 53 -41 76 -90 80v12h227
v-12c-46 -3 -64 -19 -64 -43c0 -7 2 -16 6 -27l105 -273h4zM462 535c-31 0 -53 24 -53 55s22 56 53 56s53 -25 53 -56s-22 -55 -53 -55zM290 535c-31 0 -53 24 -53 55s22 56 53 56s53 -25 53 -56s-22 -55 -53 -55z" />
    <glyph glyph-name="Wgrave" unicode="&#x1e80;" horiz-adv-x="1019" 
d="M506 525l-18 56c-27 85 -46 96 -116 104v12h287v-12c-84 -5 -97 -21 -76 -85l149 -463h4l126 399c33 103 13 133 -76 149v12h241v-12c-74 -12 -109 -57 -143 -163l-174 -543h-22l-170 513l-189 -513h-22l-189 602c-24 75 -43 92 -120 104v12h294v-12
c-84 -5 -91 -32 -75 -85l137 -466h4zM524 770l-99 92c-27 25 -43 47 -43 65c0 22 16 39 38 39c26 0 40 -24 59 -68l56 -128h-11z" />
    <glyph glyph-name="wgrave" unicode="&#x1e81;" horiz-adv-x="714" 
d="M363 329l-14 38c-20 55 -38 76 -83 80v12h221v-12c-46 -3 -64 -18 -64 -44c0 -8 2 -16 5 -26l96 -271h4l74 219c11 32 18 57 18 72c0 32 -22 45 -66 50v12h176v-12c-36 -4 -71 -33 -92 -92l-132 -363h-18l-115 309l-131 -309h-16l-147 375c-21 53 -41 76 -90 80v12h227
v-12c-46 -3 -64 -19 -64 -43c0 -7 2 -16 6 -27l105 -273h4zM372 530l-99 92c-27 25 -43 47 -43 65c0 22 16 39 38 39c26 0 40 -24 59 -68l56 -128h-11z" />
    <glyph glyph-name="Yacute" unicode="&#xdd;" horiz-adv-x="667" 
d="M371 336l131 227c48 82 48 107 -50 122v12h231v-12c-67 -12 -99 -32 -156 -129l-143 -242v-229c0 -44 21 -69 116 -72v-13h-326v13c95 3 116 28 116 72v209l-178 308c-30 52 -54 71 -114 83v12h300v-12c-99 -6 -104 -34 -74 -87zM341 770l56 128c19 44 33 68 59 68
c22 0 38 -17 38 -39c0 -18 -17 -40 -43 -65l-99 -92h-11z" />
    <glyph glyph-name="yacute" unicode="&#xfd;" horiz-adv-x="481" 
d="M241 -5l-164 372c-24 55 -44 75 -93 80v12h229v-12c-64 -4 -67 -29 -51 -68l119 -289l92 235c34 88 22 113 -51 122v12h173v-12c-31 -4 -62 -36 -85 -92l-157 -384c-56 -136 -100 -172 -156 -172c-42 0 -69 32 -69 65c0 29 17 56 51 56c28 0 50 -24 50 -54
c0 -18 -7 -35 -20 -46c35 6 73 29 126 161zM251 530l56 128c19 44 33 68 59 68c22 0 38 -17 38 -39c0 -18 -17 -40 -43 -65l-99 -92h-11z" />
    <glyph glyph-name="Ycircumflex" unicode="&#x176;" horiz-adv-x="667" 
d="M371 336l131 227c48 82 48 107 -50 122v12h231v-12c-67 -12 -99 -32 -156 -129l-143 -242v-229c0 -44 21 -69 116 -72v-13h-326v13c95 3 116 28 116 72v209l-178 308c-30 52 -54 71 -114 83v12h300v-12c-99 -6 -104 -34 -74 -87zM222 770l129 183h13l121 -183h-16
l-115 96l-116 -96h-16z" />
    <glyph glyph-name="ycircumflex" unicode="&#x177;" horiz-adv-x="481" 
d="M241 -5l-164 372c-24 55 -44 75 -93 80v12h229v-12c-64 -4 -67 -29 -51 -68l119 -289l92 235c34 88 22 113 -51 122v12h173v-12c-31 -4 -62 -36 -85 -92l-157 -384c-56 -136 -100 -172 -156 -172c-42 0 -69 32 -69 65c0 29 17 56 51 56c28 0 50 -24 50 -54
c0 -18 -7 -35 -20 -46c35 6 73 29 126 161zM129 530l129 183h13l121 -183h-16l-115 96l-116 -96h-16z" />
    <glyph glyph-name="Ydieresis" unicode="&#x178;" horiz-adv-x="667" 
d="M371 336l131 227c48 82 48 107 -50 122v12h231v-12c-67 -12 -99 -32 -156 -129l-143 -242v-229c0 -44 21 -69 116 -72v-13h-326v13c95 3 116 28 116 72v209l-178 308c-30 52 -54 71 -114 83v12h300v-12c-99 -6 -104 -34 -74 -87zM464 775c-31 0 -53 24 -53 55
s22 56 53 56s53 -25 53 -56s-22 -55 -53 -55zM292 775c-31 0 -53 24 -53 55s22 56 53 56s53 -25 53 -56s-22 -55 -53 -55z" />
    <glyph glyph-name="ydieresis" unicode="&#xff;" horiz-adv-x="481" 
d="M241 -5l-164 372c-24 55 -44 75 -93 80v12h229v-12c-64 -4 -67 -29 -51 -68l119 -289l92 235c34 88 22 113 -51 122v12h173v-12c-31 -4 -62 -36 -85 -92l-157 -384c-56 -136 -100 -172 -156 -172c-42 0 -69 32 -69 65c0 29 17 56 51 56c28 0 50 -24 50 -54
c0 -18 -7 -35 -20 -46c35 6 73 29 126 161zM355 535c-31 0 -53 24 -53 55s22 56 53 56s53 -25 53 -56s-22 -55 -53 -55zM183 535c-31 0 -53 24 -53 55s22 56 53 56s53 -25 53 -56s-22 -55 -53 -55z" />
    <glyph glyph-name="Ygrave" unicode="&#x1ef2;" horiz-adv-x="667" 
d="M371 336l131 227c48 82 48 107 -50 122v12h231v-12c-67 -12 -99 -32 -156 -129l-143 -242v-229c0 -44 21 -69 116 -72v-13h-326v13c95 3 116 28 116 72v209l-178 308c-30 52 -54 71 -114 83v12h300v-12c-99 -6 -104 -34 -74 -87zM354 770l-99 92c-27 25 -43 47 -43 65
c0 22 16 39 38 39c26 0 40 -24 59 -68l56 -128h-11z" />
    <glyph glyph-name="ygrave" unicode="&#x1ef3;" horiz-adv-x="481" 
d="M241 -5l-164 372c-24 55 -44 75 -93 80v12h229v-12c-64 -4 -67 -29 -51 -68l119 -289l92 235c34 88 22 113 -51 122v12h173v-12c-31 -4 -62 -36 -85 -92l-157 -384c-56 -136 -100 -172 -156 -172c-42 0 -69 32 -69 65c0 29 17 56 51 56c28 0 50 -24 50 -54
c0 -18 -7 -35 -20 -46c35 6 73 29 126 161zM245 530l-99 92c-27 25 -43 47 -43 65c0 22 16 39 38 39c26 0 40 -24 59 -68l56 -128h-11z" />
    <glyph glyph-name="Zacute" unicode="&#x179;" horiz-adv-x="638" 
d="M38 0l-1 10l438 667h-195c-70 0 -128 -50 -204 -184l-13 2l20 202h513l1 -10l-438 -667h226c80 0 119 51 203 192l13 -2l-16 -210h-547zM297 770l56 128c19 44 33 68 59 68c22 0 38 -17 38 -39c0 -18 -17 -40 -43 -65l-99 -92h-11z" />
    <glyph glyph-name="zacute" unicode="&#x17a;" horiz-adv-x="457" 
d="M34 0l-2 12l296 427h-109c-55 0 -90 -33 -151 -133l-14 2l16 151h357l2 -12l-295 -427h120c59 0 99 40 157 140l14 -2l-16 -158h-375zM219 530l56 128c19 44 33 68 59 68c22 0 38 -17 38 -39c0 -18 -17 -40 -43 -65l-99 -92h-11z" />
    <glyph glyph-name="Zcaron" unicode="&#x17d;" horiz-adv-x="638" 
d="M38 0l-1 10l438 667h-195c-70 0 -128 -50 -204 -184l-13 2l20 202h513l1 -10l-438 -667h226c80 0 119 51 203 192l13 -2l-16 -210h-547zM324 770l-121 183h16l115 -96l116 96h16l-129 -183h-13z" />
    <glyph glyph-name="zcaron" unicode="&#x17e;" horiz-adv-x="457" 
d="M34 0l-2 12l296 427h-109c-55 0 -90 -33 -151 -133l-14 2l16 151h357l2 -12l-295 -427h120c59 0 99 40 157 140l14 -2l-16 -158h-375zM235 530l-121 183h16l115 -96l116 96h16l-129 -183h-13z" />
    <glyph glyph-name="Zdotaccent" unicode="&#x17b;" horiz-adv-x="638" 
d="M38 0l-1 10l438 667h-195c-70 0 -128 -50 -204 -184l-13 2l20 202h513l1 -10l-438 -667h226c80 0 119 51 203 192l13 -2l-16 -210h-547zM329 775c-34 0 -55 23 -55 57c0 32 23 58 55 58c34 0 55 -24 55 -58c0 -32 -23 -57 -55 -57z" />
    <glyph glyph-name="zdotaccent" unicode="&#x17c;" horiz-adv-x="457" 
d="M34 0l-2 12l296 427h-109c-55 0 -90 -33 -151 -133l-14 2l16 151h357l2 -12l-295 -427h120c59 0 99 40 157 140l14 -2l-16 -158h-375zM245 535c-34 0 -55 23 -55 57c0 32 23 58 55 58c34 0 55 -24 55 -58c0 -32 -23 -57 -55 -57z" />
    <glyph glyph-name="schwa" unicode="&#x259;" horiz-adv-x="473" 
d="M221 467c129 0 217 -101 217 -233c0 -137 -102 -242 -217 -242c-131 0 -196 94 -188 204h311c0 9 1 18 1 28v1c0 112 -53 203 -161 203c-65 0 -101 -33 -143 -87l-11 8c37 62 90 118 191 118zM228 10c64 0 107 55 115 170h-216c-9 -108 18 -170 101 -170z" />
    <glyph glyph-name="germandbls" unicode="&#xdf;" horiz-adv-x="559" 
d="M392 -8c-75 0 -140 38 -140 93c0 28 17 52 48 52c29 0 45 -23 45 -47c0 -19 -14 -35 -33 -47c13 -19 41 -33 83 -33c52 0 82 32 82 84c0 53 -46 83 -95 110c-58 32 -105 63 -105 130c0 32 21 61 62 102c45 45 54 73 54 137c0 93 -43 133 -104 133
c-74 0 -101 -41 -101 -142v-564h-157v12c58 1 73 6 73 40v375h-85v10l85 23v43c0 131 66 220 195 220c118 0 182 -60 182 -137c0 -46 -31 -84 -108 -146c-29 -23 -38 -40 -38 -64c0 -47 46 -71 94 -100c54 -32 111 -67 111 -139c0 -67 -54 -145 -148 -145z" />
    <glyph glyph-name="zero" unicode="0" horiz-adv-x="597" 
d="M298 -14c-146 0 -258 151 -258 342s118 346 259 346c146 0 258 -151 258 -342c0 -190 -118 -346 -259 -346zM303 4c102 0 147 85 147 326s-53 326 -156 326c-102 0 -147 -85 -147 -326s53 -326 156 -326z" />
    <glyph glyph-name="one" unicode="1" horiz-adv-x="418" 
d="M39 0v13c95 1 131 16 131 66v478c0 60 -22 77 -133 79v12l224 19v-588c0 -50 34 -65 131 -66v-13h-353z" />
    <glyph glyph-name="two" unicode="2" horiz-adv-x="549" 
d="M56 0v59l167 144c130 110 167 183 167 291c0 112 -50 162 -127 162c-48 0 -104 -29 -124 -67c35 -16 49 -37 49 -68c0 -34 -21 -68 -62 -68c-39 0 -65 30 -65 70c0 88 107 151 210 151c141 0 219 -81 219 -181c0 -85 -55 -151 -208 -274l-170 -137v-5h252
c79 0 100 17 128 107l13 -1l-3 -183h-446z" />
    <glyph glyph-name="three" unicode="3" horiz-adv-x="549" 
d="M261 -14c-111 0 -220 51 -220 129c0 36 24 68 64 68c38 0 57 -32 57 -63s-24 -51 -39 -60c17 -27 69 -56 138 -56c102 0 142 55 142 167c0 110 -55 157 -184 157h-27v22h12c142 0 182 52 182 163c0 100 -44 143 -126 143c-51 0 -98 -22 -122 -54c20 -7 43 -30 43 -61
s-19 -63 -57 -63c-37 0 -62 29 -62 63c0 75 93 133 207 133c147 0 218 -71 218 -158c0 -69 -61 -144 -203 -175v-3c137 -5 220 -61 220 -160c0 -103 -86 -192 -243 -192z" />
    <glyph glyph-name="four" unicode="4" horiz-adv-x="567" 
d="M556 215h-151v-137c0 -48 33 -64 98 -65v-13h-292v13c64 1 103 17 103 65v137h-289v46l327 399h53v-391h151v-54zM310 569l-243 -300h247v300h-4z" />
    <glyph glyph-name="five" unicode="5" horiz-adv-x="544" 
d="M263 -14c-108 0 -215 50 -215 131c0 37 25 69 65 69c38 0 57 -30 57 -59c0 -33 -30 -59 -45 -68c18 -25 70 -55 130 -55c99 0 142 61 142 194c0 125 -49 180 -137 180c-64 0 -106 -20 -149 -47l-19 9l13 320h374l-10 -84h-343l-10 -220c50 30 108 44 154 44
c161 0 231 -88 231 -197c0 -106 -93 -217 -238 -217z" />
    <glyph glyph-name="six" unicode="6" horiz-adv-x="561" 
d="M292 -14c-143 0 -245 118 -245 271c0 116 38 205 105 272c79 79 166 125 319 148v-12c-173 -45 -309 -144 -326 -346l4 -1c25 71 104 112 173 112c115 0 203 -79 203 -198c0 -132 -94 -246 -233 -246zM298 3c94 0 125 80 125 216c0 130 -37 189 -117 189
c-75 0 -157 -55 -157 -210c0 -129 70 -195 149 -195z" />
    <glyph glyph-name="seven" unicode="7" horiz-adv-x="512" 
d="M99 -10v6l345 590h-273c-69 0 -87 -22 -109 -123h-12l7 197h439v-11l-178 -392l-122 -267h-97z" />
    <glyph glyph-name="eight" unicode="8" horiz-adv-x="547" 
d="M45 156c0 69 65 136 156 171c-92 41 -135 95 -135 166c0 103 97 181 211 181s212 -67 212 -151c0 -75 -51 -120 -147 -163c124 -49 166 -109 166 -186c0 -107 -118 -188 -226 -188c-143 0 -237 73 -237 170zM243 310c-7 2 -13 4 -19 7c-55 -29 -95 -86 -95 -156
c0 -103 55 -157 142 -157c82 0 147 32 147 137c0 76 -47 123 -175 169zM152 526c0 -73 47 -115 163 -156l6 -3c64 34 84 82 84 145c0 93 -51 143 -129 143c-69 0 -124 -34 -124 -129z" />
    <glyph glyph-name="nine" unicode="9" horiz-adv-x="561" 
d="M89 -17v12c167 40 309 144 326 346l-4 1c-25 -71 -100 -112 -163 -112c-115 0 -213 78 -213 210c0 119 104 234 243 234c143 0 235 -118 235 -271c0 -116 -38 -205 -105 -272c-79 -79 -166 -125 -319 -148zM269 252c61 0 142 66 142 208c0 131 -60 197 -139 197
c-94 0 -135 -81 -135 -212c0 -135 47 -193 132 -193z" />
    <glyph glyph-name="period" unicode="." horiz-adv-x="217" 
d="M109 -16c-33 0 -59 26 -59 58s26 58 59 58c32 0 58 -26 58 -58s-26 -58 -58 -58z" />
    <glyph glyph-name="comma" unicode="," horiz-adv-x="217" 
d="M25 -146l-7 12c68 33 109 88 114 132l-4 2c-7 -6 -18 -9 -27 -9c-31 0 -52 23 -52 51c0 31 23 58 55 58c42 0 68 -30 68 -75c0 -71 -47 -127 -147 -171z" />
    <glyph glyph-name="colon" unicode=":" horiz-adv-x="217" 
d="M109 285c-33 0 -59 26 -59 58s26 58 59 58c32 0 58 -26 58 -58s-26 -58 -58 -58zM109 -16c-33 0 -59 26 -59 58s26 58 59 58c32 0 58 -26 58 -58s-26 -58 -58 -58z" />
    <glyph glyph-name="semicolon" unicode=";" horiz-adv-x="217" 
d="M109 285c-33 0 -59 26 -59 58s26 58 59 58c32 0 58 -26 58 -58s-26 -58 -58 -58zM25 -146l-7 12c68 33 109 88 114 132l-4 2c-7 -6 -18 -9 -27 -9c-31 0 -52 23 -52 51c0 31 23 58 55 58c42 0 68 -30 68 -75c0 -71 -47 -127 -147 -171z" />
    <glyph glyph-name="ellipsis" unicode="&#x2026;" horiz-adv-x="641" 
d="M533 -16c-33 0 -59 26 -59 58s26 58 59 58c32 0 58 -26 58 -58s-26 -58 -58 -58zM321 -16c-33 0 -59 26 -59 58s26 58 59 58c32 0 58 -26 58 -58s-26 -58 -58 -58zM109 -16c-33 0 -59 26 -59 58s26 58 59 58c32 0 58 -26 58 -58s-26 -58 -58 -58z" />
    <glyph glyph-name="periodcentered" unicode="&#xb7;" horiz-adv-x="217" 
d="M109 270c-33 0 -59 26 -59 58s26 58 59 58c32 0 58 -26 58 -58s-26 -58 -58 -58z" />
    <glyph glyph-name="bullet" unicode="&#x2022;" horiz-adv-x="470" 
d="M235 201c-70 0 -128 57 -128 127s58 128 128 128s128 -58 128 -128s-58 -127 -128 -127z" />
    <glyph glyph-name="ampersand" unicode="&#x26;" 
d="M330 384c70 49 90 90 90 159c0 67 -28 107 -87 107c-58 0 -96 -44 -96 -104c0 -55 42 -109 93 -162zM258 339c-70 -38 -105 -86 -105 -171c0 -80 60 -135 142 -135c64 0 104 26 149 80c-42 74 -114 162 -186 226zM496 188c48 98 104 176 165 176c48 0 71 -27 71 -66
c0 -32 -21 -57 -55 -57c-28 0 -50 21 -50 47c0 11 3 21 8 29l-3 3c-44 -19 -85 -69 -124 -147c52 -95 90 -137 141 -137c19 0 38 6 69 31l8 -9c-52 -50 -93 -75 -135 -75c-68 0 -97 41 -138 114c-49 -67 -114 -114 -201 -114c-133 0 -193 86 -193 175c0 100 81 155 188 192
c-44 50 -81 91 -81 153c0 95 67 162 178 162c90 0 153 -54 153 -125c0 -68 -47 -110 -154 -168c61 -54 118 -121 153 -184z" />
    <glyph glyph-name="exclam" unicode="!" horiz-adv-x="276" 
d="M130 186c-11 213 -47 374 -47 467c0 49 20 72 55 72c34 0 55 -23 55 -72c0 -93 -36 -254 -48 -467h-15zM138 -16c-33 0 -59 26 -59 58s26 58 59 58c32 0 58 -26 58 -58s-26 -58 -58 -58z" />
    <glyph glyph-name="exclamdown" unicode="&#xa1;" horiz-adv-x="276" 
d="M136 609c-32 0 -58 26 -58 58s26 58 58 58c33 0 59 -26 59 -58s-26 -58 -59 -58zM136 -16c-34 0 -55 23 -55 72c0 93 36 254 48 467h15c11 -213 47 -374 47 -467c0 -49 -20 -72 -55 -72z" />
    <glyph glyph-name="question" unicode="?" horiz-adv-x="460" 
d="M179 186v168c133 31 165 85 165 194c0 110 -49 159 -132 159c-56 0 -100 -29 -120 -62c35 -10 53 -35 53 -65c0 -32 -21 -65 -62 -65c-39 0 -66 32 -66 69c0 83 93 141 207 141c136 0 218 -85 218 -176c0 -105 -87 -173 -236 -208v-155h-27zM196 -16c-33 0 -59 26 -59 58
s26 58 59 58c32 0 58 -26 58 -58s-26 -58 -58 -58z" />
    <glyph glyph-name="questiondown" unicode="&#xbf;" horiz-adv-x="460" 
d="M263 608c-32 0 -58 26 -58 58s26 58 58 58c33 0 59 -26 59 -58s-26 -58 -59 -58zM235 -17c-136 0 -218 85 -218 176c0 105 87 173 236 208v155h27v-168c-133 -31 -165 -85 -165 -194c0 -110 49 -159 132 -159c56 0 100 29 120 62c-35 10 -53 35 -53 65c0 32 21 65 62 65
c39 0 66 -32 66 -69c0 -83 -93 -141 -207 -141z" />
    <glyph glyph-name="quotedblleft" unicode="&#x201c;" horiz-adv-x="389" 
d="M283 465c-42 0 -68 30 -68 75c0 71 47 127 147 171l7 -12c-68 -33 -109 -88 -114 -132l4 -2c7 6 18 9 27 9c31 0 52 -23 52 -51c0 -31 -23 -58 -55 -58zM111 465c-42 0 -68 30 -68 75c0 71 47 127 147 171l7 -12c-68 -33 -109 -88 -114 -132l4 -2c7 6 18 9 27 9
c31 0 52 -23 52 -51c0 -31 -23 -58 -55 -58z" />
    <glyph glyph-name="quotedblright" unicode="&#x201d;" horiz-adv-x="389" 
d="M197 463l-7 12c68 33 109 88 114 132l-4 2c-7 -6 -18 -9 -27 -9c-31 0 -52 23 -52 51c0 31 23 58 55 58c42 0 68 -30 68 -75c0 -71 -47 -127 -147 -171zM25 463l-7 12c68 33 109 88 114 132l-4 2c-7 -6 -18 -9 -27 -9c-31 0 -52 23 -52 51c0 31 23 58 55 58
c42 0 68 -30 68 -75c0 -71 -47 -127 -147 -171z" />
    <glyph glyph-name="quoteleft" unicode="&#x2018;" horiz-adv-x="217" 
d="M111 465c-42 0 -68 30 -68 75c0 71 47 127 147 171l7 -12c-68 -33 -109 -88 -114 -132l4 -2c7 6 18 9 27 9c31 0 52 -23 52 -51c0 -31 -23 -58 -55 -58z" />
    <glyph glyph-name="quoteright" unicode="&#x2019;" horiz-adv-x="217" 
d="M25 463l-7 12c68 33 109 88 114 132l-4 2c-7 -6 -18 -9 -27 -9c-31 0 -52 23 -52 51c0 31 23 58 55 58c42 0 68 -30 68 -75c0 -71 -47 -127 -147 -171z" />
    <glyph glyph-name="quotedblbase" unicode="&#x201e;" horiz-adv-x="389" 
d="M197 -146l-7 12c68 33 109 88 114 132l-4 2c-7 -6 -18 -9 -27 -9c-31 0 -52 23 -52 51c0 31 23 58 55 58c42 0 68 -30 68 -75c0 -71 -47 -127 -147 -171zM25 -146l-7 12c68 33 109 88 114 132l-4 2c-7 -6 -18 -9 -27 -9c-31 0 -52 23 -52 51c0 31 23 58 55 58
c42 0 68 -30 68 -75c0 -71 -47 -127 -147 -171z" />
    <glyph glyph-name="quotesinglbase" unicode="&#x201a;" horiz-adv-x="217" 
d="M25 -146l-7 12c68 33 109 88 114 132l-4 2c-7 -6 -18 -9 -27 -9c-31 0 -52 23 -52 51c0 31 23 58 55 58c42 0 68 -30 68 -75c0 -71 -47 -127 -147 -171z" />
    <glyph glyph-name="guillemotleft" unicode="&#xab;" horiz-adv-x="500" 
d="M438 29l-182 171c-14 13 -18 18 -18 24s4 11 18 24l182 171l12 -9l-137 -186l137 -187zM238 29l-182 171c-14 13 -18 18 -18 24s4 11 18 24l182 171l12 -9l-137 -186l137 -187z" />
    <glyph glyph-name="guillemotright" unicode="&#xbb;" horiz-adv-x="500" 
d="M262 29l-12 9l137 186l-137 187l12 8l182 -171c14 -13 18 -18 18 -24s-4 -11 -18 -24zM62 29l-12 9l137 186l-137 187l12 8l182 -171c14 -13 18 -18 18 -24s-4 -11 -18 -24z" />
    <glyph glyph-name="guilsinglleft" unicode="&#x2039;" horiz-adv-x="300" 
d="M238 29l-182 171c-14 13 -18 18 -18 24s4 11 18 24l182 171l12 -9l-137 -186l137 -187z" />
    <glyph glyph-name="guilsinglright" unicode="&#x203a;" horiz-adv-x="300" 
d="M62 29l-12 9l137 186l-137 187l12 8l182 -171c14 -13 18 -18 18 -24s-4 -11 -18 -24z" />
    <glyph glyph-name="hyphen" unicode="-" horiz-adv-x="366" 
d="M55 238v41h256v-41h-256z" />
    <glyph glyph-name="endash" unicode="&#x2013;" horiz-adv-x="540" 
d="M55 251v22h430v-22h-430z" />
    <glyph glyph-name="emdash" unicode="&#x2014;" horiz-adv-x="790" 
d="M55 251v22h680v-22h-680z" />
    <glyph glyph-name="underscore" unicode="_" horiz-adv-x="440" 
d="M-2 0v31h444v-31h-444z" />
    <glyph glyph-name="slash" unicode="/" horiz-adv-x="457" 
d="M8 -215l212 480l208 481h30l-212 -481l-208 -480h-30z" />
    <glyph glyph-name="backslash" unicode="\" horiz-adv-x="457" 
d="M418 -215l-208 480l-212 481h30l208 -481l212 -480h-30z" />
    <glyph glyph-name="bar" unicode="|" horiz-adv-x="306" 
d="M140 -215v961h26v-961h-26z" />
    <glyph glyph-name="brokenbar" unicode="&#xa6;" horiz-adv-x="306" 
d="M166 337h-26v409h26v-409zM140 194h26v-409h-26v409z" />
    <glyph glyph-name="parenleft" unicode="(" horiz-adv-x="383" 
d="M404 -166c-156 67 -326 217 -326 465s170 398 326 465l6 -12c-143 -77 -241 -191 -241 -453s98 -376 241 -453z" />
    <glyph glyph-name="parenright" unicode=")" horiz-adv-x="383" 
d="M-22 -166l-6 12c143 77 241 191 241 453s-98 376 -241 453l6 12c156 -67 326 -217 326 -465s-170 -398 -326 -465z" />
    <glyph glyph-name="bracketleft" unicode="[" horiz-adv-x="364" 
d="M102 -165v929h285v-21h-210v-887h210v-21h-285z" />
    <glyph glyph-name="bracketright" unicode="]" horiz-adv-x="364" 
d="M-23 -165v21h210v887h-210v21h285v-929h-285z" />
    <glyph glyph-name="braceleft" unicode="{" horiz-adv-x="411" 
d="M419 -159c-140 0 -236 71 -236 195c0 50 17 104 17 138c0 75 -44 119 -172 127v16c128 9 172 48 172 123c0 34 -17 84 -17 133c0 124 96 186 236 191v-13c-120 -10 -144 -72 -144 -166c0 -29 4 -70 4 -114c0 -101 -40 -142 -195 -160v-5c151 -14 195 -62 195 -163
c0 -44 -4 -90 -4 -119c0 -94 24 -160 144 -169v-14z" />
    <glyph glyph-name="braceright" unicode="}" horiz-adv-x="411" 
d="M-7 -159v14c120 9 144 75 144 169c0 29 -4 75 -4 119c0 101 44 149 195 163v5c-155 18 -195 59 -195 160c0 44 4 85 4 114c0 94 -24 156 -144 166v13c140 -5 236 -67 236 -191c0 -49 -17 -99 -17 -133c0 -75 44 -114 172 -123v-16c-128 -8 -172 -52 -172 -127
c0 -34 17 -88 17 -138c0 -124 -96 -195 -236 -195z" />
    <glyph glyph-name="at" unicode="@" horiz-adv-x="909" 
d="M469 -146c-236 0 -408 161 -408 407c0 244 177 423 427 423c198 0 360 -142 360 -338c0 -190 -112 -285 -221 -285c-87 0 -123 36 -126 87h-3c-35 -50 -74 -77 -124 -77c-70 0 -114 48 -114 132c0 122 110 273 230 273c46 0 68 -22 83 -55h1l17 48l73 9l-46 -138
l-42 -150c-20 -67 7 -106 64 -106c90 0 186 98 186 261c0 179 -146 320 -343 320c-237 0 -400 -179 -400 -399c0 -223 149 -392 391 -392c108 0 180 32 249 82l11 -14c-72 -53 -150 -88 -265 -88zM403 104c39 0 74 32 102 85l58 195c-9 50 -35 74 -69 74
c-93 0 -158 -174 -158 -251c0 -62 22 -103 67 -103z" />
    <glyph glyph-name="copyright" unicode="&#xa9;" horiz-adv-x="834" 
d="M417 -34c-216 0 -383 165 -383 383c0 215 167 382 383 382s383 -167 383 -382c0 -218 -167 -383 -383 -383zM417 -17c207 0 363 164 363 366s-156 365 -363 365s-363 -163 -363 -365s156 -366 363 -366zM423 149c-114 0 -190 72 -190 196c0 131 90 210 200 210
c40 0 77 -12 100 -27l20 28h12v-141h-14c-33 83 -67 124 -125 124c-65 0 -117 -64 -117 -183c0 -120 61 -180 130 -180c62 0 100 31 126 92l15 -7c-23 -55 -72 -112 -157 -112z" />
    <glyph glyph-name="published" unicode="&#x2117;" horiz-adv-x="834" 
d="M417 -34c-216 0 -383 165 -383 383c0 215 167 382 383 382s383 -167 383 -382c0 -218 -167 -383 -383 -383zM417 -17c207 0 363 164 363 366s-156 365 -363 365s-363 -163 -363 -365s156 -366 363 -366zM253 157v12c48 2 60 9 60 28v311c0 19 -12 27 -60 29v11h169
c116 0 165 -46 165 -112c0 -61 -50 -114 -169 -114h-38v-125c0 -20 12 -27 63 -29v-11h-190zM380 336h40c68 0 94 29 94 100c0 63 -28 98 -92 98h-42v-198z" />
    <glyph glyph-name="registered.alt" horiz-adv-x="834" 
d="M417 -34c-216 0 -383 165 -383 383c0 215 167 382 383 382s383 -167 383 -382c0 -218 -167 -383 -383 -383zM417 -17c207 0 363 164 363 366s-156 365 -363 365s-363 -163 -363 -365s156 -366 363 -366zM369 361h41c74 0 94 22 94 86c0 56 -22 87 -90 87h-45v-173z
M369 348v-151c0 -20 11 -26 58 -28v-12h-186v12c48 2 60 9 60 28v311c0 20 -12 27 -60 29v11h182c116 0 154 -44 154 -95c0 -48 -27 -83 -105 -96v-3c73 -2 88 -34 95 -83l7 -52c6 -41 15 -51 56 -51v-11c-9 -2 -22 -2 -29 -2c-81 0 -95 22 -99 70l-4 47
c-5 56 -23 76 -89 76h-40z" />
    <glyph glyph-name="registered" unicode="&#xae;" horiz-adv-x="385" 
d="M191 423c-87 0 -153 66 -153 155c0 90 66 153 153 153c90 0 155 -63 155 -153c0 -89 -65 -155 -155 -155zM191 435c84 0 140 62 140 143s-56 141 -140 141s-138 -60 -138 -141s54 -143 138 -143zM174 587h15c30 0 40 11 40 37c0 23 -12 33 -43 33h-12v-70zM174 579v-60
c0 -9 5 -13 25 -13v-7h-78v7c19 0 24 5 24 13v127c0 8 -5 11 -24 11v8h69c52 0 70 -19 70 -40s-12 -35 -46 -40v-2c30 -1 39 -14 41 -36l2 -22c1 -15 9 -19 26 -19v-7c-5 -1 -12 -2 -18 -2c-34 0 -37 9 -38 31l-1 18c-1 25 -11 33 -38 33h-14z" />
    <glyph glyph-name="servicemark" unicode="&#x2120;" horiz-adv-x="547" 
d="M50 547h11c18 -39 42 -62 72 -62c33 0 49 21 49 40c0 23 -19 32 -61 46c-32 11 -67 20 -67 63c0 42 36 68 79 68c18 0 36 -4 48 -8l8 9h9v-69h-10c-12 31 -32 55 -59 55c-24 0 -44 -15 -44 -38s21 -31 58 -43c31 -10 66 -21 66 -64c0 -33 -22 -72 -80 -72
c-18 0 -39 4 -54 9l-15 -10h-10v76zM234 477v9c30 3 35 14 35 45v126c0 16 -7 29 -35 30v10h86l58 -158h4l57 158h84v-10c-27 -2 -35 -5 -35 -16v-168c0 -11 8 -14 35 -15v-11h-104v11c24 1 30 4 30 15v166h-5l-69 -192h-12l-73 192h-5v-138c0 -31 5 -41 35 -45v-9h-86z" />
    <glyph glyph-name="trademark" unicode="&#x2122;" horiz-adv-x="584" 
d="M271 477v9c30 3 35 14 35 45v126c0 16 -7 29 -35 30v10h86l58 -158h4l57 158h84v-10c-27 -2 -35 -5 -35 -16v-168c0 -11 8 -14 35 -15v-11h-104v11c24 1 30 4 30 15v166h-5l-69 -192h-12l-73 192h-5v-138c0 -31 5 -41 35 -45v-9h-86zM91 477v11c30 0 38 4 38 15v182h-9
c-30 0 -43 -19 -59 -62h-11l3 74h191l3 -74h-11c-15 43 -29 62 -60 62h-8v-182c0 -11 8 -15 38 -15v-11h-115z" />
    <glyph glyph-name="asterisk" unicode="*" horiz-adv-x="423" 
d="M265 392c-20 -7 -36 7 -44 34c-5 18 -8 96 -9 118l-9 3c-14 -18 -60 -80 -77 -91c-23 -15 -41 -18 -54 0c-11 16 -6 34 17 51c15 11 90 38 110 45v9c-20 8 -93 34 -109 45c-23 16 -30 37 -18 52c14 18 33 15 54 -1c17 -13 63 -73 77 -91l9 3c1 22 3 99 9 119
c8 26 23 38 44 33c20 -5 23 -26 16 -53c-5 -18 -51 -83 -64 -102l6 -5c21 4 94 27 116 27c27 0 44 -10 44 -31c0 -23 -17 -32 -44 -32c-22 0 -95 23 -116 27l-6 -5c13 -20 58 -83 64 -103c7 -25 4 -45 -16 -52z" />
    <glyph glyph-name="dagger" unicode="&#x2020;" horiz-adv-x="549" 
d="M268 -107c-8 176 -34 372 -50 417l37 62c6 10 9 24 9 34c0 36 -20 58 -57 58c-49 0 -90 -37 -128 -37c-23 0 -48 11 -48 37c0 28 32 47 82 47c41 0 96 -23 152 -52l3 3l-18 103c-9 47 -19 91 -19 117c0 37 16 63 44 63c27 0 43 -26 43 -63c0 -26 -11 -70 -19 -117
l-18 -103l3 -3c56 29 111 52 152 52c50 0 82 -19 82 -47c0 -26 -25 -37 -48 -37c-38 0 -79 37 -128 37c-37 0 -57 -22 -57 -58c0 -10 3 -24 9 -34l37 -62c-16 -45 -42 -241 -50 -417h-13z" />
    <glyph glyph-name="daggerdbl" unicode="&#x2021;" horiz-adv-x="549" 
d="M274 -109c-27 0 -43 22 -43 59c0 26 11 60 19 107l18 103l-3 3c-56 -29 -111 -52 -152 -52c-50 0 -82 16 -82 47c0 26 25 37 48 37c38 0 79 -37 128 -37c37 0 57 17 57 48c0 10 -4 32 -9 44l-27 68l27 68c5 12 9 31 9 41c0 31 -20 51 -57 51c-49 0 -90 -37 -128 -37
c-23 0 -48 11 -48 37c0 28 32 47 82 47c41 0 96 -23 152 -52l3 3l-18 103c-9 47 -19 81 -19 107c0 37 16 59 44 59c27 0 43 -22 43 -59c0 -26 -11 -60 -19 -107l-18 -103l3 -3c56 29 111 52 152 52c50 0 82 -19 82 -47c0 -26 -25 -37 -48 -37c-38 0 -79 37 -128 37
c-37 0 -57 -17 -57 -48c0 -10 4 -32 9 -44l27 -68l-27 -68c-5 -12 -9 -34 -9 -44c0 -31 20 -48 57 -48c49 0 90 37 128 37c23 0 48 -11 48 -37c0 -28 -32 -47 -82 -47c-41 0 -96 23 -152 52l-3 -3l18 -103c8 -47 19 -81 19 -107c0 -37 -16 -59 -44 -59z" />
    <glyph glyph-name="asciicircum" unicode="^" horiz-adv-x="353" 
d="M25 548l147 212h17l139 -212h-24l-127 139l-128 -139h-24z" />
    <glyph glyph-name="asciitilde" unicode="~" horiz-adv-x="393" 
d="M49 280c14 80 40 120 95 120c45 0 101 -51 138 -51c17 0 34 16 46 60h20c-14 -80 -43 -120 -95 -120c-45 0 -101 51 -138 51c-17 0 -34 -14 -46 -60h-20z" />
    <glyph glyph-name="dollar" unicode="$" horiz-adv-x="565" 
d="M277 -64v83c-113 2 -216 57 -216 135c0 28 19 60 61 60c35 0 56 -26 56 -56c0 -22 -15 -44 -41 -56c20 -30 81 -59 140 -63v254c-2 1 -4 1 -5 2c-93 31 -189 60 -189 168c0 103 96 170 194 177v73h26v-72c109 -3 193 -59 193 -125c0 -31 -19 -58 -52 -58
c-39 0 -57 25 -57 54c0 22 17 44 36 52c-23 28 -67 54 -120 57v-239c7 -3 13 -5 21 -7c86 -28 181 -53 181 -168c0 -85 -64 -180 -202 -188v-83h-26zM431 155c0 67 -33 95 -128 129v-245c91 5 128 54 128 116zM164 506c0 -60 37 -87 113 -115v229c-69 -5 -113 -43 -113 -114
z" />
    <glyph glyph-name="sterling" unicode="&#xa3;" horiz-adv-x="602" 
d="M452 349v-21h-166c9 -26 16 -52 16 -80c0 -51 -27 -96 -72 -136c57 -13 125 -43 209 -43c57 0 102 27 111 124l16 -1c1 -118 -62 -206 -151 -206c-57 0 -134 49 -200 106c-17 -58 -56 -106 -104 -106c-35 0 -55 23 -55 51c0 42 43 82 127 82c9 0 18 -1 28 -3
c9 20 13 41 13 72c0 55 -19 98 -39 140h-122v21h112c-18 38 -34 75 -34 121c0 131 102 204 223 204c95 0 169 -56 169 -126c0 -35 -21 -64 -55 -64c-36 0 -62 22 -62 62c0 28 20 48 37 60c-19 27 -52 50 -101 50c-67 0 -123 -40 -123 -135c0 -67 28 -119 50 -172h173z" />
    <glyph glyph-name="Euro" unicode="&#x20ac;" horiz-adv-x="669" 
d="M437 260h-217c21 -142 102 -219 216 -219c82 0 148 47 183 117l16 -9c-42 -81 -106 -166 -234 -166c-168 0 -265 126 -286 277h-84v21h81c-1 13 -1 27 -1 41c0 21 2 43 5 64h-85v21h89c33 148 151 270 310 270c117 0 196 -63 196 -133c0 -38 -24 -70 -59 -70
c-37 0 -65 23 -65 66c0 32 21 56 44 66c-11 24 -62 53 -119 53c-111 0 -194 -72 -210 -252h220v-21h-222c-1 -15 -1 -31 -1 -47c0 -21 1 -40 3 -58h220v-21z" />
    <glyph glyph-name="yen" unicode="&#xa5;" horiz-adv-x="687" 
d="M94 308v21h177l-140 235c-29 48 -55 69 -114 83v13h296v-13c-99 -5 -95 -42 -70 -87l136 -244l109 192c47 82 47 121 -45 139v13h229v-13c-54 -11 -102 -48 -146 -124l-113 -194h178v-21h-191l-11 -20v-55h202v-21h-202v-127c0 -44 23 -69 118 -72v-13h-328v13
c95 3 118 28 118 72v127h-203v21h203v53l-13 22h-190z" />
    <glyph glyph-name="cent" unicode="&#xa2;" horiz-adv-x="519" 
d="M272 -86v78c-130 5 -205 103 -205 233c0 129 91 227 205 240v70h26v-68c105 0 171 -60 171 -113c0 -32 -19 -60 -50 -60c-34 0 -54 22 -54 52c0 27 15 45 30 55c-12 23 -49 48 -95 48h-2v-417c6 -1 13 -1 20 -1c61 0 96 26 140 78l11 -8c-38 -56 -86 -103 -171 -108v-79
h-26zM160 247c0 -101 35 -185 112 -209v407c-63 -16 -112 -87 -112 -198z" />
    <glyph glyph-name="numbersign" unicode="#" horiz-adv-x="703" 
d="M321 703l-44 -223h208l45 223h26l-44 -223h157v-21h-161l-50 -250h168v-21h-172l-46 -230h-26l45 230h-208l-46 -230h-26l45 230h-154v21h158l50 250h-164v21h168l45 223h26zM273 459l-50 -250h208l50 250h-208z" />
    <glyph glyph-name="paragraph" unicode="&#xb6;" horiz-adv-x="671" 
d="M367 -100v283c-178 4 -313 91 -313 239c0 137 113 238 311 238h266v-12c-97 -6 -119 -17 -119 -61v-687h-26v740h-92v-740h-27z" />
    <glyph glyph-name="section" unicode="&#xa7;" horiz-adv-x="556" 
d="M81 244c0 62 43 117 127 141v1c-75 34 -115 70 -115 132c0 93 85 156 198 156c91 0 171 -53 171 -109c0 -36 -20 -59 -53 -59c-35 0 -55 26 -55 53c0 22 11 43 39 52c-11 18 -45 43 -111 43c-73 0 -134 -34 -134 -96c0 -44 50 -74 178 -121c99 -36 152 -69 152 -146
c0 -58 -32 -111 -111 -137v-1c73 -28 105 -63 105 -133c0 -95 -68 -161 -194 -161c-98 0 -205 38 -205 117c0 37 19 67 58 67c37 0 57 -27 57 -57c0 -24 -15 -47 -41 -60c17 -25 68 -47 138 -47c81 0 137 43 137 95c0 47 -27 76 -169 124c-114 38 -172 73 -172 146zM336 165
c60 17 91 45 91 77c0 47 -42 77 -150 116c-17 6 -28 10 -43 17c-64 -18 -97 -48 -97 -86c0 -49 26 -65 166 -112c14 -5 22 -7 33 -12z" />
    <glyph glyph-name="ordfeminine" unicode="&#xaa;" horiz-adv-x="435" 
d="M153 331c-65 0 -95 43 -95 84c0 30 13 60 45 77c56 31 144 38 159 47v53c0 57 -17 83 -62 83c-26 0 -50 -5 -63 -20c12 -12 20 -26 20 -40c0 -26 -16 -44 -44 -44c-25 0 -41 20 -41 43c0 44 56 77 137 77s126 -32 126 -107v-181c0 -36 14 -54 57 -36l4 -10
c-26 -16 -45 -24 -70 -24c-42 0 -57 17 -60 58h-3c-30 -33 -64 -60 -110 -60zM194 367c27 0 53 21 68 43v113c-103 -22 -125 -44 -125 -95c0 -36 17 -61 57 -61z" />
    <glyph glyph-name="ordmasculine" unicode="&#xba;" horiz-adv-x="446" 
d="M224 331c-101 0 -177 72 -177 178s80 182 177 182c99 0 175 -73 175 -179s-80 -181 -175 -181zM227 346c59 0 91 46 91 165s-37 164 -98 164s-91 -45 -91 -164s36 -165 98 -165z" />
    <glyph glyph-name="degree" unicode="&#xb0;" horiz-adv-x="376" 
d="M189 433c-85 0 -141 63 -141 140c0 76 60 141 139 141c85 0 140 -62 140 -139s-59 -142 -138 -142zM190 451c48 0 82 38 82 122c0 85 -38 123 -87 123c-47 0 -81 -38 -81 -121c0 -86 38 -124 86 -124z" />
    <glyph glyph-name="percent" unicode="%" horiz-adv-x="813" 
d="M585 8c92 0 157 147 157 234c0 62 -23 95 -69 95c-95 0 -153 -142 -153 -242c0 -57 26 -87 65 -87zM580 -14c-88 0 -137 61 -137 146c0 111 103 240 214 240c66 0 110 -48 110 -129s-69 -257 -187 -257zM350 544c0 12 -1 22 -2 32c-34 11 -65 30 -96 58
c-78 -25 -124 -148 -124 -237c0 -57 26 -87 65 -87c92 0 157 147 157 234zM265 674c46 0 82 -24 99 -66c23 -10 50 -17 83 -17c56 0 123 29 190 98h24l-475 -715h-43l448 647l-3 3c-36 -34 -94 -60 -159 -60c-20 0 -38 2 -55 5c1 -7 1 -16 1 -24c0 -81 -69 -257 -187 -257
c-88 0 -137 61 -137 146c0 111 103 240 214 240z" />
    <glyph glyph-name="percent.alt" horiz-adv-x="850" 
d="M378 500c0 -100 -81 -176 -168 -176c-94 0 -170 73 -170 174c0 100 81 176 168 176c94 0 170 -73 170 -174zM157 -10l261 351l238 329h37l-259 -348l-240 -332h-37zM206 656c-56 0 -86 -36 -86 -156c0 -122 35 -158 92 -158c56 0 86 36 86 156c0 122 -35 158 -92 158z
M472 160c0 100 81 176 168 176c94 0 170 -73 170 -174c0 -100 -81 -176 -168 -176c-94 0 -170 73 -170 174zM644 4c56 0 86 36 86 156c0 122 -35 158 -92 158c-56 0 -86 -36 -86 -156c0 -122 35 -158 92 -158z" />
    <glyph glyph-name="quotedbl" unicode="&#x22;" horiz-adv-x="417" 
d="M255 441l-13 5l20 92c18 82 25 116 32 132c10 21 24 32 44 32c31 0 45 -25 45 -47c0 -5 -2 -15 -5 -23c-6 -15 -25 -48 -71 -115zM80 441l-13 5l20 92c18 82 25 116 32 132c10 21 24 32 44 32c31 0 45 -25 45 -47c0 -5 -2 -15 -5 -23c-6 -15 -25 -48 -71 -115z" />
    <glyph glyph-name="quotesingle" unicode="'" horiz-adv-x="242" 
d="M80 441l-13 5l20 92c18 82 25 116 32 132c10 21 24 32 44 32c31 0 45 -25 45 -47c0 -5 -2 -15 -5 -23c-6 -15 -25 -48 -71 -115z" />
    <glyph glyph-name="plus" unicode="+" horiz-adv-x="556" 
d="M54 314v22h212v211h26v-211h210v-22h-210v-214h-26v214h-212z" />
    <glyph glyph-name="minus" unicode="&#x2212;" horiz-adv-x="536" 
d="M54 314v22h428v-22h-428z" />
    <glyph glyph-name="divide" unicode="&#xf7;" horiz-adv-x="576" 
d="M54 314v22h468v-22h-468zM289 412c-33 0 -59 26 -59 58s26 58 59 58c32 0 58 -26 58 -58s-26 -58 -58 -58zM289 122c-33 0 -59 26 -59 58s26 58 59 58c32 0 58 -26 58 -58s-26 -58 -58 -58z" />
    <glyph glyph-name="equal" unicode="=" horiz-adv-x="556" 
d="M59 214v22h438v-22h-438zM59 412v22h438v-22h-438z" />
    <glyph glyph-name="multiply" unicode="&#xd7;" horiz-adv-x="556" 
d="M456 519l17 -17l-178 -178l178 -178l-17 -17l-178 178l-178 -178l-17 17l178 178l-178 178l17 17l178 -178z" />
    <glyph glyph-name="less" unicode="&#x3c;" horiz-adv-x="555" 
d="M84 312v24l388 213v-30l-358 -195l358 -194v-30z" />
    <glyph glyph-name="greater" unicode="&#x3e;" horiz-adv-x="555" 
d="M472 313l-388 -213v30l358 195l-358 194v30l388 -212v-24z" />
    <glyph glyph-name="plusminus" unicode="&#xb1;" horiz-adv-x="530" 
d="M59 314v22h194v193h26v-193h192v-22h-192v-196h-26v196h-194zM59 0v22h412v-22h-412z" />
    <glyph glyph-name="space" unicode=" " horiz-adv-x="184" 
 />
    <glyph glyph-name="uni00A0" unicode="&#xa0;" horiz-adv-x="184" 
 />
    <glyph glyph-name="emspace" unicode="&#x2003;" horiz-adv-x="1000" 
 />
    <glyph glyph-name="enspace" unicode="&#x2002;" horiz-adv-x="500" 
 />
    <glyph glyph-name="threeperemspace" unicode="&#x2004;" horiz-adv-x="333" 
 />
    <glyph glyph-name="fourperemspace" unicode="&#x2005;" horiz-adv-x="250" 
 />
    <glyph glyph-name="thinspace" unicode="&#x2009;" horiz-adv-x="133" 
 />
    <glyph glyph-name="hairspace" unicode="&#x200a;" horiz-adv-x="75" 
 />
    <glyph glyph-name="NUL" horiz-adv-x="0" 
 />
    <glyph glyph-name="hfjslug" horiz-adv-x="694" 
d="M644 -200h-208l-8 14h-163l-8 -14h-207v303c18 0 32 14 32 32c0 17 -14 32 -32 32v554h100l30 79h334l29 -79h101v-921zM400 563v-172h15v78h38v14h-38v66h43v14h-58zM184 563v-172h15v79h47v-79h15v172h-15v-79h-47v79h-15zM460 394c5 -2 14 -4 21 -4c20 0 31 11 31 36
v137h-16v-137c0 -16 -5 -22 -16 -22c-6 0 -15 3 -20 5v-15zM371 465l-13 3c-2 -9 -5 -21 -8 -30h-1l-16 31c13 12 23 26 23 42c0 15 -9 31 -27 31c-17 0 -28 -16 -28 -31s6 -24 14 -39c-15 -12 -23 -28 -23 -47c0 -22 12 -37 29 -37c13 0 23 9 29 24h1l12 -24l12 6l-17 32
c5 12 9 25 13 39zM523 323v-46h8v12l8 8l15 -20h10l-20 26l18 20h-10l-20 -24h-1v24h-8zM488 292l10 -15h9l-12 17c5 2 10 6 10 14c0 9 -7 15 -17 15h-20v-46h8v15h12zM426 276c14 0 24 11 24 24c0 12 -10 24 -24 24s-24 -12 -24 -24c0 -13 10 -24 24 -24zM370 301l-13 22
h-9l18 -29v-17h8v17l18 29h-9zM193 323v-46h34v7h-26v13h23v7h-23v12h26v7h-34zM132 323v-46h8v32l25 -32h7v46h-8v-32l-25 32h-7zM241 323l14 -47h8l11 34h1l11 -34h8l14 47h-8l-10 -35h-1l-11 35h-7l-11 -35h-1l-10 35h-8zM327 479c-7 13 -12 22 -12 32s6 19 14 19
s13 -9 13 -19c0 -12 -5 -21 -15 -32zM342 423c-5 -13 -12 -21 -20 -21c-9 0 -16 10 -16 25c0 13 7 26 16 35zM487 299h-11v17h11c6 0 10 -3 10 -8s-4 -9 -10 -9zM426 283c-10 0 -16 8 -16 17c0 8 6 17 16 17s16 -9 16 -17c0 -9 -6 -17 -16 -17z" />
    <glyph glyph-name="i.dot" horiz-adv-x="278" 
d="M137 556c-33 0 -55 22 -55 56s22 59 55 59s55 -23 55 -57s-22 -58 -55 -58zM28 0v12c58 1 73 6 73 40v342c0 30 -15 50 -73 51v12l157 4v-409c0 -34 13 -39 76 -40v-12h-233z" />
    <glyph glyph-name="fraction" unicode="&#x2044;" horiz-adv-x="605" 
d="M43 -31l245 354l242 354h32l-244 -354l-243 -354h-32z" />
    <glyph glyph-name="acute" unicode="&#xb4;" horiz-adv-x="238" 
d="M50 530l56 128c19 44 33 68 59 68c22 0 38 -17 38 -39c0 -18 -17 -40 -43 -65l-99 -92h-11z" />
    <glyph glyph-name="hungarumlaut" unicode="&#x2dd;" horiz-adv-x="288" 
d="M138 530l60 128c21 44 36 68 62 68c22 0 36 -15 36 -37c0 -18 -16 -39 -46 -67l-101 -92h-11zM-12 530l60 128c21 44 36 68 62 68c22 0 36 -15 36 -37c0 -18 -19 -42 -46 -67l-101 -92h-11z" />
    <glyph glyph-name="caron.alt" horiz-adv-x="135" 
d="M39 535l-2 109c0 17 -1 47 -1 61c0 44 24 55 41 55c21 0 38 -13 38 -41c0 -14 -5 -33 -14 -55l-52 -129h-10z" />
    <glyph glyph-name="grave" unicode="`" horiz-adv-x="238" 
d="M164 530l-99 92c-27 25 -43 47 -43 65c0 22 16 39 38 39c26 0 40 -24 59 -68l56 -128h-11z" />
    <glyph glyph-name="circumflex" unicode="&#x2c6;" horiz-adv-x="299" 
d="M18 530l129 183h13l121 -183h-16l-115 96l-116 -96h-16z" />
    <glyph glyph-name="caron" unicode="&#x2c7;" horiz-adv-x="299" 
d="M140 530l-121 183h16l115 -96l116 96h16l-129 -183h-13z" />
    <glyph glyph-name="breve" unicode="&#x2d8;" horiz-adv-x="336" 
d="M169 535c-75 0 -126 68 -134 153h15c18 -60 56 -89 119 -89s99 29 117 89h15c-7 -85 -57 -153 -132 -153z" />
    <glyph glyph-name="tilde" unicode="&#x2dc;" horiz-adv-x="331" 
d="M11 526c14 80 40 120 95 120c45 0 111 -47 148 -47c17 0 38 16 50 60h16c-14 -80 -43 -120 -95 -120c-45 0 -111 47 -148 47c-17 0 -38 -14 -50 -60h-16z" />
    <glyph glyph-name="macron" unicode="&#xaf;" horiz-adv-x="321" 
d="M23 560v39h275v-39h-275z" />
    <glyph glyph-name="dieresis" unicode="&#xa8;" horiz-adv-x="322" 
d="M247 535c-31 0 -53 24 -53 55s22 56 53 56s53 -25 53 -56s-22 -55 -53 -55zM75 535c-31 0 -53 24 -53 55s22 56 53 56s53 -25 53 -56s-22 -55 -53 -55z" />
    <glyph glyph-name="dotaccent" unicode="&#x2d9;" horiz-adv-x="192" 
d="M96 535c-34 0 -55 23 -55 57c0 32 23 58 55 58c34 0 55 -24 55 -58c0 -32 -23 -57 -55 -57z" />
    <glyph glyph-name="ring" unicode="&#x2da;" horiz-adv-x="258" 
d="M129 535c-64 0 -105 47 -105 102s41 102 105 102c63 0 105 -47 105 -102s-41 -102 -105 -102zM129 551c37 0 59 33 59 86c0 63 -21 86 -59 86c-37 0 -59 -23 -59 -86c0 -53 22 -86 59 -86z" />
    <glyph glyph-name="commaaccent" unicode="&#x326;" horiz-adv-x="217" 
d="M54 -270l-7 11c51 32 80 69 83 108l-4 1c-6 -5 -16 -8 -24 -8c-28 0 -47 21 -47 46c0 28 21 52 50 52c37 0 61 -27 61 -72c0 -55 -42 -106 -112 -138z" />
    <glyph glyph-name="cedilla" unicode="&#xb8;" horiz-adv-x="282" 
d="M112 -251c-33 0 -71 9 -103 36l11 15c25 -21 56 -29 79 -29c39 0 58 22 58 60c0 37 -32 59 -74 59c-12 0 -23 -1 -38 -6l-6 9l118 104h26l-77 -71l2 -3c79 0 112 -41 112 -86c0 -48 -46 -88 -108 -88z" />
    <glyph glyph-name="ogonek" unicode="&#x2db;" horiz-adv-x="269" 
d="M126 -243c-55 0 -97 32 -97 81c0 46 25 79 93 137l40 34h19l-32 -36c-34 -38 -53 -75 -53 -120s28 -65 61 -65c25 0 41 6 62 17l7 -14c-33 -22 -63 -34 -100 -34z" />
    </font>
</defs>
</svg>
